# Blender v2.79 (sub 0) OBJ File: 'Wegweisertafel.blend'
# www.blender.org
mtllib Wegweisertafel.mtl
o Wegweisertafel_Layer0_001_0_0
v -1.535433 6.986218 0.378876
v -1.629921 6.986218 0.284388
v -1.629921 6.986218 0.378876
v -1.535433 6.986218 0.284388
v -1.629921 6.372046 -0.461551
v -1.535433 -7.269683 -0.461554
v -1.629921 -7.269683 -0.461554
v -1.535433 6.372046 -0.461551
v -1.629921 6.372046 -0.367062
v -1.535433 6.372046 -0.367062
v -1.629921 -7.269683 -0.367065
v -1.535433 -7.269683 -0.367065
v -1.535433 6.127740 -0.367063
v -1.535433 6.210417 -0.367062
v -1.629921 6.903543 0.284388
v -1.629921 6.289371 -0.367062
v -1.629921 6.210417 -0.367062
v -1.629921 5.514063 0.284388
v -1.629921 5.596740 0.284388
v -1.629921 6.127740 -0.367063
v -1.629921 -7.269683 0.378873
v -1.629921 5.409275 0.284388
v -1.629921 -7.269683 0.284385
v -1.629921 0.720285 0.284387
v -1.535433 -7.269683 0.284385
v 1.913386 7.269683 0.461554
v -1.913386 1.311962 0.461552
v 1.913386 1.311962 0.461552
v -1.913386 7.269683 0.461554
v -1.535433 6.289371 -0.367062
v -1.535433 6.903543 0.284388
v -1.535433 5.596740 0.284388
v -1.535433 5.514063 0.284388
v -1.629921 4.795102 -0.367063
v -1.535433 4.795102 -0.367063
v -1.535433 4.019795 0.284388
v -1.629921 4.633471 -0.367063
v -1.629921 4.019795 0.284388
v -1.535433 4.633471 -0.367063
v -1.629921 5.326597 0.284388
v -1.629921 4.712424 -0.367063
v -1.535433 4.712424 -0.367063
v -1.535433 5.326597 0.284388
v -1.629921 3.937118 0.284388
v -1.629921 4.550794 -0.367063
v -1.535433 5.409275 0.284388
v -1.535433 4.550794 -0.367063
v -1.535433 3.937118 0.284388
v -1.535433 3.829417 0.284388
v -1.629921 3.215244 -0.367063
v -1.629921 3.829417 0.284388
v -1.535433 3.215244 -0.367063
v -1.535433 2.970937 -0.367063
v -1.535433 2.439937 0.284387
v -1.535433 2.357260 0.284387
v -1.535433 3.053614 -0.367063
v -1.629921 3.053614 -0.367063
v -1.629921 2.357260 0.284387
v -1.629921 2.439937 0.284387
v -1.629921 2.970937 -0.367063
v -1.535433 3.132567 -0.367063
v -1.535433 3.746740 0.284387
v -1.629921 3.746740 0.284387
v -1.629921 3.132567 -0.367063
v -1.629921 1.578269 -0.367064
v -1.629921 2.109765 0.284387
v -1.629921 2.192442 0.284387
v -1.629921 1.495592 -0.367064
v -1.535433 1.495592 -0.367064
v -1.535433 2.109765 0.284387
v -1.535433 1.333962 -0.367064
v -1.629921 1.333962 -0.367064
v -1.535433 0.720285 0.284387
v -1.535433 2.192442 0.284387
v -1.535433 1.578269 -0.367064
v -1.535433 0.802962 0.284387
v -1.629921 1.416639 -0.367064
v -1.629921 0.802962 0.284387
v -1.535433 1.416639 -0.367064
v -1.535433 -7.269683 0.378873
v -1.535433 1.311962 0.378875
v -1.629921 1.311962 0.378875
v -1.913386 7.269683 0.378876
v -1.913386 1.311962 0.378875
v 1.913386 1.311962 0.378875
v 1.913386 7.269683 0.378876
v 1.629921 1.495592 -0.367064
v 1.535433 2.109765 0.284387
v 1.535433 1.495592 -0.367064
v 1.629921 2.109765 0.284387
v 1.535433 5.409275 0.284388
v 1.535433 4.712424 -0.367063
v 1.535433 5.326597 0.284388
v 1.535433 4.795102 -0.367063
v 1.535433 6.986218 0.284388
v 1.535433 6.289371 -0.367062
v 1.535433 6.903543 0.284388
v 1.535433 6.372046 -0.367062
v 1.629921 4.795102 -0.367063
v 1.629921 6.210417 -0.367062
v 1.629921 4.550794 -0.367063
v 1.629921 4.712424 -0.367063
v 1.629921 3.215244 -0.367063
v 1.629921 1.333962 -0.367064
v 1.629921 6.289371 -0.367062
v 1.629921 6.372046 -0.461551
v 1.629921 6.372046 -0.367062
v 1.629921 1.578269 -0.367064
v 1.629921 -7.269683 -0.367065
v 1.629921 -7.269683 -0.461554
v 1.629921 2.439937 0.284387
v 1.535433 3.053614 -0.367063
v 1.535433 2.439937 0.284387
v 1.629921 3.053614 -0.367063
v 1.629921 5.409275 0.284388
v 1.629921 4.019795 0.284388
v 1.535433 4.019795 0.284388
v 1.629921 5.326597 0.284388
v 1.629921 4.633471 -0.367063
v 1.535433 4.633471 -0.367063
v 1.629921 3.937118 0.284388
v 1.535433 6.372046 -0.461551
v 1.535433 6.210417 -0.367062
v 1.535433 6.127740 -0.367063
v 1.535433 -7.269683 -0.367065
v 1.535433 -7.269683 -0.461554
v 1.535433 1.333962 -0.367064
v 1.535433 1.578269 -0.367064
v 1.535433 3.215244 -0.367063
v 1.535433 4.550794 -0.367063
v 1.535433 3.937118 0.284388
v 1.535433 3.746740 0.284387
v 1.535433 3.829417 0.284388
v 1.535433 3.132567 -0.367063
v 1.629921 -7.269683 0.284385
v 1.535433 -7.269683 0.378873
v 1.535433 -7.269683 0.284385
v 1.629921 -7.269683 0.378873
v 1.629921 3.132567 -0.367063
v 1.629921 3.746740 0.284387
v 1.629921 3.829417 0.284388
v 1.535433 2.970937 -0.367063
v 1.629921 2.357260 0.284387
v 1.535433 2.357260 0.284387
v 1.629921 2.970937 -0.367063
v 1.629921 6.127740 -0.367063
v 1.535433 5.514063 0.284388
v 1.629921 5.514063 0.284388
v 1.629921 6.903543 0.284388
v 1.629921 6.986218 0.284388
v 1.535433 5.596740 0.284388
v 1.629921 5.596740 0.284388
v 1.629921 6.986218 0.378876
v 1.629921 1.311962 0.378875
v 1.535433 1.311962 0.378875
v 1.535433 1.416639 -0.367064
v 1.629921 1.416639 -0.367064
v 1.535433 2.192442 0.284387
v 1.535433 6.986218 0.378876
v 1.535433 0.720285 0.284387
v 1.629921 0.720285 0.284387
v 1.629921 2.192442 0.284387
v 1.629921 0.802962 0.284387
v 1.535433 0.802962 0.284387
vt 0.081520 0.658590
vt 0.078770 0.600000
vt 0.075000 0.603900
vt 0.077750 0.662490
vt 0.737360 0.271620
vt 0.737360 0.221590
vt 0.730100 0.221590
vt 0.730100 0.271620
vt 0.043510 0.695170
vt 0.044240 0.636530
vt 0.040340 0.632770
vt 0.039610 0.691400
vt 0.111670 0.461230
vt 0.111670 0.455820
vt 0.068990 0.415610
vt 0.068990 0.421030
vt 0.262180 0.693580
vt 0.262180 0.795420
vt 0.268370 0.795420
vt 0.268370 0.693580
vt 0.796560 0.219640
vt 0.770790 0.083240
vt 0.750450 0.206510
vt 0.791140 0.219640
vt 0.966100 0.018140
vt 0.972300 0.018140
vt 0.972300 0.034140
vt 0.966100 0.034140
vt 0.171030 0.471420
vt 0.168280 0.412830
vt 0.164520 0.416720
vt 0.167270 0.475320
vt 0.420860 0.697650
vt 0.420860 0.783270
vt 0.427060 0.783270
vt 0.427060 0.697650
vt 0.290060 0.243370
vt 0.290060 0.633720
vt 0.284640 0.633720
vt 0.284640 0.243370
vt 0.372040 0.799380
vt 0.372040 0.805570
vt 0.378230 0.805570
vt 0.378230 0.799380
vt 0.818740 0.133270
vt 0.818740 0.083240
vt 0.811480 0.083240
vt 0.811480 0.133270
vt 0.043510 0.556130
vt 0.044240 0.497490
vt 0.040340 0.493730
vt 0.039610 0.552370
vt 0.913210 0.133270
vt 0.920460 0.133270
vt 0.920460 0.083240
vt 0.913210 0.083240
vt 0.730100 0.074440
vt 0.737240 0.074440
vt 0.737240 0.067310
vt 0.730100 0.067310
vt 0.913210 0.068180
vt 0.920470 0.068180
vt 0.920470 0.018140
vt 0.913210 0.018140
vt 0.770790 0.198370
vt 0.778050 0.198370
vt 0.778050 0.148340
vt 0.770790 0.148340
vt 0.791140 0.068180
vt 0.798400 0.068180
vt 0.798400 0.018140
vt 0.791140 0.018140
vt 0.750450 0.271620
vt 0.757710 0.271620
vt 0.757710 0.221590
vt 0.750450 0.221590
vt 0.427060 0.805570
vt 0.420860 0.805570
vt 0.323210 0.018140
vt 0.323210 0.911940
vt 0.329400 0.911940
vt 0.329400 0.018140
vt 0.058340 0.704500
vt 0.058340 0.493730
vt 0.052150 0.493730
vt 0.052150 0.704500
vt 0.831830 0.198370
vt 0.839090 0.198370
vt 0.839090 0.148340
vt 0.831830 0.148340
vt 0.837250 0.213450
vt 0.837250 0.219640
vt 0.831830 0.219640
vt 0.831830 0.213450
vt 0.791140 0.198370
vt 0.798400 0.198370
vt 0.798400 0.148340
vt 0.791140 0.148340
vt 0.158500 0.281220
vt 0.201190 0.321430
vt 0.201190 0.316010
vt 0.158500 0.275800
vt 0.831830 0.068180
vt 0.839090 0.068180
vt 0.839090 0.018140
vt 0.831830 0.018140
vt 0.465620 0.018140
vt 0.716350 0.018140
vt 0.716350 0.408490
vt 0.465620 0.408490
vt 0.750450 0.336720
vt 0.757710 0.336720
vt 0.757710 0.286690
vt 0.750450 0.286690
vt 0.052150 0.711620
vt 0.052150 0.723900
vt 0.058340 0.723900
vt 0.058340 0.711620
vt 0.757710 0.206510
vt 0.757710 0.156480
vt 0.750450 0.156480
vt 0.158500 0.377880
vt 0.201190 0.337640
vt 0.201190 0.332230
vt 0.158500 0.372470
vt 0.277520 0.682920
vt 0.277520 0.689110
vt 0.272100 0.689110
vt 0.272100 0.682920
vt 0.078900 0.894330
vt 0.079630 0.835690
vt 0.075730 0.831930
vt 0.075000 0.890560
vt 0.437140 0.595930
vt 0.443330 0.595930
vt 0.443330 0.683240
vt 0.437140 0.683240
vt 0.450700 0.774960
vt 0.450700 0.781150
vt 0.445280 0.781150
vt 0.445280 0.774960
vt 0.770790 0.133270
vt 0.778050 0.133270
vt 0.778050 0.083240
vt 0.158500 0.167120
vt 0.201190 0.126880
vt 0.201190 0.121460
vt 0.158500 0.161700
vt 0.032370 0.974280
vt 0.026180 0.974280
vt 0.026180 0.958070
vt 0.032370 0.958070
vt 0.892860 0.068180
vt 0.900120 0.068180
vt 0.900120 0.018140
vt 0.892860 0.018140
vt 0.427060 0.799380
vt 0.420860 0.799380
vt 0.776210 0.213450
vt 0.776210 0.219640
vt 0.770790 0.219640
vt 0.770790 0.213450
vt 0.750450 0.141420
vt 0.757710 0.141420
vt 0.757710 0.091380
vt 0.750450 0.091380
vt 0.952970 0.701870
vt 0.952970 0.708070
vt 0.947550 0.708070
vt 0.947550 0.701870
vt 0.872520 0.148340
vt 0.872520 0.154540
vt 0.878710 0.154540
vt 0.878710 0.148340
vt 0.277520 0.633720
vt 0.272100 0.633720
vt 0.272100 0.243370
vt 0.277520 0.243370
vt 0.852170 0.148340
vt 0.852170 0.154540
vt 0.858360 0.154540
vt 0.858360 0.148340
vt 0.730100 0.141420
vt 0.737360 0.141420
vt 0.737360 0.091380
vt 0.730100 0.091380
vt 0.052150 0.235880
vt 0.057570 0.235880
vt 0.057570 0.486610
vt 0.052150 0.486610
vt 0.913210 0.148340
vt 0.918620 0.148340
vt 0.918620 0.154540
vt 0.913210 0.154540
vt 0.158500 0.388470
vt 0.201190 0.428680
vt 0.201190 0.423260
vt 0.158500 0.383060
vt 0.730100 0.206520
vt 0.737360 0.206520
vt 0.737360 0.156480
vt 0.730100 0.156480
vt 0.449170 0.760050
vt 0.449900 0.701420
vt 0.446000 0.697650
vt 0.445280 0.756290
vt 0.078770 0.677310
vt 0.075000 0.681210
vt 0.077750 0.739800
vt 0.081520 0.735900
vt 0.872520 0.068180
vt 0.879780 0.068180
vt 0.879780 0.018140
vt 0.872520 0.018140
vt 0.879770 0.133270
vt 0.879770 0.083240
vt 0.872520 0.083240
vt 0.872520 0.133270
vt 0.445280 0.018140
vt 0.445280 0.580400
vt 0.451470 0.580400
vt 0.451470 0.018140
vt 0.077780 0.817090
vt 0.081540 0.813190
vt 0.078770 0.754620
vt 0.075000 0.758520
vt 0.396450 0.799380
vt 0.396450 0.805570
vt 0.402640 0.805570
vt 0.402640 0.799380
vt 0.770790 0.068180
vt 0.778050 0.068180
vt 0.778050 0.018140
vt 0.770790 0.018140
vt 0.164520 0.571340
vt 0.167290 0.629920
vt 0.171060 0.626020
vt 0.168280 0.567450
vt 0.852170 0.068180
vt 0.859430 0.068180
vt 0.859430 0.018140
vt 0.852170 0.018140
vt 0.811480 0.198370
vt 0.818740 0.198370
vt 0.818740 0.148340
vt 0.811480 0.148340
vt 0.043510 0.625650
vt 0.044240 0.567010
vt 0.040340 0.563250
vt 0.039610 0.621890
vt 0.262180 0.201240
vt 0.268370 0.201240
vt 0.268370 0.213520
vt 0.262180 0.213520
vt 0.372040 0.697650
vt 0.372040 0.783280
vt 0.378230 0.783280
vt 0.378230 0.697650
vt 0.730100 0.401830
vt 0.737360 0.401830
vt 0.737360 0.351790
vt 0.730100 0.351790
vt 0.737240 0.018140
vt 0.730100 0.018140
vt 0.424930 0.018140
vt 0.424930 0.580410
vt 0.431120 0.580410
vt 0.431120 0.018140
vt 0.816900 0.213450
vt 0.816900 0.219640
vt 0.811480 0.219640
vt 0.811480 0.213450
vt 0.243950 0.018140
vt 0.952970 0.715190
vt 0.952970 0.721380
vt 0.947550 0.721380
vt 0.947550 0.715190
vt 0.796560 0.213450
vt 0.791140 0.213450
vt 0.171030 0.548730
vt 0.168280 0.490140
vt 0.164520 0.494030
vt 0.167270 0.552630
vt 0.730100 0.336730
vt 0.737360 0.336730
vt 0.737360 0.286690
vt 0.730100 0.286690
vt 0.158500 0.063800
vt 0.201190 0.023550
vt 0.201190 0.018140
vt 0.158500 0.058380
vt 0.412730 0.595930
vt 0.418920 0.595930
vt 0.418920 0.683240
vt 0.412730 0.683240
vt 0.111670 0.370190
vt 0.111670 0.364780
vt 0.068990 0.405020
vt 0.068990 0.410440
vt 0.264300 0.030610
vt 0.258110 0.030610
vt 0.258110 0.018140
vt 0.264300 0.018140
vt 0.111670 0.147150
vt 0.111670 0.141730
vt 0.068990 0.101520
vt 0.068990 0.106940
vt 0.039610 0.235880
vt 0.045030 0.235880
vt 0.045030 0.486610
vt 0.039610 0.486610
vt 0.852170 0.133270
vt 0.859430 0.133270
vt 0.859430 0.083240
vt 0.852170 0.083240
vt 0.750450 0.074440
vt 0.757580 0.074440
vt 0.757580 0.067310
vt 0.750450 0.067310
vt 0.289810 0.659040
vt 0.289810 0.665230
vt 0.284640 0.665230
vt 0.284640 0.659040
vt 0.831830 0.133270
vt 0.839090 0.133270
vt 0.839090 0.083240
vt 0.831830 0.083240
vt 0.138160 0.018140
vt 0.131970 0.018140
vt 0.131970 0.952180
vt 0.138160 0.952180
vt 0.396450 0.697650
vt 0.396450 0.783280
vt 0.402640 0.783280
vt 0.402640 0.697650
vt 0.388310 0.595930
vt 0.388310 0.683430
vt 0.394500 0.683430
vt 0.394500 0.595930
vt 0.450450 0.795310
vt 0.450450 0.801500
vt 0.445280 0.801500
vt 0.445280 0.795310
vt 0.948250 0.632330
vt 0.947550 0.690990
vt 0.951450 0.694750
vt 0.952150 0.636100
vt 0.081520 0.503980
vt 0.078770 0.445380
vt 0.075000 0.449270
vt 0.077750 0.507870
vt 0.268370 0.908040
vt 0.262180 0.908040
vt 0.262180 0.811580
vt 0.268370 0.811580
vt 0.757580 0.018140
vt 0.097470 0.036030
vt 0.091280 0.036030
vt 0.091280 0.018140
vt 0.097470 0.018140
vt 0.404590 0.581850
vt 0.410780 0.581850
vt 0.410780 0.018140
vt 0.404590 0.018140
vt 0.892860 0.154540
vt 0.899050 0.154540
vt 0.899050 0.148340
vt 0.892860 0.148340
vt 0.363900 0.632670
vt 0.370090 0.632670
vt 0.370090 0.018140
vt 0.363900 0.018140
vt 0.892860 0.133270
vt 0.900120 0.133270
vt 0.900120 0.083240
vt 0.892860 0.083240
vt 0.152310 0.018140
vt 0.158500 0.018140
vt 0.158500 0.034140
vt 0.152310 0.034140
vt 0.750450 0.401820
vt 0.757710 0.401820
vt 0.757710 0.351790
vt 0.750450 0.351790
vt 0.068990 0.303180
vt 0.111670 0.262940
vt 0.111670 0.257520
vt 0.068990 0.297760
vt 0.168420 0.707150
vt 0.169140 0.648520
vt 0.165250 0.644760
vt 0.164520 0.703390
vt 0.384240 0.018140
vt 0.384240 0.581850
vt 0.390430 0.581850
vt 0.390430 0.018140
vt 0.262180 0.079170
vt 0.262180 0.186430
vt 0.268370 0.186430
vt 0.268370 0.079170
vt 0.811480 0.068180
vt 0.818740 0.068180
vt 0.818740 0.018140
vt 0.811480 0.018140
vt 0.111670 0.250470
vt 0.111670 0.245050
vt 0.068990 0.204840
vt 0.068990 0.210260
vt 0.347620 0.697650
vt 0.347620 0.783280
vt 0.353810 0.783280
vt 0.353810 0.697650
vt 0.081520 0.581280
vt 0.078770 0.522690
vt 0.075000 0.526590
vt 0.077750 0.585180
vt 0.207380 0.952180
vt 0.207380 0.018140
vt 0.201190 0.952180
vt 0.062800 0.018140
vt 0.068990 0.018140
vt 0.068990 0.023550
vt 0.062800 0.023550
vt 0.349750 0.632690
vt 0.349750 0.018140
vt 0.343550 0.018140
vt 0.343550 0.632690
vt 0.791140 0.133270
vt 0.798400 0.133270
vt 0.798400 0.083240
vt 0.791140 0.083240
vt 0.750450 0.018140
vt 0.243950 0.911950
vt 0.716350 0.425030
vt 0.716350 0.815380
vt 0.953740 0.625210
vt 0.484200 0.815380
vt 0.465620 0.815380
vt 0.465620 0.425030
vn 1.0000 0.0000 0.0000
vn 0.0000 -0.7276 0.6860
vn -1.0000 0.0000 0.0000
vn 0.0000 -0.0000 1.0000
vn 0.0000 1.0000 0.0000
vn 0.0000 -0.7279 -0.6857
vn 0.0000 -1.0000 0.0000
vn 0.0000 0.7276 -0.6860
vn 0.0000 0.0000 -1.0000
vn 0.0000 0.7279 0.6857
usemtl None
s off
f 50/1/1 51/2/1 63/3/1 64/4/1
f 158/5/2 128/6/2 108/7/2 162/8/2
f 120/9/1 117/10/1 131/11/1 130/12/1
f 161/13/3 163/14/3 157/15/3 104/16/3
f 132/17/4 158/18/4 162/19/4 140/20/4
f 32/21/3 14/22/3 13/23/3 33/24/3
f 10/25/4 9/26/4 20/27/4 13/28/4
f 65/29/1 67/30/1 66/31/1 68/32/1
f 40/33/4 38/34/4 36/35/4 43/36/4
f 83/37/3 84/38/3 27/39/3 29/40/3
f 110/41/5 126/42/5 125/43/5 109/44/5
f 117/45/6 120/46/6 119/47/6 116/48/6
f 77/49/1 78/50/1 24/51/1 72/52/1
f 163/53/6 164/54/6 156/55/6 157/56/6
f 153/57/7 159/58/7 95/59/7 150/60/7
f 115/61/2 91/62/2 94/63/2 99/64/2
f 111/65/6 113/66/6 112/67/6 114/68/6
f 102/69/8 92/70/8 93/71/8 118/72/8
f 54/73/6 59/74/6 57/75/6 56/76/6
f 122/77/1 98/78/1 125/43/1 126/42/1
f 5/79/4 7/80/4 6/81/4 8/82/4
f 89/83/9 92/84/9 102/85/9 87/86/9
f 101/87/10 130/88/10 131/89/10 121/90/10
f 35/91/4 34/92/4 41/93/4 42/94/4
f 71/95/10 72/96/10 24/97/10 73/98/10
f 53/99/3 55/100/3 54/101/3 56/102/3
f 74/103/2 67/104/2 65/105/2 75/106/2
f 26/107/4 29/108/4 27/109/4 28/110/4
f 76/111/6 78/112/6 77/113/6 79/114/6
f 18/115/4 40/116/4 43/117/4 33/118/4
f 13/23/10 20/119/10 18/120/10 33/121/10
f 69/122/3 70/123/3 74/124/3 75/125/3
f 158/126/9 162/127/9 90/128/9 88/129/9
f 112/130/1 113/131/1 144/132/1 142/133/1
f 146/134/4 124/135/4 94/136/4 99/137/4
f 91/138/9 115/139/9 118/140/9 93/141/9
f 32/142/6 19/143/6 17/144/6 14/22/6
f 42/145/3 43/146/3 46/147/3 35/148/3
f 70/149/9 66/150/9 58/151/9 55/152/9
f 105/153/8 96/154/8 97/155/8 149/156/8
f 98/78/7 122/77/7 106/157/7 107/158/7
f 2/159/9 4/160/9 31/161/9 15/162/9
f 49/163/2 51/164/2 50/165/2 52/166/2
f 39/167/4 37/168/4 45/169/4 47/170/4
f 6/171/5 7/172/5 11/173/5 12/174/5
f 28/175/1 85/176/1 86/177/1 26/178/1
f 135/179/5 137/180/5 136/181/5 138/182/5
f 139/183/8 134/184/8 132/185/8 140/186/8
f 85/187/7 28/188/7 27/189/7 84/190/7
f 146/191/4 100/192/4 123/193/4 124/194/4
f 71/195/3 73/196/3 76/197/3 79/198/3
f 87/199/8 89/200/8 88/201/8 90/202/8
f 37/203/1 38/204/1 44/205/1 45/206/1
f 91/207/1 93/208/1 92/209/1 94/210/1
f 42/211/8 41/212/8 40/213/8 43/214/8
f 142/215/10 144/216/10 143/217/10 145/218/10
f 81/219/9 80/220/9 21/221/9 82/222/9
f 143/223/3 111/224/3 114/225/3 145/226/3
f 25/227/5 23/228/5 21/229/5 80/230/5
f 61/231/8 64/232/8 63/233/8 62/234/8
f 47/235/3 48/236/3 36/237/3 39/238/3
f 46/239/2 22/240/2 34/241/2 35/242/2
f 146/243/10 124/244/10 147/245/10 148/246/10
f 156/247/1 164/248/1 160/249/1 127/250/1
f 151/251/9 152/252/9 115/253/9 91/254/9
f 93/255/4 117/256/4 116/257/4 118/258/4
f 69/259/8 68/260/8 66/261/8 70/262/8
f 150/60/2 95/59/2 98/263/2 107/264/2
f 154/265/9 138/266/9 136/267/9 155/268/9
f 157/269/4 156/270/4 127/271/4 104/272/4
f 122/77/4 126/42/4 110/41/4 106/273/4
f 95/274/9 150/275/9 149/276/9 97/277/9
f 19/278/9 32/21/9 33/24/9 18/279/9
f 34/280/1 22/281/1 40/282/1 41/283/1
f 30/284/8 16/285/8 15/286/8 31/287/8
f 30/288/3 31/289/3 4/290/3 10/291/3
f 13/292/4 20/293/4 34/294/4 35/295/4
f 90/296/3 162/297/3 108/298/3 87/299/3
f 49/300/9 51/301/9 38/302/9 36/303/9
f 148/304/3 152/305/3 100/306/3 146/307/3
f 26/308/5 86/309/5 83/310/5 29/311/5
f 152/312/6 151/313/6 123/314/6 100/315/6
f 1/316/7 3/317/7 2/318/7 4/319/7
f 42/320/4 41/321/4 37/322/4 39/323/4
f 47/324/10 45/325/10 44/326/10 48/327/10
f 2/328/1 3/329/1 21/330/1 23/331/1
f 97/332/4 151/333/4 152/334/4 149/335/4
f 47/336/9 52/337/9 50/338/9 45/339/9
f 87/340/4 89/341/4 156/342/4 157/343/4
f 61/344/3 62/345/3 49/346/3 52/347/3
f 128/348/1 158/349/1 88/350/1 89/351/1
f 55/352/9 58/353/9 51/354/9 49/355/9
f 15/162/1 16/285/1 9/356/1 2/159/1
f 140/357/9 132/358/9 117/359/9 116/360/9
f 109/361/9 125/362/9 127/363/9 104/364/9
f 9/365/7 5/366/7 8/367/7 10/368/7
f 137/369/4 135/370/4 90/371/4 88/372/4
f 104/373/10 127/374/10 160/375/10 161/376/10
f 52/377/4 50/378/4 60/379/4 53/380/4
f 95/59/1 97/155/1 96/154/1 98/263/1
f 36/381/6 38/382/6 37/383/6 39/384/6
f 139/385/3 140/386/3 141/387/3 103/388/3
f 57/389/1 59/390/1 58/391/1 60/392/1
f 71/393/9 12/394/9 11/395/9 72/396/9
f 53/397/9 71/398/9 72/399/9 60/400/9
f 141/401/2 133/402/2 129/403/2 103/404/2
f 121/405/3 116/406/3 119/407/3 101/408/3
f 15/409/4 19/410/4 32/411/4 31/412/4
f 129/413/1 133/414/1 132/415/1 134/416/1
f 80/417/3 1/418/3 4/290/3 46/147/3 73/196/3 25/419/3
f 99/420/4 94/421/4 92/422/4 102/423/4
f 25/424/4 70/425/4 66/426/4 23/427/4
f 53/428/10 60/429/10 58/430/10 55/431/10
f 4/319/2 2/318/2 9/356/2 10/432/2
f 150/275/3 107/264/3 105/153/3 149/276/3
f 138/182/3 153/57/3 150/60/3 135/179/3
f 106/273/3 110/433/3 109/44/3 107/158/3
f 102/69/3 118/72/3 115/139/3 99/64/3
f 95/59/1 159/58/1 136/181/1 137/180/1
f 10/368/3 8/82/3 6/171/3 12/174/3
f 18/279/1 20/119/1 17/144/1 19/278/1
f 7/80/1 5/79/1 9/365/1 11/173/1
f 86/434/9 85/435/9 81/436/9 82/437/9 84/438/9 83/439/9
f 123/314/1 151/313/1 147/245/1 124/244/1
l 24 22
l 149 135
l 22 2
l 130 92
l 73 4
l 99 100
l 128 112
l 112 129
l 103 108
l 11 20
l 10 14
l 127 128
l 97 137
l 13 12
l 101 103
l 105 100
l 123 98
l 102 101
l 124 125
l 103 104
l 108 104
l 16 17
