# Blender v2.79 (sub 0) OBJ File: ''
# www.blender.org
mtllib Volkswagen Passat B5_LOD.mtl
o vw_passat_b5_rw_lod_0
v -0.453832 0.549379 2.245364
v 0.000000 0.252167 2.257834
v 0.000000 0.562153 2.341581
v -0.434669 0.253733 2.176996
v 0.000000 0.758130 2.183765
v -0.472606 0.748041 2.070212
v -0.735337 0.947377 0.941697
v -0.730538 0.738363 1.880038
v 0.000000 0.978321 1.207791
v 0.000000 1.376772 0.418735
v -0.597164 1.332113 0.338811
v -0.580163 1.320225 -1.066966
v 0.000000 1.466819 -0.480873
v 0.000000 1.366491 -1.129747
v -0.553123 1.413112 -0.495151
v -0.601875 1.059500 -1.703841
v 0.000000 1.097616 -1.796038
v -0.511805 0.315028 -2.244422
v -0.780354 0.606561 -2.144874
v -0.526696 0.599177 -2.295197
v -0.738477 0.283458 -2.102644
v -0.821740 0.905579 0.320958
v -0.827621 0.933821 -0.546840
v -0.556555 1.013405 -2.139914
v 0.000000 1.033513 -2.184200
v 0.000000 0.605020 -2.351732
v 0.000000 0.329384 -2.292871
v -0.834252 0.578152 -1.728785
v -0.782781 0.248856 -1.746834
v -0.823518 0.238647 -0.149984
v -0.795848 0.551166 1.852353
v -0.762982 0.215585 1.847254
v -0.696885 0.929947 -2.116209
v -0.760045 0.917672 -1.712243
v -0.814826 0.480000 1.126076
v -0.814826 0.480000 1.680332
v -0.814826 0.640000 1.403204
v -0.814826 0.000000 1.403204
v -0.814826 0.160000 1.680332
v -0.814826 0.160000 1.126076
v -0.839987 0.480001 -1.591895
v -0.839987 0.480000 -1.037638
v -0.839987 0.640001 -1.314767
v -0.839988 0.000001 -1.314767
v -0.839988 0.160000 -1.037638
v -0.839988 0.160001 -1.591895
v 0.453832 0.549378 2.245364
v 0.434669 0.253733 2.176996
v 0.472607 0.748041 2.070212
v 0.735337 0.947376 0.941697
v 0.730538 0.738363 1.880038
v 0.597165 1.332113 0.338811
v 0.580163 1.320224 -1.066966
v 0.553124 1.413112 -0.495151
v 0.601875 1.059499 -1.703841
v 0.511805 0.315028 -2.244422
v 0.780354 0.606561 -2.144874
v 0.738477 0.283458 -2.102644
v 0.526697 0.599177 -2.295197
v 0.821740 0.905579 0.320958
v 0.827622 0.933821 -0.546840
v 0.556555 1.013405 -2.139914
v 0.834252 0.578152 -1.728785
v 0.782781 0.248856 -1.746834
v 0.823518 0.238646 -0.149984
v 0.795848 0.551166 1.852353
v 0.762982 0.215585 1.847254
v 0.696885 0.929947 -2.116209
v 0.760045 0.917672 -1.712243
v 0.814826 0.480000 1.126076
v 0.814826 -0.000000 1.403204
v 0.814826 0.160000 1.126076
v 0.814826 0.480000 1.680332
v 0.814826 0.160000 1.680332
v 0.814826 0.640000 1.403204
v 0.839988 0.480000 -1.591895
v 0.839988 0.000000 -1.314767
v 0.839988 0.160000 -1.591895
v 0.839988 0.480000 -1.037638
v 0.839988 0.160000 -1.037638
v 0.839988 0.640000 -1.314767
vt 0.866410 0.685030
vt 0.931640 0.594770
vt 0.865840 0.594770
vt 0.928710 0.691180
vt 0.813890 0.594770
vt 0.814380 0.702020
vt 0.236760 0.713900
vt 0.239340 0.918430
vt 0.295570 0.957040
vt 0.396360 0.765220
vt 0.396030 0.980020
vt 0.396640 0.577520
vt 0.270890 0.562300
vt 0.273380 0.270420
vt 0.396920 0.392960
vt 0.397120 0.258320
vt 0.285880 0.389860
vt 0.265910 0.121580
vt 0.397340 0.104730
vt 0.967470 0.078030
vt 0.902440 0.020850
vt 0.908360 0.081120
vt 0.972320 0.020000
vt 0.168960 0.557830
vt 0.174350 0.377400
vt 0.182740 0.689580
vt 0.138610 0.887270
vt 0.278030 0.027160
vt 0.397470 0.019690
vt 0.813890 0.191800
vt 0.910510 0.190240
vt 0.815180 0.071780
vt 0.969640 0.188640
vt 0.106950 0.128300
vt 0.045520 0.046050
vt 0.036790 0.122310
vt 0.115170 0.039650
vt 0.028490 0.459050
vt 0.096650 0.880900
vt 0.025550 0.880360
vt 0.832830 0.039790
vt 0.243430 0.028720
vt 0.221020 0.112010
vt 0.180740 0.132650
vt 0.186450 0.045550
vt 0.857660 0.793530
vt 0.931440 0.793290
vt 0.816270 0.775050
vt 0.931100 0.821220
vt 0.931100 0.984670
vt 0.978280 0.902950
vt 0.789550 0.902950
vt 0.836730 0.984670
vt 0.836730 0.821220
vt 0.931100 0.821220
vt 0.931100 0.984670
vt 0.978280 0.902950
vt 0.789550 0.902950
vt 0.836730 0.984670
vt 0.836730 0.821220
vt 0.866410 0.504510
vt 0.928710 0.498360
vt 0.814380 0.487520
vt 0.556110 0.714380
vt 0.496560 0.957350
vt 0.552910 0.918910
vt 0.522440 0.562680
vt 0.520820 0.270780
vt 0.507960 0.390190
vt 0.528730 0.121970
vt 0.972890 0.299470
vt 0.906600 0.359370
vt 0.978010 0.357440
vt 0.910940 0.299360
vt 0.624380 0.558520
vt 0.619530 0.378060
vt 0.610210 0.690220
vt 0.653750 0.888050
vt 0.516880 0.027510
vt 0.818550 0.311400
vt 0.687680 0.129160
vt 0.749350 0.047090
vt 0.679720 0.040490
vt 0.757850 0.123380
vt 0.765150 0.460150
vt 0.695730 0.881810
vt 0.766830 0.881470
vt 0.835950 0.342970
vt 0.551490 0.029180
vt 0.573640 0.112530
vt 0.613880 0.133290
vt 0.608420 0.046180
vt 0.857660 0.396010
vt 0.931440 0.396250
vt 0.816270 0.414490
vt 0.931100 0.984670
vt 0.789550 0.902950
vt 0.836730 0.984670
vt 0.931100 0.821220
vt 0.836730 0.821220
vt 0.978280 0.902950
vt 0.931100 0.984670
vt 0.789550 0.902950
vt 0.836730 0.984670
vt 0.931100 0.821220
vt 0.836730 0.821220
vt 0.978280 0.902950
vn -0.0169 -0.1356 0.9906
vn 0.1023 -0.2548 0.9616
vn -0.5062 0.1813 0.8431
vn -0.5826 -0.2865 0.7606
vn -0.3452 0.7018 0.6232
vn -0.2642 0.5390 0.7998
vn -0.5057 0.4615 0.7289
vn -0.1904 0.6472 0.7382
vn 0.0000 0.9522 0.3055
vn 0.0000 0.9508 0.3097
vn -0.5908 0.4926 0.6390
vn -0.2053 0.9668 0.1521
vn 0.0000 0.9996 -0.0279
vn 0.0000 0.9625 -0.2714
vn 0.0173 0.9998 -0.0137
vn -0.4043 0.8839 -0.2351
vn 0.0000 0.9681 -0.2505
vn -0.3139 -0.1825 -0.9318
vn -0.3729 0.0268 -0.9275
vn -0.2801 -0.2771 -0.9191
vn -0.6037 -0.6202 -0.5009
vn -0.9681 0.2483 0.0341
vn -0.9639 0.2662 -0.0073
vn 0.2809 0.9191 -0.2764
vn -0.5794 0.6388 -0.5062
vn -0.3096 0.0768 -0.9477
vn -0.0515 -0.2019 -0.9780
vn -0.9965 0.0250 -0.0798
vn -0.9854 -0.1495 -0.0818
vn -0.9998 -0.0187 0.0077
vn -0.7643 0.4901 0.4191
vn -0.7841 -0.5099 0.3539
vn -0.5004 0.0302 -0.8653
vn -0.7021 0.7027 -0.1152
vn -1.0000 -0.0000 0.0000
vn 0.0169 -0.1356 0.9906
vn 0.5826 -0.2865 0.7606
vn -0.1032 0.7982 0.5935
vn 0.4239 0.5316 0.7333
vn 0.6485 0.7346 -0.1997
vn 0.0031 0.9502 0.3116
vn 0.2053 0.9668 0.1521
vn 0.4871 0.6780 -0.5505
vn 0.4043 0.8839 -0.2351
vn 0.3606 -0.2970 -0.8842
vn 0.7164 -0.5368 -0.4457
vn 0.6037 -0.6202 -0.5010
vn 0.5903 0.0665 -0.8044
vn 0.9681 0.2483 0.0341
vn 0.9639 0.2662 -0.0073
vn -0.2809 0.9191 -0.2764
vn 0.9883 -0.0293 -0.1498
vn 0.9854 -0.1495 -0.0818
vn 0.9998 -0.0187 0.0077
vn 0.9814 0.1729 -0.0833
vn 0.7841 -0.5099 0.3539
vn 0.5004 0.0302 -0.8653
vn 0.7909 0.4600 -0.4035
vn 1.0000 -0.0000 -0.0000
usemtl None
s 1
f 1/1/1 2/2/2 3/3/3
f 2/2/2 1/1/1 4/4/4
f 5/5/5 1/1/1 3/3/3
f 1/1/1 5/5/5 6/6/6
f 7/7/7 8/8/8 6/9/6
f 7/7/7 6/9/6 9/10/9
f 6/9/6 5/11/5 9/10/9
f 7/7/7 10/12/10 11/13/11
f 10/12/10 7/7/7 9/10/9
f 12/14/12 13/15/13 14/16/14
f 13/15/13 12/14/12 15/17/15
f 14/16/14 16/18/16 12/14/12
f 16/18/16 14/16/14 17/19/17
f 18/20/18 19/21/19 20/22/20
f 19/21/19 18/20/18 21/23/21
f 15/17/15 22/24/22 11/13/11
f 22/24/22 15/17/15 23/25/23
f 13/15/13 11/13/11 10/12/10
f 11/13/11 13/15/13 15/17/15
f 22/24/22 7/26/7 11/13/11
f 8/27/8 7/26/7 22/24/22
f 15/17/15 12/14/12 23/25/23
f 24/28/24 17/19/17 25/29/25
f 17/19/17 24/28/24 16/18/16
f 20/22/20 25/30/25 26/31/26
f 25/30/25 20/22/20 24/32/24
f 27/33/27 20/22/20 26/31/26
f 20/22/20 27/33/27 18/20/18
f 28/34/28 21/35/21 29/36/29
f 21/35/21 28/34/28 19/37/19
f 30/38/30 28/34/28 29/36/29
f 30/38/30 22/24/22 23/25/23
f 22/24/22 31/39/31 8/27/8
f 31/39/31 22/24/22 30/38/30
f 30/38/30 32/40/32 31/39/31
f 33/41/33 20/22/20 19/21/19
f 20/22/20 33/41/33 24/32/24
f 33/42/33 16/18/16 24/28/24
f 16/18/16 33/42/33 34/43/34
f 34/44/34 19/37/19 28/34/28
f 19/37/19 34/44/34 33/45/33
f 12/14/12 16/18/16 34/43/34
f 34/44/34 23/25/23 12/14/12
f 23/25/23 34/44/34 28/34/28
f 28/34/28 30/38/30 23/25/23
f 4/4/4 31/46/31 32/47/32
f 31/46/31 4/4/4 1/1/1
f 8/48/8 1/1/1 6/6/6
f 8/48/8 31/46/31 1/1/1
f 35/49/35 36/50/35 37/51/35
f 36/50/35 38/52/35 39/53/35
f 35/49/35 38/52/35 36/50/35
f 35/49/35 40/54/35 38/52/35
f 41/55/35 42/56/35 43/57/35
f 42/56/35 44/58/35 45/59/35
f 41/55/35 44/58/35 42/56/35
f 41/55/35 46/60/35 44/58/35
f 47/61/36 2/2/2 48/62/37
f 2/2/2 47/61/36 3/3/3
f 5/5/5 47/61/36 49/63/38
f 47/61/36 5/5/5 3/3/3
f 50/64/39 49/65/38 51/66/40
f 50/64/39 9/10/9 49/65/38
f 49/65/38 9/10/9 5/11/5
f 50/64/39 10/12/10 9/10/9
f 10/12/10 50/64/39 52/67/41
f 53/68/42 13/15/13 54/69/43
f 13/15/13 53/68/42 14/16/14
f 14/16/14 55/70/44 17/19/17
f 55/70/44 14/16/14 53/68/42
f 56/71/45 57/72/46 58/73/47
f 57/72/46 56/71/45 59/74/48
f 54/69/43 60/75/49 61/76/50
f 60/75/49 54/69/43 52/67/41
f 13/15/13 52/67/41 54/69/43
f 52/67/41 13/15/13 10/12/10
f 60/75/49 52/67/41 50/77/39
f 51/78/40 60/75/49 50/77/39
f 54/69/43 61/76/50 53/68/42
f 62/79/51 17/19/17 55/70/44
f 17/19/17 62/79/51 25/29/25
f 59/74/48 25/30/25 62/80/51
f 25/30/25 59/74/48 26/31/26
f 27/33/27 59/74/48 56/71/45
f 59/74/48 27/33/27 26/31/26
f 63/81/52 58/82/47 57/83/46
f 58/82/47 63/81/52 64/84/53
f 65/85/54 64/84/53 63/81/52
f 65/85/54 61/76/50 60/75/49
f 60/75/49 51/78/40 66/86/55
f 66/86/55 65/85/54 60/75/49
f 65/85/54 66/86/55 67/87/56
f 68/88/57 59/74/48 62/80/51
f 59/74/48 68/88/57 57/72/46
f 68/89/57 55/70/44 69/90/58
f 55/70/44 68/89/57 62/79/51
f 69/91/58 57/83/46 68/92/57
f 57/83/46 69/91/58 63/81/52
f 53/68/42 69/90/58 55/70/44
f 69/91/58 53/68/42 61/76/50
f 61/76/50 63/81/52 69/91/58
f 63/81/52 61/76/50 65/85/54
f 48/62/37 66/93/55 47/61/36
f 66/93/55 48/62/37 67/94/56
f 51/95/40 49/63/38 47/61/36
f 51/95/40 47/61/36 66/93/55
f 70/96/59 71/97/59 72/98/59
f 71/97/59 73/99/59 74/100/59
f 70/96/59 73/99/59 71/97/59
f 70/96/59 75/101/59 73/99/59
f 76/102/59 77/103/59 78/104/59
f 77/103/59 79/105/59 80/106/59
f 76/102/59 79/105/59 77/103/59
f 76/102/59 81/107/59 79/105/59
