# Blender v2.79 (sub 7) OBJ File: 'Volvo S60 II T6.blend'
# www.blender.org
mtllib Volvo S60 II T6_LOD.mtl
o Volvo_S60_II_T6_LOD_volvo_s60_2_t6_lod
v -0.614554 1.393120 -1.037423
v -0.824539 1.043366 -1.703294
v -0.505475 1.112153 -2.122731
v -0.773259 0.985854 -2.060229
v -0.561144 0.350161 -2.235797
v -0.753722 0.315611 -2.044591
v -0.903857 0.922552 -0.209177
v -0.635760 1.373146 0.240147
v -0.760549 1.023884 1.057623
v -0.844133 0.786830 1.705522
v -0.727887 0.873186 1.750705
v -0.438880 0.707833 2.247750
v -0.879427 0.203898 1.825493
v -0.402533 0.275646 2.280923
v -0.893228 0.220268 -0.195365
v -0.856543 0.288083 -1.862317
v 0.614554 1.393120 -1.037423
v 0.505475 1.112153 -2.122731
v 0.824539 1.043366 -1.703294
v 0.773259 0.985854 -2.060229
v 0.561144 0.350161 -2.235797
v 0.753722 0.315611 -2.044591
v 0.903857 0.922552 -0.209177
v 0.635760 1.373146 0.240147
v 0.760549 1.023884 1.057623
v 0.844133 0.786830 1.705522
v 0.727887 0.873186 1.750705
v 0.438880 0.707833 2.247750
v 0.879427 0.203898 1.825493
v 0.402533 0.275646 2.280923
v 0.893228 0.220268 -0.195365
v 0.856543 0.288083 -1.862317
vt 0.251760 0.288290
vt 0.017790 0.310940
vt 0.097990 0.234320
vt 0.023020 0.248010
vt 0.071360 0.981980
vt 0.025760 0.845540
vt 0.083330 0.818440
vt 0.029960 0.989390
vt 0.114170 0.201130
vt 0.424960 0.175310
vt 0.518350 0.284030
vt 0.688550 0.206080
vt 0.821790 0.151660
vt 0.837590 0.178390
vt 0.962870 0.150980
vt 0.849120 0.031150
vt 0.983970 0.062660
vt 0.428640 0.029500
vt 0.081190 0.043550
vt 0.251650 0.544730
vt 0.097850 0.598560
vt 0.017730 0.521890
vt 0.022910 0.584820
vt 0.312670 0.981980
vt 0.300700 0.818440
vt 0.358270 0.845540
vt 0.354070 0.989390
vt 0.424730 0.657870
vt 0.113980 0.631740
vt 0.518220 0.549240
vt 0.688320 0.627360
vt 0.821500 0.681900
vt 0.837320 0.655190
vt 0.962560 0.682710
vt 0.848710 0.802420
vt 0.983580 0.771050
vt 0.428270 0.803670
vt 0.080860 0.789280
vt 0.851130 0.568030
vt 0.851320 0.265630
vt 0.960620 0.325310
vt 0.960540 0.508620
vt 0.597660 0.964530
vt 0.414470 0.964530
vt 0.422050 0.874500
vt 0.590070 0.874500
vt 0.703580 0.575310
vt 0.703770 0.258180
vt 0.038680 0.643090
vt 0.037340 0.782870
vt 0.038870 0.189710
vt 0.037660 0.049920
vn -0.5204 0.8125 -0.2626
vn -0.4876 0.8414 -0.2329
vn -0.5067 0.8251 -0.2501
vn -0.4563 0.8659 -0.2051
vn -0.3443 0.0797 -0.9355
vn -0.7400 0.1045 -0.6644
vn -0.1205 0.1543 -0.9806
vn -0.7987 -0.0373 -0.6005
vn -0.8550 0.5186 -0.0040
vn -0.9882 0.1373 -0.0680
vn -0.9682 0.2501 -0.0002
vn -0.8760 0.4806 0.0407
vn -0.8668 0.4938 0.0701
vn -0.9060 0.4112 0.0999
vn -0.6323 0.7503 0.1929
vn -0.6255 0.5551 0.5483
vn -0.7315 0.3327 0.5952
vn -0.4554 0.1140 0.8829
vn -0.7495 0.1079 0.6532
vn -0.3619 0.0410 0.9313
vn -1.0000 0.0013 -0.0080
vn -0.9981 0.0619 0.0073
vn -0.9738 0.0201 -0.2266
vn 0.5204 0.8125 -0.2626
vn 0.5067 0.8251 -0.2501
vn 0.4876 0.8414 -0.2329
vn 0.4563 0.8659 -0.2051
vn 0.3443 0.0797 -0.9355
vn 0.1205 0.1543 -0.9806
vn 0.7400 0.1045 -0.6644
vn 0.7987 -0.0373 -0.6005
vn 0.8550 0.5186 -0.0040
vn 0.9682 0.2501 -0.0002
vn 0.9882 0.1373 -0.0680
vn 0.8760 0.4806 0.0407
vn 0.8668 0.4938 0.0701
vn 0.9060 0.4112 0.0999
vn 0.6323 0.7503 0.1929
vn 0.6255 0.5551 0.5483
vn 0.4554 0.1140 0.8829
vn 0.7315 0.3327 0.5952
vn 0.7495 0.1079 0.6532
vn 0.3619 0.0410 0.9313
vn 0.9981 0.0619 0.0073
vn 1.0000 0.0013 -0.0080
vn 0.9738 0.0201 -0.2266
vn 0.0000 0.9672 0.2538
vn 0.0000 0.9489 0.3157
vn 0.0000 0.9536 0.3012
vn 0.0000 0.9196 0.3929
vn 0.0000 0.9999 0.0156
vn 0.0000 0.9681 -0.2506
usemtl Volvo_S60_II_T6_(LOD)
s 1
f 1/1/1 3/2/2 2/3/3
f 4/4/4 2/3/3 3/2/2
f 5/5/5 4/6/6 3/7/7
f 4/6/6 5/5/5 6/8/8
f 1/1/9 2/9/10 7/10/11
f 8/11/12 1/1/9 7/10/11
f 7/10/11 9/12/13 8/11/12
f 10/13/14 11/14/15 9/12/13
f 9/12/13 7/10/11 10/13/14
f 11/14/16 10/13/17 12/15/18
f 13/16/19 14/17/20 12/15/18
f 12/15/18 10/13/17 13/16/19
f 10/13/14 7/10/11 15/18/21
f 15/18/21 13/16/22 10/13/14
f 2/9/10 16/19/23 15/18/21
f 15/18/21 7/10/11 2/9/10
f 17/20/24 19/21/25 18/22/26
f 20/23/27 18/22/26 19/21/25
f 21/24/28 18/25/29 20/26/30
f 20/26/30 22/27/31 21/24/28
f 17/20/32 23/28/33 19/29/34
f 24/30/35 23/28/33 17/20/32
f 23/28/33 24/30/35 25/31/36
f 26/32/37 25/31/36 27/33/38
f 25/31/36 26/32/37 23/28/33
f 27/33/39 28/34/40 26/32/41
f 29/35/42 26/32/41 28/34/40
f 28/34/40 30/36/43 29/35/42
f 26/32/37 29/35/44 31/37/45
f 31/37/45 23/28/33 26/32/37
f 19/29/34 23/28/33 31/37/45
f 31/37/45 32/38/46 19/29/34
f 27/39/47 11/40/47 12/41/48
f 12/41/48 28/42/48 27/39/47
f 28/43/40 12/44/18 14/45/20
f 14/45/20 30/46/43 28/43/40
f 25/47/49 9/48/49 11/40/47
f 11/40/47 27/39/47 25/47/49
f 24/30/50 8/11/50 9/48/49
f 9/48/49 25/47/49 24/30/50
f 17/20/51 1/1/51 8/11/51
f 8/11/51 24/30/51 17/20/51
f 18/22/52 3/2/52 1/1/52
f 1/1/52 17/20/52 18/22/52
f 21/24/28 5/5/5 3/7/7
f 3/7/7 18/25/29 21/24/28
f 19/29/34 32/38/46 20/49/30
f 22/50/31 20/49/30 32/38/46
f 4/51/6 16/19/23 2/9/10
f 16/19/23 4/51/6 6/52/8
