# Blender v2.79 (sub 0) OBJ File: ''
# www.blender.org
mtllib Mercedes-Benz W212 E63 AMG_LOD.mtl
o mb_w212_lod_0
v 0.647563 1.385143 0.274323
v 0.000000 1.496975 -0.500844
v 0.000000 1.410492 0.366479
v 0.586564 1.471141 -0.498711
v 0.801974 1.005866 0.970751
v 0.000000 1.037579 1.184837
v 0.793789 0.787516 2.055955
v 0.000000 0.816220 2.321795
v 0.000000 0.254167 2.425808
v 0.846517 0.238051 2.142118
v 0.614900 1.399889 -1.138879
v 0.000000 1.429752 -1.212580
v 0.716363 1.105554 -1.775222
v 0.000000 1.127933 -1.884294
v 0.684730 1.047646 -2.168268
v 0.000000 1.086817 -2.294359
v 0.000000 0.342249 -2.394802
v 0.740033 0.390233 -2.262284
v 0.834238 1.028017 -0.212988
v 0.833350 0.246374 -0.176744
v -0.647563 1.385143 0.274323
v -0.586564 1.471141 -0.498711
v -0.801974 1.005866 0.970751
v -0.793789 0.787516 2.055955
v -0.846517 0.238051 2.142118
v -0.614900 1.399889 -1.138879
v -0.716363 1.105554 -1.775222
v -0.684730 1.047646 -2.168268
v -0.740033 0.390233 -2.262284
v -0.834238 1.028017 -0.212988
v -0.833350 0.246374 -0.176744
v 0.803048 0.510000 -1.003253
v 0.803048 0.510000 -1.592150
v 0.803048 0.680000 -1.297701
v 0.803048 0.000000 -1.297702
v 0.803048 0.170000 -1.592150
v 0.803048 0.170000 -1.003253
v 0.850724 0.509999 1.873796
v 0.850724 0.509999 1.284899
v 0.850724 0.679999 1.579347
v 0.850724 -0.000001 1.579347
v 0.850724 0.169999 1.284899
v 0.850724 0.169999 1.873796
v -0.803048 0.000000 -1.297702
v -0.803048 0.510000 -1.592150
v -0.803048 0.170000 -1.592150
v -0.803048 0.510000 -1.003253
v -0.803048 0.680000 -1.297701
v -0.803048 0.170000 -1.003253
v -0.850724 -0.000001 1.579347
v -0.850724 0.509999 1.284899
v -0.850724 0.169999 1.284899
v -0.850724 0.509999 1.873796
v -0.850724 0.679999 1.579347
v -0.850724 0.169999 1.873796
vt 0.406560 0.298080
vt 0.556700 0.171670
vt 0.388710 0.171670
vt 0.556290 0.286170
vt 0.271680 0.328220
vt 0.230210 0.171670
vt 0.061490 0.326620
vt 0.010000 0.171670
vt 0.496630 0.977040
vt 0.650370 0.872920
vt 0.496630 0.867320
vt 0.660580 0.980180
vt 0.680280 0.291700
vt 0.694550 0.171670
vt 0.803530 0.311510
vt 0.824650 0.171670
vt 0.879650 0.305330
vt 0.904080 0.171670
vt 0.164680 0.967250
vt 0.170330 0.822020
vt 0.021820 0.952230
vt 0.010000 0.551980
vt 0.242230 0.410410
vt 0.030580 0.444910
vt 0.529070 0.326320
vt 0.471580 0.415160
vt 0.652530 0.345260
vt 0.773890 0.408910
vt 0.379140 0.338720
vt 0.862830 0.551670
vt 0.849350 0.422320
vt 0.458660 0.566590
vt 0.037510 0.824420
vt 0.406560 0.045260
vt 0.556290 0.057170
vt 0.271680 0.015120
vt 0.061490 0.016720
vt 0.342880 0.872920
vt 0.332670 0.980180
vt 0.680280 0.051640
vt 0.803530 0.031830
vt 0.879650 0.038010
vt 0.308260 0.963550
vt 0.010000 0.634900
vt 0.034530 0.741120
vt 0.247320 0.767620
vt 0.537070 0.840850
vt 0.659740 0.817280
vt 0.476330 0.754240
vt 0.778660 0.749110
vt 0.386780 0.834110
vt 0.853570 0.732870
vt 0.862250 0.603100
vt 0.457810 0.603400
vt 0.302550 0.834900
vt 0.950420 0.726590
vt 0.950420 0.841540
vt 0.983350 0.784070
vt 0.851640 0.784070
vt 0.884570 0.841540
vt 0.884570 0.726590
vt 0.943980 0.865750
vt 0.943980 0.980700
vt 0.976900 0.923220
vt 0.845200 0.923220
vt 0.878120 0.980700
vt 0.878120 0.865750
vt 0.855390 0.380640
vt 0.954170 0.323160
vt 0.888320 0.323160
vt 0.954170 0.438120
vt 0.987100 0.380640
vt 0.888320 0.438120
vt 0.687750 0.895250
vt 0.786530 0.837770
vt 0.720680 0.837770
vt 0.786530 0.952730
vt 0.819460 0.895250
vt 0.720680 0.952730
vn 0.5230 0.8312 0.1887
vn -0.0000 1.0000 0.0008
vn -0.0000 0.9582 0.2860
vn 0.4997 0.8662 -0.0077
vn 0.7403 0.6396 0.2070
vn -0.0000 0.9569 0.2903
vn 0.6529 0.5801 0.4871
vn -0.0000 0.6575 0.7534
vn -0.0000 0.1835 0.9830
vn 0.7851 0.1567 0.5992
vn 0.5316 0.8275 -0.1804
vn -0.0000 0.9643 -0.2649
vn 0.7300 0.6474 -0.2191
vn -0.0000 0.9675 -0.2530
vn 0.5968 0.5921 -0.5416
vn 0.0000 0.6996 -0.7146
vn 0.0000 0.1337 -0.9910
vn 0.7270 0.1324 -0.6738
vn 0.9702 0.2418 -0.0177
vn 0.9997 -0.0023 -0.0243
vn -0.5230 0.8312 0.1887
vn -0.4997 0.8662 -0.0077
vn -0.7403 0.6396 0.2070
vn -0.6529 0.5801 0.4871
vn -0.7851 0.1567 0.5992
vn -0.5316 0.8275 -0.1804
vn -0.7300 0.6474 -0.2191
vn -0.5968 0.5921 -0.5416
vn -0.7270 0.1324 -0.6738
vn -0.9702 0.2418 -0.0177
vn -0.9997 -0.0023 -0.0243
vn 1.0000 -0.0000 -0.0000
vn -1.0000 -0.0000 -0.0000
usemtl None
s 1
f 1/1/1 2/2/2 3/3/3
f 2/2/2 1/1/1 4/4/4
f 3/3/3 5/5/5 1/1/1
f 5/5/5 3/3/3 6/6/6
f 7/7/7 6/6/6 8/8/8
f 6/6/6 7/7/7 5/5/5
f 9/9/9 7/10/7 8/11/8
f 7/10/7 9/9/9 10/12/10
f 2/2/2 11/13/11 12/14/12
f 11/13/11 2/2/2 4/4/4
f 13/15/13 12/14/12 11/13/11
f 12/14/12 13/15/13 14/16/14
f 14/16/14 15/17/15 16/18/16
f 15/17/15 14/16/14 13/15/13
f 17/19/17 16/20/16 18/21/18
f 10/22/10 5/23/5 7/24/7
f 4/25/4 19/26/19 11/27/11
f 11/27/11 19/26/19 13/28/13
f 19/26/19 4/25/4 1/29/1
f 19/26/19 1/29/1 5/23/5
f 13/28/13 18/30/18 15/31/15
f 20/32/20 18/30/18 19/26/19
f 19/26/19 5/23/5 10/22/10
f 19/26/19 10/22/10 20/32/20
f 19/26/19 18/30/18 13/28/13
f 18/21/18 16/20/16 15/33/15
f 21/34/21 2/2/2 22/35/22
f 2/2/2 21/34/21 3/3/3
f 3/3/3 23/36/23 6/6/6
f 23/36/23 3/3/3 21/34/21
f 24/37/24 6/6/6 23/36/23
f 6/6/6 24/37/24 8/8/8
f 9/9/9 24/38/24 25/39/25
f 24/38/24 9/9/9 8/11/8
f 2/2/2 26/40/26 22/35/22
f 26/40/26 2/2/2 12/14/12
f 27/41/27 12/14/12 14/16/14
f 12/14/12 27/41/27 26/40/26
f 14/16/14 28/42/28 27/41/27
f 28/42/28 14/16/14 16/18/16
f 17/19/17 29/43/29 16/20/16
f 25/44/25 24/45/24 23/46/23
f 22/47/22 26/48/26 30/49/30
f 26/48/26 27/50/27 30/49/30
f 30/49/30 21/51/21 22/47/22
f 30/49/30 23/46/23 21/51/21
f 27/50/27 28/52/28 29/53/29
f 31/54/31 30/49/30 29/53/29
f 30/49/30 25/44/25 23/46/23
f 30/49/30 31/54/31 25/44/25
f 30/49/30 27/50/27 29/53/29
f 29/43/29 28/55/28 16/20/16
f 32/56/32 33/57/32 34/58/32
f 33/57/32 35/59/32 36/60/32
f 32/56/32 35/59/32 33/57/32
f 37/61/32 35/59/32 32/56/32
f 38/62/32 39/63/32 40/64/32
f 39/63/32 41/65/32 42/66/32
f 38/62/32 41/65/32 39/63/32
f 43/67/32 41/65/32 38/62/32
f 44/68/33 45/69/33 46/70/33
f 45/69/33 47/71/33 48/72/33
f 44/68/33 47/71/33 45/69/33
f 49/73/33 47/71/33 44/68/33
f 50/74/33 51/75/33 52/76/33
f 51/75/33 53/77/33 54/78/33
f 50/74/33 53/77/33 51/75/33
f 55/79/33 53/77/33 50/74/33
