# Blender v2.79 (sub 0) OBJ File: 'sunday-cars.blend'
# www.blender.org
mtllib Mercedes-Benz W212 E63 AMG_LOD.mtl
o Mercedes-Benz_W212_E63_AMG_LOD_mercedes-w212_lod
v 0.647563 1.385143 0.274323
v 0.000000 1.496975 -0.500844
v 0.000000 1.410492 0.366479
v 0.586564 1.471141 -0.498711
v 0.801974 1.005866 0.970751
v 0.000000 1.037579 1.184837
v 0.793789 0.787516 2.055955
v 0.000000 0.816220 2.321795
v 0.000000 0.254167 2.425808
v 0.846517 0.238051 2.142118
v 0.614900 1.399889 -1.138879
v 0.000000 1.429752 -1.212580
v 0.716363 1.105554 -1.775222
v 0.000000 1.127933 -1.884294
v 0.684730 1.047646 -2.168268
v 0.000000 1.086817 -2.294359
v 0.000000 0.342249 -2.394802
v 0.740033 0.390233 -2.262284
v 0.817491 1.028017 -0.212988
v 0.816603 0.246374 -0.176744
v -0.647563 1.385143 0.274323
v -0.586564 1.471141 -0.498711
v -0.801974 1.005866 0.970751
v -0.793789 0.787516 2.055955
v -0.846517 0.238051 2.142118
v -0.614900 1.399889 -1.138879
v -0.716363 1.105554 -1.775222
v -0.684730 1.047646 -2.168268
v -0.740033 0.390233 -2.262284
v -0.819667 1.028017 -0.212988
v -0.818779 0.246374 -0.176744
vt 0.406560 0.298080
vt 0.556700 0.171670
vt 0.388710 0.171670
vt 0.556290 0.286170
vt 0.271680 0.328220
vt 0.230210 0.171670
vt 0.061490 0.326620
vt 0.010000 0.171670
vt 0.496630 0.977040
vt 0.650370 0.872920
vt 0.496630 0.867320
vt 0.660580 0.980180
vt 0.680280 0.291700
vt 0.694550 0.171670
vt 0.803530 0.311510
vt 0.824650 0.171670
vt 0.879650 0.305330
vt 0.904080 0.171670
vt 0.164680 0.967250
vt 0.170330 0.822020
vt 0.021820 0.952230
vt 0.010000 0.551980
vt 0.242230 0.410410
vt 0.030580 0.444910
vt 0.529070 0.326320
vt 0.471580 0.415160
vt 0.652530 0.345260
vt 0.773890 0.408910
vt 0.379140 0.338720
vt 0.862830 0.551670
vt 0.849350 0.422320
vt 0.458660 0.566590
vt 0.037510 0.824420
vt 0.406560 0.045260
vt 0.556290 0.057170
vt 0.271680 0.015120
vt 0.061490 0.016720
vt 0.342880 0.872920
vt 0.332670 0.980180
vt 0.680280 0.051640
vt 0.803530 0.031830
vt 0.879650 0.038010
vt 0.308260 0.963550
vt 0.010000 0.634900
vt 0.034530 0.741120
vt 0.247320 0.767620
vt 0.537070 0.840850
vt 0.659740 0.817280
vt 0.476330 0.754240
vt 0.778660 0.749110
vt 0.386780 0.834110
vt 0.853570 0.732870
vt 0.862250 0.603100
vt 0.457810 0.603400
vt 0.302550 0.834900
vn 0.0494 0.9935 0.1021
vn 0.0000 1.0000 0.0008
vn -0.0000 0.9951 0.0992
vn 0.0440 0.9990 0.0006
vn -0.0000 0.8990 0.4379
vn 0.1116 0.9383 0.3272
vn 0.0998 0.8830 0.4587
vn 0.0000 0.9569 0.2903
vn 0.0960 0.9765 0.1928
vn 0.0000 0.9816 0.1911
vn 0.0000 0.1835 0.9830
vn 0.3167 0.1751 0.9322
vn 0.0000 0.1820 0.9833
vn 0.3158 0.1765 0.9323
vn 0.0528 0.9936 -0.1003
vn 0.0000 0.9956 -0.0940
vn 0.0746 0.9540 -0.2902
vn -0.0000 0.9127 -0.4087
vn 0.0928 0.9093 -0.4058
vn -0.0000 0.9675 -0.2530
vn 0.0604 0.9891 -0.1339
vn 0.0000 0.9950 -0.0998
vn 0.0000 0.1337 -0.9910
vn -0.0000 0.1445 -0.9895
vn 0.1765 0.1426 -0.9739
vn 0.9972 0.0733 0.0161
vn 0.9911 0.1320 0.0169
vn 0.9946 0.0998 0.0276
vn 0.8904 0.4549 -0.0142
vn 0.9735 0.2279 -0.0191
vn 0.9107 0.4117 -0.0339
vn 0.9893 0.1299 -0.0660
vn 0.9070 0.4210 0.0078
vn 0.9959 0.0622 -0.0651
vn 0.9909 0.0968 -0.0940
vn 0.9997 -0.0023 -0.0243
vn 0.1875 0.1545 -0.9700
vn -0.0494 0.9935 0.1021
vn -0.0440 0.9990 0.0006
vn -0.1116 0.9383 0.3272
vn -0.0998 0.8830 0.4587
vn -0.0960 0.9765 0.1928
vn -0.3167 0.1751 0.9322
vn -0.3158 0.1765 0.9323
vn -0.0528 0.9936 -0.1003
vn -0.0746 0.9540 -0.2902
vn -0.0928 0.9093 -0.4058
vn -0.0604 0.9891 -0.1339
vn -0.1765 0.1426 -0.9739
vn -0.9971 0.0738 0.0166
vn -0.9946 0.0998 0.0276
vn -0.9907 0.1346 0.0185
vn -0.8887 0.4583 -0.0143
vn -0.9096 0.4140 -0.0349
vn -0.9731 0.2297 -0.0190
vn -0.9891 0.1309 -0.0670
vn -0.9056 0.4240 0.0092
vn -0.9909 0.0968 -0.0940
vn -0.9959 0.0626 -0.0659
vn -0.9997 -0.0023 -0.0243
vn -0.1875 0.1545 -0.9700
usemtl Mercedes-Benz_W212_E63_AMG_LOD.001
s 1
f 1/1/1 2/2/2 3/3/3
f 2/2/2 1/1/1 4/4/4
f 3/3/5 5/5/6 1/1/7
f 5/5/6 3/3/5 6/6/8
f 7/7/9 6/6/8 8/8/10
f 6/6/8 7/7/9 5/5/6
f 9/9/11 7/10/12 8/11/13
f 7/10/12 9/9/11 10/12/14
f 2/2/2 11/13/15 12/14/16
f 11/13/15 2/2/2 4/4/4
f 13/15/17 12/14/18 11/13/19
f 12/14/18 13/15/17 14/16/20
f 14/16/20 15/17/21 16/18/22
f 15/17/21 14/16/20 13/15/17
f 17/19/23 16/20/24 18/21/25
f 10/22/26 5/23/27 7/24/28
f 4/25/29 19/26/30 11/27/31
f 11/27/31 19/26/30 13/28/32
f 19/26/30 4/25/29 1/29/33
f 19/26/30 1/29/33 5/23/27
f 13/28/32 18/30/34 15/31/35
f 20/32/36 18/30/34 19/26/30
f 19/26/30 5/23/27 10/22/26
f 19/26/30 10/22/26 20/32/36
f 19/26/30 18/30/34 13/28/32
f 18/21/25 16/20/24 15/33/37
f 21/34/38 2/2/2 22/35/39
f 2/2/2 21/34/38 3/3/3
f 3/3/5 23/36/40 6/6/8
f 23/36/40 3/3/5 21/34/41
f 24/37/42 6/6/8 23/36/40
f 6/6/8 24/37/42 8/8/10
f 9/9/11 24/38/43 25/39/44
f 24/38/43 9/9/11 8/11/13
f 2/2/2 26/40/45 22/35/39
f 26/40/45 2/2/2 12/14/16
f 27/41/46 12/14/18 14/16/20
f 12/14/18 27/41/46 26/40/47
f 14/16/20 28/42/48 27/41/46
f 28/42/48 14/16/20 16/18/22
f 17/19/23 29/43/49 16/20/24
f 25/44/50 24/45/51 23/46/52
f 22/47/53 26/48/54 30/49/55
f 26/48/54 27/50/56 30/49/55
f 30/49/55 21/51/57 22/47/53
f 30/49/55 23/46/52 21/51/57
f 27/50/56 28/52/58 29/53/59
f 31/54/60 30/49/55 29/53/59
f 30/49/55 25/44/50 23/46/52
f 30/49/55 31/54/60 25/44/50
f 30/49/55 27/50/56 29/53/59
f 29/43/49 28/55/61 16/20/24
