# Blender v2.79 (sub 0) OBJ File: ''
# www.blender.org
mtllib Lada 110_LOD.mtl
o lada_110_lod_0
v 0.703728 0.949626 0.838746
v 0.000000 0.783303 1.949699
v 0.656300 0.773250 1.840107
v 0.000000 0.967069 1.150095
v 0.709324 0.545440 1.996942
v 0.000000 0.543450 2.145125
v 0.822579 0.602182 0.868355
v 0.659071 0.259983 1.957873
v 0.772266 0.257087 0.843950
v 0.000000 1.392633 0.243912
v 0.506772 1.365839 0.153471
v 0.502972 1.353861 -0.983313
v 0.000000 1.045361 -1.546525
v 0.000000 1.379938 -1.078428
v 0.666123 1.020621 -1.441313
v 0.000000 1.421177 -0.472693
v 0.491741 1.394774 -0.469476
v 0.807109 0.652152 -1.459325
v 0.760593 0.297342 -1.546264
v 0.608377 1.016049 -1.924693
v 0.000000 1.039884 -1.979821
v 0.736371 0.685824 -1.993622
v 0.688970 0.377096 -2.027252
v 0.000000 0.382670 -2.124509
v 0.000000 0.257557 2.071557
v 0.789253 0.439500 1.595589
v 0.789253 0.439500 1.088098
v 0.789253 0.586000 1.341844
v 0.789253 -0.000000 1.341844
v 0.789253 0.146500 1.088098
v 0.789253 0.146500 1.595589
v 0.798810 0.439500 -0.942307
v 0.798810 0.439500 -1.449798
v 0.798810 0.586000 -1.196052
v 0.798810 0.000000 -1.196052
v 0.798810 0.146500 -1.449798
v 0.798810 0.146500 -0.942307
v -0.703728 0.949626 0.838746
v -0.656300 0.773250 1.840107
v -0.709324 0.545440 1.996942
v -0.822579 0.602182 0.868355
v -0.659071 0.259983 1.957873
v -0.772266 0.257087 0.843950
v -0.506772 1.365839 0.153471
v -0.502972 1.353861 -0.983313
v -0.666123 1.020621 -1.441313
v -0.491741 1.394774 -0.469476
v -0.807109 0.652152 -1.459325
v -0.760593 0.297342 -1.546264
v -0.608377 1.016049 -1.924693
v -0.736371 0.685824 -1.993622
v -0.688970 0.377096 -2.027252
v -0.789253 -0.000000 1.341844
v -0.789253 0.439500 1.088098
v -0.789253 0.146500 1.088098
v -0.789253 0.439500 1.595589
v -0.789253 0.586000 1.341844
v -0.789253 0.146500 1.595589
v -0.798810 0.000000 -1.196052
v -0.798810 0.439500 -1.449798
v -0.798810 0.146500 -1.449798
v -0.798810 0.439500 -0.942307
v -0.798810 0.586000 -1.196052
v -0.798810 0.146500 -0.942307
vt 0.524770 0.640340
vt 0.378230 0.871670
vt 0.514890 0.848850
vt 0.378230 0.705170
vt 0.908090 0.374120
vt 0.856360 0.528380
vt 0.908520 0.528380
vt 0.858540 0.385650
vt 0.658310 0.643200
vt 0.615780 0.848510
vt 0.664980 0.881070
vt 0.581300 0.638030
vt 0.718280 0.875340
vt 0.723500 0.640800
vt 0.378230 0.516480
vt 0.483750 0.497650
vt 0.482960 0.260940
vt 0.378230 0.143660
vt 0.378230 0.241130
vt 0.516940 0.165570
vt 0.378230 0.367260
vt 0.480620 0.367930
vt 0.558840 0.163480
vt 0.641370 0.158340
vt 0.708580 0.142870
vt 0.504910 0.064920
vt 0.378230 0.053440
vt 0.554670 0.064050
vt 0.628620 0.048410
vt 0.686750 0.043860
vt 0.774370 0.188990
vt 0.836670 0.037650
vt 0.773220 0.047390
vt 0.909440 0.188990
vt 0.904540 0.063960
vt 0.970170 0.385050
vt 0.970700 0.528380
vt 0.982230 0.940400
vt 0.864800 0.940400
vt 0.923520 0.974300
vt 0.923520 0.838700
vt 0.864800 0.872600
vt 0.982230 0.872600
vt 0.503500 0.883020
vt 0.620930 0.883020
vt 0.562210 0.849120
vt 0.562210 0.984720
vt 0.620930 0.950820
vt 0.503500 0.950820
vt 0.231700 0.640340
vt 0.241570 0.848850
vt 0.908090 0.682650
vt 0.858540 0.671120
vt 0.098150 0.643200
vt 0.140680 0.848510
vt 0.175160 0.638030
vt 0.091480 0.881070
vt 0.038180 0.875340
vt 0.032960 0.640800
vt 0.272710 0.497650
vt 0.273500 0.260940
vt 0.239530 0.165570
vt 0.275840 0.367930
vt 0.197620 0.163480
vt 0.115090 0.158340
vt 0.047880 0.142870
vt 0.251550 0.064920
vt 0.201790 0.064050
vt 0.127840 0.048410
vt 0.069710 0.043860
vt 0.773220 0.330590
vt 0.836670 0.340330
vt 0.904540 0.314030
vt 0.970170 0.671720
vt 0.811220 0.707150
vt 0.869930 0.808850
vt 0.869930 0.741050
vt 0.752500 0.808850
vt 0.811220 0.842750
vt 0.752500 0.741050
vt 0.192370 0.854830
vt 0.251090 0.956530
vt 0.251090 0.888730
vt 0.133660 0.956530
vt 0.192370 0.990430
vt 0.133660 0.888730
vn 0.6891 0.6962 0.2011
vn -0.0000 0.8387 0.5445
vn 0.5396 0.7359 0.4091
vn -0.0000 0.9535 0.3013
vn 0.7083 0.1622 0.6871
vn -0.0000 0.2116 0.9774
vn 0.9945 0.0914 0.0520
vn 0.7200 -0.2253 0.6563
vn 0.9883 -0.1464 0.0436
vn 0.0000 0.9608 0.2771
vn 0.5225 0.8349 0.1730
vn 0.5036 0.8348 -0.2224
vn -0.0000 0.9601 -0.2798
vn -0.0000 0.9320 -0.3625
vn 0.6862 0.7051 -0.1789
vn 0.0000 0.9999 -0.0154
vn 0.5422 0.8401 -0.0116
vn 0.9906 0.1224 -0.0613
vn 0.9895 -0.1173 -0.0845
vn 0.4617 0.7183 -0.5204
vn 0.0000 0.7667 -0.6420
vn 0.7260 0.1832 -0.6629
vn 0.6755 -0.0234 -0.7369
vn 0.0000 0.1829 -0.9831
vn -0.0000 -0.2492 0.9684
vn 1.0000 -0.0000 -0.0000
vn -0.6891 0.6962 0.2011
vn -0.5396 0.7359 0.4091
vn -0.7083 0.1622 0.6871
vn -0.9945 0.0914 0.0520
vn -0.7200 -0.2253 0.6563
vn -0.9883 -0.1464 0.0436
vn -0.5225 0.8349 0.1730
vn -0.5036 0.8348 -0.2224
vn -0.6862 0.7051 -0.1789
vn -0.5422 0.8401 -0.0116
vn -0.9906 0.1224 -0.0613
vn -0.9895 -0.1173 -0.0845
vn -0.4617 0.7183 -0.5204
vn -0.7260 0.1832 -0.6629
vn -0.6755 -0.0234 -0.7369
vn -1.0000 0.0000 -0.0000
usemtl None
s 1
f 1/1/1 2/2/2 3/3/3
f 2/2/2 1/1/1 4/4/4
f 5/5/5 2/6/2 6/7/6
f 2/6/2 5/5/5 3/8/3
f 7/9/7 3/10/3 5/11/5
f 3/10/3 7/9/7 1/12/1
f 7/9/7 8/13/8 9/14/9
f 8/13/8 7/9/7 5/11/5
f 10/15/10 1/1/1 11/16/11
f 1/1/1 10/15/10 4/4/4
f 12/17/12 13/18/13 14/19/14
f 13/18/13 12/17/12 15/20/15
f 11/16/11 16/21/16 10/15/10
f 16/21/16 11/16/11 17/22/17
f 12/17/12 16/21/16 17/22/17
f 16/21/16 12/17/12 14/19/14
f 17/22/17 15/23/15 12/17/12
f 1/12/1 17/22/17 11/16/11
f 17/22/17 1/12/1 15/23/15
f 1/12/1 18/24/18 15/23/15
f 18/24/18 1/12/1 7/9/7
f 18/24/18 9/14/9 19/25/19
f 9/14/9 18/24/18 7/9/7
f 20/26/20 13/18/13 15/20/15
f 13/18/13 20/26/20 21/27/21
f 18/24/18 20/28/20 15/23/15
f 20/28/20 18/24/18 22/29/22
f 22/29/22 19/25/19 23/30/23
f 19/25/19 22/29/22 18/24/18
f 24/31/24 22/32/22 23/33/23
f 21/34/21 22/32/22 24/31/24
f 22/32/22 21/34/21 20/35/20
f 8/36/8 6/7/6 25/37/25
f 6/7/6 8/36/8 5/5/5
f 26/38/26 27/39/26 28/40/26
f 27/39/26 29/41/26 30/42/26
f 26/38/26 29/41/26 27/39/26
f 31/43/26 29/41/26 26/38/26
f 32/44/26 33/45/26 34/46/26
f 33/45/26 35/47/26 36/48/26
f 32/44/26 35/47/26 33/45/26
f 37/49/26 35/47/26 32/44/26
f 38/50/27 2/2/2 4/4/4
f 2/2/2 38/50/27 39/51/28
f 40/52/29 2/6/2 39/53/28
f 2/6/2 40/52/29 6/7/6
f 41/54/30 39/55/28 38/56/27
f 39/55/28 41/54/30 40/57/29
f 41/54/30 42/58/31 40/57/29
f 42/58/31 41/54/30 43/59/32
f 10/15/10 38/50/27 4/4/4
f 38/50/27 10/15/10 44/60/33
f 45/61/34 13/18/13 46/62/35
f 13/18/13 45/61/34 14/19/14
f 44/60/33 16/21/16 47/63/36
f 16/21/16 44/60/33 10/15/10
f 45/61/34 16/21/16 14/19/14
f 16/21/16 45/61/34 47/63/36
f 47/63/36 45/61/34 46/64/35
f 38/56/27 44/60/33 47/63/36
f 47/63/36 46/64/35 38/56/27
f 38/56/27 48/65/37 41/54/30
f 48/65/37 38/56/27 46/64/35
f 48/65/37 43/59/32 41/54/30
f 43/59/32 48/65/37 49/66/38
f 50/67/39 13/18/13 21/27/21
f 13/18/13 50/67/39 46/62/35
f 48/65/37 50/68/39 51/69/40
f 50/68/39 48/65/37 46/64/35
f 51/69/40 49/66/38 48/65/37
f 49/66/38 51/69/40 52/70/41
f 24/31/24 52/71/41 51/72/40
f 21/34/21 24/31/24 51/72/40
f 51/72/40 50/73/39 21/34/21
f 42/74/31 6/7/6 40/52/29
f 6/7/6 42/74/31 25/37/25
f 53/75/42 54/76/42 55/77/42
f 54/76/42 56/78/42 57/79/42
f 53/75/42 56/78/42 54/76/42
f 58/80/42 56/78/42 53/75/42
f 59/81/42 60/82/42 61/83/42
f 60/82/42 62/84/42 63/85/42
f 59/81/42 62/84/42 60/82/42
f 64/86/42 62/84/42 59/81/42
