# Blender v2.79 (sub 7) OBJ File: 'Lada 110.blend'
# www.blender.org
mtllib Lada 110_LOD.mtl
o Lada_110_LOD_lada_110_lod
v 0.703728 0.949626 0.838746
v 0.000000 0.783303 1.949699
v 0.656300 0.773250 1.840107
v 0.000000 0.967069 1.150095
v 0.709324 0.545440 1.996942
v 0.000000 0.543450 2.145125
v 0.822579 0.602182 0.868355
v 0.659071 0.259983 1.957873
v 0.772266 0.257087 0.843950
v 0.000000 1.392633 0.243912
v 0.506772 1.365839 0.153471
v 0.502972 1.353861 -0.983313
v 0.000000 1.045361 -1.546525
v 0.000000 1.379938 -1.078428
v 0.666123 1.020621 -1.441313
v 0.000000 1.421177 -0.472693
v 0.491741 1.394774 -0.469476
v 0.807109 0.652152 -1.459325
v 0.760593 0.297342 -1.546264
v 0.608377 1.016049 -1.924693
v 0.000000 1.039884 -1.979821
v 0.736371 0.685824 -1.993622
v 0.688970 0.377096 -2.027252
v 0.000000 0.382670 -2.124509
v 0.000000 0.257557 2.071557
v -0.703728 0.949626 0.838746
v -0.656300 0.773250 1.840107
v -0.709324 0.545440 1.996942
v -0.822579 0.602182 0.868355
v -0.659071 0.259983 1.957873
v -0.772266 0.257087 0.843950
v -0.506772 1.365839 0.153471
v -0.502972 1.353861 -0.983313
v -0.666123 1.020621 -1.441313
v -0.491741 1.394774 -0.469476
v -0.807109 0.652152 -1.459325
v -0.760593 0.297342 -1.546264
v -0.608377 1.016049 -1.924693
v -0.736371 0.685824 -1.993622
v -0.688970 0.377096 -2.027252
vt 0.524770 0.640340
vt 0.378230 0.871670
vt 0.514890 0.848850
vt 0.378230 0.705170
vt 0.908090 0.374120
vt 0.856360 0.528380
vt 0.908520 0.528380
vt 0.858540 0.385650
vt 0.658310 0.643200
vt 0.615780 0.848510
vt 0.664980 0.881070
vt 0.581300 0.638030
vt 0.718280 0.875340
vt 0.723500 0.640800
vt 0.376680 0.532757
vt 0.483750 0.510827
vt 0.482960 0.260940
vt 0.378230 0.143660
vt 0.378230 0.241130
vt 0.516940 0.165570
vt 0.378230 0.367260
vt 0.480620 0.367930
vt 0.558840 0.163480
vt 0.641370 0.158340
vt 0.708580 0.142870
vt 0.504910 0.064920
vt 0.378230 0.053440
vt 0.554670 0.064050
vt 0.628620 0.048410
vt 0.686750 0.043860
vt 0.774370 0.188990
vt 0.836670 0.037650
vt 0.773220 0.047390
vt 0.909440 0.188990
vt 0.904540 0.063960
vt 0.970170 0.385050
vt 0.970700 0.528380
vt 0.231700 0.640340
vt 0.241570 0.848850
vt 0.908090 0.682650
vt 0.858540 0.671120
vt 0.098150 0.643200
vt 0.140680 0.848510
vt 0.175160 0.638030
vt 0.091480 0.881070
vt 0.038180 0.875340
vt 0.032960 0.640800
vt 0.275035 0.514702
vt 0.273500 0.260940
vt 0.239530 0.165570
vt 0.275840 0.367930
vt 0.197620 0.163480
vt 0.115090 0.158340
vt 0.047880 0.142870
vt 0.251550 0.064920
vt 0.201790 0.064050
vt 0.127840 0.048410
vt 0.069710 0.043860
vt 0.773220 0.330590
vt 0.836670 0.340330
vt 0.904540 0.314030
vt 0.970170 0.671720
vn 0.1459 0.9266 0.3466
vn 0.0755 0.9780 0.1943
vn 0.0443 0.9835 0.1753
vn 0.0000 0.9535 0.3013
vn 0.1469 0.5950 0.7902
vn 0.0000 0.6221 0.7829
vn 0.0000 0.6317 0.7753
vn 0.1424 0.5836 0.7995
vn 0.9945 0.0914 0.0520
vn 0.9471 0.3019 0.1089
vn 0.9950 0.0028 0.1000
vn 0.9382 0.3441 0.0382
vn 0.9798 -0.1783 0.0910
vn 0.9883 -0.1464 0.0436
vn -0.0000 0.8872 0.4613
vn 0.1325 0.8636 0.4865
vn 0.1328 0.8145 -0.5647
vn 0.0000 0.9601 -0.2798
vn 0.0000 0.8136 -0.5815
vn 0.0839 0.9475 -0.3084
vn 0.0573 0.9975 0.0418
vn 0.0000 0.9999 -0.0154
vn 0.0000 0.9992 0.0398
vn 0.0537 0.9984 -0.0163
vn 0.0599 0.9956 -0.0723
vn 0.0000 0.9977 -0.0679
vn 0.9031 0.4294 -0.0033
vn 0.9260 0.3743 -0.0494
vn 0.8885 0.4585 -0.0171
vn 0.9052 0.4249 -0.0021
vn 0.9906 0.1224 -0.0613
vn 0.9895 -0.1173 -0.0845
vn 0.0397 0.9991 -0.0136
vn 0.0000 0.9999 -0.0126
vn 0.9230 0.3705 -0.1045
vn 0.9837 0.1220 -0.1322
vn 0.9771 -0.1318 -0.1673
vn -0.0000 0.1829 -0.9831
vn 0.1099 0.1725 -0.9789
vn 0.1399 0.0860 -0.9864
vn -0.0000 0.2219 -0.9751
vn 0.0969 0.2392 -0.9661
vn 0.1935 -0.1863 0.9632
vn 0.0000 -0.2289 0.9734
vn -0.0000 -0.2492 0.9684
vn 0.2020 -0.1676 0.9649
vn -0.1459 0.9266 0.3466
vn -0.0755 0.9780 0.1943
vn -0.0443 0.9835 0.1753
vn -0.1469 0.5950 0.7902
vn -0.1424 0.5836 0.7995
vn -0.9945 0.0914 0.0520
vn -0.9471 0.3019 0.1089
vn -0.9382 0.3441 0.0382
vn -0.9950 0.0028 0.1000
vn -0.9798 -0.1783 0.0910
vn -0.9883 -0.1464 0.0436
vn -0.1325 0.8636 0.4865
vn -0.1328 0.8145 -0.5647
vn -0.0839 0.9475 -0.3084
vn -0.0573 0.9975 0.0418
vn -0.0537 0.9984 -0.0163
vn -0.0599 0.9956 -0.0723
vn -0.9031 0.4294 -0.0033
vn -0.8885 0.4585 -0.0171
vn -0.9260 0.3743 -0.0494
vn -0.9052 0.4249 -0.0021
vn -0.9906 0.1224 -0.0613
vn -0.9895 -0.1173 -0.0845
vn -0.0397 0.9991 -0.0136
vn -0.9230 0.3705 -0.1045
vn -0.9837 0.1220 -0.1322
vn -0.9771 -0.1318 -0.1673
vn -0.1399 0.0860 -0.9864
vn -0.1099 0.1725 -0.9789
vn -0.0969 0.2392 -0.9661
vn -0.1935 -0.1863 0.9632
vn -0.2020 -0.1676 0.9649
usemtl Lada_110_(LOD)
s 1
f 1/1/1 2/2/2 3/3/3
f 2/2/2 1/1/1 4/4/4
f 5/5/5 2/6/6 6/7/7
f 2/6/6 5/5/5 3/8/8
f 7/9/9 3/10/10 5/11/11
f 3/10/10 7/9/9 1/12/12
f 7/9/9 8/13/13 9/14/14
f 8/13/13 7/9/9 5/11/11
f 10/15/15 1/1/1 11/16/16
f 1/1/1 10/15/15 4/4/4
f 12/17/17 13/18/18 14/19/19
f 13/18/18 12/17/17 15/20/20
f 11/16/21 16/21/22 10/15/23
f 16/21/22 11/16/21 17/22/24
f 12/17/25 16/21/22 17/22/24
f 16/21/22 12/17/25 14/19/26
f 17/22/27 15/23/28 12/17/29
f 1/12/12 17/22/27 11/16/30
f 17/22/27 1/12/12 15/23/28
f 1/12/12 18/24/31 15/23/28
f 18/24/31 1/12/12 7/9/9
f 18/24/31 9/14/14 19/25/32
f 9/14/14 18/24/31 7/9/9
f 20/26/33 13/18/18 15/20/20
f 13/18/18 20/26/33 21/27/34
f 18/24/31 20/28/35 15/23/28
f 20/28/35 18/24/31 22/29/36
f 22/29/36 19/25/32 23/30/37
f 19/25/32 22/29/36 18/24/31
f 24/31/38 22/32/39 23/33/40
f 21/34/41 22/32/39 24/31/38
f 22/32/39 21/34/41 20/35/42
f 8/36/43 6/7/44 25/37/45
f 6/7/44 8/36/43 5/5/46
f 26/38/47 2/2/48 4/4/4
f 2/2/48 26/38/47 27/39/49
f 28/40/50 2/6/6 27/41/51
f 2/6/6 28/40/50 6/7/7
f 29/42/52 27/43/53 26/44/54
f 27/43/53 29/42/52 28/45/55
f 29/42/52 30/46/56 28/45/55
f 30/46/56 29/42/52 31/47/57
f 10/15/15 26/38/47 4/4/4
f 26/38/47 10/15/15 32/48/58
f 33/49/59 13/18/18 34/50/60
f 13/18/18 33/49/59 14/19/19
f 32/48/61 16/21/22 35/51/62
f 16/21/22 32/48/61 10/15/23
f 33/49/63 16/21/22 14/19/26
f 16/21/22 33/49/63 35/51/62
f 35/51/64 33/49/65 34/52/66
f 26/44/54 32/48/67 35/51/64
f 35/51/64 34/52/66 26/44/54
f 26/44/54 36/53/68 29/42/52
f 36/53/68 26/44/54 34/52/66
f 36/53/68 31/47/57 29/42/52
f 31/47/57 36/53/68 37/54/69
f 38/55/70 13/18/18 21/27/34
f 13/18/18 38/55/70 34/50/60
f 36/53/68 38/56/71 39/57/72
f 38/56/71 36/53/68 34/52/66
f 39/57/72 37/54/69 36/53/68
f 37/54/69 39/57/72 40/58/73
f 24/31/38 40/59/74 39/60/75
f 21/34/41 24/31/38 39/60/75
f 39/60/75 38/61/76 21/34/41
f 30/62/77 6/7/44 28/40/78
f 6/7/44 30/62/77 25/37/45
