# Blender v2.79 (sub 7) OBJ File: 'Audi S4 B5.blend'
# www.blender.org
mtllib Audi S4 B5_LOD.mtl
o Audi_S4_B5_LOD_audi_s4_b5_lod
v 0.000000 1.358498 0.339157
v 0.000000 1.426462 -0.330894
v 0.000000 0.979225 1.095056
v 0.000000 0.805107 2.094903
v 0.727008 0.931554 0.888582
v 0.000000 0.246490 2.180393
v 0.760500 0.198833 1.725315
v 0.694548 0.743122 1.925797
v 0.575950 0.243034 2.061129
v 0.000000 1.375885 -1.051747
v 0.000000 1.062843 -1.700833
v 0.000000 1.008387 -2.126338
v 0.647385 1.023240 -1.489070
v 0.000000 0.329326 -2.171568
v 0.579656 1.312069 0.274120
v 0.558176 1.376424 -0.317577
v 0.841904 0.846714 -0.214941
v 0.555343 1.333979 -0.916995
v 0.789373 0.829137 -1.531576
v 0.622096 0.972820 -2.001493
v 0.745464 0.286676 -1.688572
v 0.579406 0.325414 -2.100493
v 0.812769 0.216733 -0.186481
v 0.820834 0.680826 1.645376
v -0.579656 1.312069 0.274120
v -0.575950 0.243034 2.061129
v -0.694548 0.743122 1.925797
v -0.760500 0.198833 1.725315
v -0.622096 0.972820 -2.001493
v -0.579406 0.325414 -2.100493
v -0.727008 0.931554 0.888582
v -0.558176 1.376424 -0.317577
v -0.555343 1.333979 -0.916995
v -0.841904 0.846714 -0.214941
v -0.647385 1.023240 -1.489070
v -0.745464 0.286676 -1.688572
v -0.812769 0.216733 -0.186481
v -0.789373 0.829137 -1.531576
v -0.820834 0.680826 1.645376
vt 0.425500 0.278570
vt 0.566320 0.399330
vt 0.554910 0.273930
vt 0.422500 0.399330
vt 0.750870 0.399330
vt 0.710910 0.237760
vt 0.940700 0.246600
vt 0.974020 0.399330
vt 0.398830 0.828250
vt 0.526020 0.947330
vt 0.526020 0.825080
vt 0.371000 0.939790
vt 0.914610 0.142370
vt 0.870330 0.019760
vt 0.849880 0.123770
vt 0.955720 0.031040
vt 0.294880 0.279460
vt 0.268810 0.399330
vt 0.153970 0.256240
vt 0.113370 0.399330
vt 0.043060 0.264680
vt 0.019820 0.399330
vt 0.308050 0.808240
vt 0.181770 0.955280
vt 0.319130 0.949780
vt 0.181770 0.808060
vt 0.448840 0.158340
vt 0.688130 0.184960
vt 0.170300 0.208150
vt 0.164800 0.155580
vt 0.057710 0.189490
vt 0.128880 0.038500
vt 0.032000 0.048450
vt 0.454930 0.021830
vt 0.425500 0.520080
vt 0.554910 0.524720
vt 0.710910 0.560890
vt 0.940700 0.552050
vt 0.653220 0.828250
vt 0.681050 0.939790
vt 0.914610 0.656280
vt 0.870330 0.778890
vt 0.955720 0.767610
vt 0.849880 0.674880
vt 0.294880 0.519190
vt 0.153980 0.542410
vt 0.043060 0.533970
vt 0.055490 0.808240
vt 0.044410 0.949780
vt 0.448840 0.640310
vt 0.688130 0.613700
vt 0.170310 0.590500
vt 0.057710 0.609160
vt 0.164800 0.643070
vt 0.128880 0.760150
vt 0.032010 0.750200
vt 0.454930 0.776820
vn 0.0899 0.9958 0.0183
vn 0.0000 0.9947 0.1030
vn 0.0910 0.9904 0.1044
vn -0.0000 0.9999 0.0139
vn 0.1546 0.8728 0.4630
vn -0.0000 0.8809 0.4732
vn 0.1931 0.8542 0.4827
vn 0.0000 0.8938 0.4485
vn 0.1235 0.9769 0.1744
vn -0.0000 0.9840 0.1783
vn 0.0000 0.9852 0.1716
vn 0.1155 0.9767 0.1810
vn 0.2287 0.1769 0.9573
vn -0.0000 0.1756 0.9845
vn 0.0000 0.1513 0.9885
vn 0.2485 0.1977 0.9482
vn 0.9045 0.1390 0.4031
vn 0.9581 -0.0920 0.2712
vn 0.9372 0.2879 0.1968
vn 0.8698 -0.0743 0.4878
vn 0.0914 0.9933 -0.0701
vn 0.0000 0.9975 -0.0700
vn 0.1854 0.8808 -0.4358
vn -0.0000 0.8956 -0.4448
vn 0.1749 0.8767 -0.4481
vn -0.0000 0.9007 -0.4344
vn 0.0000 0.9931 -0.1170
vn 0.0897 0.9898 -0.1109
vn 0.0000 0.9919 -0.1269
vn 0.0940 0.9903 -0.1021
vn 0.1606 0.0990 -0.9820
vn 0.0000 0.1046 -0.9945
vn 0.2024 0.1350 -0.9700
vn 0.0000 0.0665 -0.9978
vn 0.9745 0.2241 -0.0092
vn 0.8899 0.4539 0.0453
vn 0.8682 0.4925 0.0602
vn 0.8824 0.4702 -0.0125
vn 0.9001 0.4303 -0.0687
vn 0.8219 0.5653 -0.0700
vn 0.9539 0.2675 -0.1361
vn 0.9402 0.1621 -0.2995
vn 0.9737 -0.0257 -0.2265
vn 0.9273 -0.0039 -0.3742
vn 0.9984 -0.0554 -0.0144
vn -0.0899 0.9958 0.0183
vn -0.0910 0.9904 0.1044
vn -0.1546 0.8728 0.4630
vn -0.1931 0.8542 0.4827
vn -0.1235 0.9769 0.1744
vn -0.1155 0.9767 0.1810
vn -0.2287 0.1769 0.9573
vn -0.2485 0.1977 0.9482
vn -0.9045 0.1390 0.4031
vn -0.9581 -0.0920 0.2712
vn -0.8698 -0.0743 0.4878
vn -0.9372 0.2879 0.1968
vn -0.0914 0.9933 -0.0701
vn -0.1854 0.8808 -0.4358
vn -0.1749 0.8767 -0.4481
vn -0.0897 0.9898 -0.1109
vn -0.0940 0.9903 -0.1021
vn -0.1606 0.0990 -0.9820
vn -0.1606 0.0991 -0.9820
vn -0.2024 0.1350 -0.9700
vn -0.9745 0.2241 -0.0092
vn -0.8682 0.4925 0.0602
vn -0.8899 0.4539 0.0453
vn -0.8824 0.4702 -0.0125
vn -0.9001 0.4303 -0.0687
vn -0.8219 0.5653 -0.0700
vn -0.9402 0.1621 -0.2995
vn -0.9539 0.2675 -0.1361
vn -0.9737 -0.0257 -0.2265
vn -0.9273 -0.0039 -0.3742
vn -0.9984 -0.0554 -0.0144
usemtl Audi_S4_B5_(LOD)
s 1
f 16/1/1 1/2/2 15/3/3
f 1/2/2 16/1/1 2/4/4
f 15/3/5 3/5/6 5/6/7
f 3/5/6 15/3/5 1/2/8
f 8/7/9 3/5/10 4/8/11
f 3/5/10 8/7/9 5/6/12
f 9/9/13 4/10/14 6/11/15
f 4/10/14 9/9/13 8/12/16
f 8/13/17 7/14/18 24/15/19
f 7/14/18 8/13/17 9/16/20
f 18/17/21 2/4/4 16/1/1
f 2/4/4 18/17/21 10/18/22
f 13/19/23 10/18/24 18/17/25
f 10/18/24 13/19/23 11/20/26
f 11/20/27 20/21/28 12/22/29
f 20/21/28 11/20/27 13/19/30
f 22/23/31 12/24/32 20/25/33
f 12/24/32 22/23/31 14/26/34
f 17/27/35 15/3/36 5/28/37
f 17/27/35 16/1/38 15/3/36
f 16/1/38 17/27/35 18/17/39
f 18/17/39 17/27/35 13/29/40
f 13/29/40 19/30/41 20/31/42
f 20/31/42 21/32/43 22/33/44
f 21/32/43 20/31/42 19/30/41
f 23/34/45 19/30/41 17/27/35
f 19/30/41 23/34/45 21/32/43
f 23/34/45 24/15/19 7/14/18
f 24/15/19 23/34/45 17/27/35
f 24/15/19 5/28/37 8/13/17
f 17/27/35 5/28/37 24/15/19
f 19/30/41 13/29/40 17/27/35
f 32/35/46 1/2/2 2/4/4
f 1/2/2 32/35/46 25/36/47
f 25/36/48 3/5/6 1/2/8
f 3/5/6 25/36/48 31/37/49
f 27/38/50 3/5/10 31/37/51
f 3/5/10 27/38/50 4/8/11
f 26/39/52 4/10/14 27/40/53
f 4/10/14 26/39/52 6/11/15
f 27/41/54 28/42/55 26/43/56
f 28/42/55 27/41/54 39/44/57
f 33/45/58 2/4/4 10/18/22
f 2/4/4 33/45/58 32/35/46
f 35/46/59 10/18/24 11/20/26
f 10/18/24 35/46/59 33/45/60
f 11/20/27 29/47/61 35/46/62
f 29/47/61 11/20/27 12/22/29
f 30/48/63 12/24/32 14/26/34
f 12/24/32 30/48/64 29/49/65
f 34/50/66 31/51/67 25/36/68
f 34/50/66 25/36/68 32/35/69
f 32/35/69 33/45/70 34/50/66
f 33/45/70 35/52/71 34/50/66
f 35/52/71 29/53/72 38/54/73
f 29/53/72 36/55/74 38/54/73
f 36/55/74 29/53/72 30/56/75
f 37/57/76 38/54/73 36/55/74
f 38/54/73 37/57/76 34/50/66
f 37/57/76 39/44/57 34/50/66
f 39/44/57 37/57/76 28/42/55
f 39/44/57 27/41/54 31/51/67
f 34/50/66 39/44/57 31/51/67
f 38/54/73 34/50/66 35/52/71
