# File exported by Unity3D version 5.6.7f1
v 0.00000000 1.42646200 -0.33089380
v 0.55817550 1.37642400 -0.31757680
v 0.57965640 1.31206900 0.27412000
v 0.72700830 0.93155400 0.88858140
v 0.69454800 0.74312220 1.92579700
v 0.57595000 0.24303470 2.06112900
v 0.76050020 0.19883290 1.72531500
v 0.82083370 0.68082580 1.64537600
v 0.00000000 0.80510710 2.09490300
v 0.00000000 0.24649020 2.18039300
v 0.55534340 1.33397900 -0.91699480
v 0.64738490 1.02324000 -1.48907000
v 0.62209620 0.97281990 -2.00149300
v 0.57940580 0.32541350 -2.10049300
v 0.84190430 0.84671440 -0.21494120
v 0.81276880 0.21673310 -0.18648110
v 0.78937260 0.82913710 -1.53157600
v 0.74546440 0.28667570 -1.68857200
v 0.82681750 0.31700030 1.65660600
v 0.82681750 0.54115310 1.56375900
v 0.82681750 0.63400020 1.33960600
v 0.82681750 0.54115310 1.11545400
v 0.82681740 0.31700010 1.02260600
v 0.82681740 0.09284730 1.11545400
v 0.82681750 0.00000022 1.33960600
v 0.82681750 0.09284738 1.56375900
v 0.79643070 0.31700000 -0.95029790
v 0.79643070 0.54115280 -1.04314500
v 0.79643060 0.63399990 -1.26729800
v 0.79643060 0.54115270 -1.49145100
v 0.79643060 0.31699980 -1.58429800
v 0.79643060 0.09284699 -1.49145100
v 0.79643060 -0.00000009 -1.26729800
v 0.79643060 0.09284706 -1.04314500
v -0.55817550 1.37642400 -0.31757680
v -0.57965640 1.31206900 0.27412000
v 0.00000000 1.35849800 0.33915660
v -0.72700830 0.93155400 0.88858140
v -0.69454800 0.74312220 1.92579700
v -0.57595000 0.24303470 2.06112900
v -0.76050020 0.19883290 1.72531500
v -0.82083370 0.68082580 1.64537600
v 0.00000000 0.97922500 1.09505600
v 0.00000000 1.37588500 -1.05174700
v -0.55534340 1.33397900 -0.91699480
v 0.00000000 1.06284300 -1.70083300
v -0.64738490 1.02324000 -1.48907000
v 0.00000000 1.00838700 -2.12633800
v -0.62209620 0.97281990 -2.00149300
v 0.00000000 0.32932580 -2.17156800
v -0.57940580 0.32541350 -2.10049300
v -0.84190430 0.84671440 -0.21494120
v -0.81276880 0.21673310 -0.18648110
v -0.78937260 0.82913710 -1.53157600
v -0.74546440 0.28667570 -1.68857200
v -0.82681750 0.31700030 1.65660600
v -0.82681750 0.54115310 1.56375900
v -0.82681750 0.63400020 1.33960600
v -0.82681750 0.54115310 1.11545400
v -0.82681740 0.31700010 1.02260600
v -0.82681740 0.09284730 1.11545400
v -0.82681750 0.00000022 1.33960600
v -0.82681750 0.09284738 1.56375900
v -0.79643070 0.31700000 -0.95029790
v -0.79643070 0.54115280 -1.04314500
v -0.79643060 0.63399990 -1.26729800
v -0.79643060 0.54115270 -1.49145100
v -0.79643060 0.31699980 -1.58429800
v -0.79643060 0.09284699 -1.49145100
v -0.79643060 -0.00000009 -1.26729800
v -0.79643060 0.09284706 -1.04314500
v 0.00000000 0.80510710 2.09490300
v 0.69454800 0.74312220 1.92579700
v 0.69454800 0.74312220 1.92579700
v 0.57595000 0.24303470 2.06112900
v 0.00000000 1.00838700 -2.12633800
v 0.62209620 0.97281990 -2.00149300
v 0.72700830 0.93155400 0.88858140
v 0.64738490 1.02324000 -1.48907000
v 0.62209620 0.97281990 -2.00149300
v 0.57940580 0.32541350 -2.10049300
v -0.69454800 0.74312220 1.92579700
v -0.69454800 0.74312220 1.92579700
v -0.57595000 0.24303470 2.06112900
v -0.62209620 0.97281990 -2.00149300
v -0.72700830 0.93155400 0.88858140
v -0.64738490 1.02324000 -1.48907000
v -0.62209620 0.97281990 -2.00149300
v -0.57940580 0.32541350 -2.10049300
v 0.57965640 1.31206900 0.27412000
v 0.00000000 1.35849800 0.33915660
v 0.00000000 0.97922500 1.09505600
v 0.72700830 0.93155400 0.88858140
v 0.76050020 0.19883290 1.72531500
v 0.69454800 0.74312220 1.92579700
v 0.00000000 1.37588500 -1.05174700
v 0.55534340 1.33397900 -0.91699480
v 0.00000000 1.06284300 -1.70083300
v 0.64738490 1.02324000 -1.48907000
v 0.57965640 1.31206900 0.27412000
v 0.84190430 0.84671440 -0.21494120
v 0.55817550 1.37642400 -0.31757680
v 0.57965640 1.31206900 0.27412000
v 0.55817550 1.37642400 -0.31757680
v 0.84190430 0.84671440 -0.21494120
v 0.55534340 1.33397900 -0.91699480
v 0.55534340 1.33397900 -0.91699480
v 0.64738490 1.02324000 -1.48907000
v 0.78937260 0.82913710 -1.53157600
v 0.82083370 0.68082580 1.64537600
v 0.76050020 0.19883290 1.72531500
v 0.72700830 0.93155400 0.88858140
v -0.57965640 1.31206900 0.27412000
v -0.72700830 0.93155400 0.88858140
v -0.76050020 0.19883290 1.72531500
v -0.69454800 0.74312220 1.92579700
v -0.55534340 1.33397900 -0.91699480
v -0.64738490 1.02324000 -1.48907000
v -0.57965640 1.31206900 0.27412000
v -0.84190430 0.84671440 -0.21494120
v -0.57965640 1.31206900 0.27412000
v -0.55817550 1.37642400 -0.31757680
v -0.55817550 1.37642400 -0.31757680
v -0.55534340 1.33397900 -0.91699480
v -0.84190430 0.84671440 -0.21494120
v -0.55534340 1.33397900 -0.91699480
v -0.64738490 1.02324000 -1.48907000
v -0.78937260 0.82913710 -1.53157600
v -0.82083370 0.68082580 1.64537600
v -0.76050020 0.19883290 1.72531500
v -0.72700830 0.93155400 0.88858140
vt 0.42250 0.39933
vt 0.42550 0.27857
vt 0.55491 0.27393
vt 0.71091 0.23776
vt 0.94070 0.24660
vt 0.39883 0.82825
vt 0.87033 0.01976
vt 0.84988 0.12377
vt 0.97402 0.39933
vt 0.52602 0.82508
vt 0.29488 0.27946
vt 0.15397 0.25624
vt 0.04306 0.26468
vt 0.30805 0.80824
vt 0.44884 0.15834
vt 0.45493 0.02183
vt 0.16480 0.15558
vt 0.12888 0.03850
vt 0.88693 0.97094
vt 0.82784 0.94646
vt 0.80336 0.88737
vt 0.82784 0.82827
vt 0.88693 0.80379
vt 0.94603 0.82827
vt 0.97051 0.88737
vt 0.94603 0.94646
vt 0.88693 0.97094
vt 0.82784 0.94646
vt 0.80336 0.88737
vt 0.82784 0.82827
vt 0.88693 0.80379
vt 0.94603 0.82827
vt 0.97051 0.88737
vt 0.94603 0.94646
vt 0.42550 0.52008
vt 0.55491 0.52472
vt 0.56632 0.39933
vt 0.71091 0.56089
vt 0.94070 0.55205
vt 0.65322 0.82825
vt 0.87033 0.77889
vt 0.84988 0.67488
vt 0.75087 0.39933
vt 0.26881 0.39933
vt 0.29488 0.51919
vt 0.11337 0.39933
vt 0.15398 0.54241
vt 0.01982 0.39933
vt 0.04306 0.53397
vt 0.18177 0.80806
vt 0.05549 0.80824
vt 0.44884 0.64031
vt 0.45493 0.77682
vt 0.16480 0.64307
vt 0.12888 0.76015
vt 0.88693 0.97094
vt 0.82784 0.94646
vt 0.80336 0.88737
vt 0.82784 0.82827
vt 0.88693 0.80379
vt 0.94603 0.82827
vt 0.97051 0.88737
vt 0.94603 0.94646
vt 0.88693 0.97094
vt 0.82784 0.94646
vt 0.80336 0.88737
vt 0.82784 0.82827
vt 0.88693 0.80379
vt 0.94603 0.82827
vt 0.97051 0.88737
vt 0.94603 0.94646
vt 0.52602 0.94733
vt 0.37100 0.93979
vt 0.91461 0.14237
vt 0.95572 0.03104
vt 0.18177 0.95528
vt 0.31913 0.94978
vt 0.68813 0.18496
vt 0.17030 0.20815
vt 0.05771 0.18949
vt 0.03200 0.04845
vt 0.68105 0.93979
vt 0.91461 0.65628
vt 0.95572 0.76761
vt 0.04441 0.94978
vt 0.68813 0.61370
vt 0.17031 0.59050
vt 0.05771 0.60916
vt 0.03201 0.75020
vt 0.55491 0.27393
vt 0.56632 0.39933
vt 0.75087 0.39933
vt 0.71091 0.23776
vt 0.87033 0.01976
vt 0.91461 0.14237
vt 0.26881 0.39933
vt 0.29488 0.27946
vt 0.11337 0.39933
vt 0.15397 0.25624
vt 0.55491 0.27393
vt 0.44884 0.15834
vt 0.42550 0.27857
vt 0.55491 0.27393
vt 0.42550 0.27857
vt 0.44884 0.15834
vt 0.29488 0.27946
vt 0.29488 0.27946
vt 0.17030 0.20815
vt 0.16480 0.15558
vt 0.84988 0.12377
vt 0.87033 0.01976
vt 0.68813 0.18496
vt 0.55491 0.52472
vt 0.71091 0.56089
vt 0.87033 0.77889
vt 0.91461 0.65628
vt 0.29488 0.51919
vt 0.15398 0.54241
vt 0.55491 0.52472
vt 0.44884 0.64031
vt 0.55491 0.52472
vt 0.42550 0.52008
vt 0.42550 0.52008
vt 0.29488 0.51919
vt 0.44884 0.64031
vt 0.29488 0.51919
vt 0.17031 0.59050
vt 0.16480 0.64307
vt 0.84988 0.67488
vt 0.87033 0.77889
vt 0.68813 0.61370
vn 0.00000000 0.99990370 0.01387652
vn 0.08994307 0.99577860 0.01830913
vn 0.09104010 0.99035870 0.10441000
vn 0.19310090 0.85423640 0.48269270
vn 0.12346000 0.97690050 0.17442270
vn 0.22874910 0.17687520 0.95728210
vn 0.95810960 -0.09195677 0.27123800
vn 0.93722190 0.28786300 0.19685030
vn 0.00000000 0.98517320 0.17156250
vn 0.00000000 0.15127710 0.98849140
vn 0.09139135 0.99334130 -0.07014748
vn 0.18539910 0.88075840 -0.43576590
vn 0.08965542 0.98978470 -0.11085230
vn 0.16055890 0.09904926 -0.98204390
vn 0.97452600 0.22408380 -0.00924474
vn 0.99836150 -0.05538369 -0.01438567
vn 0.95388510 0.26753390 -0.13612100
vn 0.97366360 -0.02570419 -0.22653610
vn 1.00000000 -0.00000017 -0.00000041
vn 1.00000000 0.00000000 -0.00000021
vn 1.00000000 0.00000041 -0.00000017
vn 1.00000000 0.00000000 -0.00000021
vn 1.00000000 -0.00000017 -0.00000041
vn 1.00000000 0.00000000 -0.00000021
vn 1.00000000 0.00000041 -0.00000017
vn 1.00000000 0.00000000 -0.00000021
vn 1.00000000 -0.00000017 -0.00000041
vn 1.00000000 0.00000000 -0.00000021
vn 1.00000000 0.00000041 -0.00000017
vn 1.00000000 0.00000000 -0.00000021
vn 1.00000000 -0.00000017 -0.00000041
vn 1.00000000 0.00000000 -0.00000021
vn 1.00000000 0.00000041 -0.00000017
vn 1.00000000 0.00000000 -0.00000021
vn -0.08994307 0.99577860 0.01830913
vn -0.09104010 0.99035870 0.10441000
vn 0.00000000 0.99468650 0.10295050
vn -0.19310090 0.85423640 0.48269270
vn -0.12346000 0.97690050 0.17442270
vn -0.22874910 0.17687520 0.95728210
vn -0.95810960 -0.09195677 0.27123800
vn -0.93722190 0.28786300 0.19685030
vn 0.00000000 0.88094470 0.47321920
vn 0.00000000 0.99754760 -0.06999180
vn -0.09139135 0.99334130 -0.07014748
vn 0.00000000 0.90071990 -0.43440030
vn -0.18539910 0.88075840 -0.43576590
vn 0.00000000 0.99190990 -0.12694450
vn -0.08965542 0.98978470 -0.11085230
vn 0.00000000 0.06645936 -0.99778910
vn -0.16055890 0.09904926 -0.98204390
vn -0.97452600 0.22408380 -0.00924474
vn -0.99836150 -0.05538369 -0.01438568
vn -0.95388510 0.26753390 -0.13612100
vn -0.97366360 -0.02570419 -0.22653610
vn -1.00000000 -0.00000017 -0.00000041
vn -1.00000000 0.00000000 -0.00000021
vn -1.00000000 0.00000041 -0.00000017
vn -1.00000000 0.00000000 -0.00000021
vn -1.00000000 -0.00000017 -0.00000041
vn -1.00000000 0.00000000 -0.00000021
vn -1.00000000 0.00000041 -0.00000017
vn -1.00000000 0.00000000 -0.00000021
vn -1.00000000 -0.00000017 -0.00000041
vn -1.00000000 0.00000000 -0.00000021
vn -1.00000000 0.00000041 -0.00000017
vn -1.00000000 0.00000000 -0.00000021
vn -1.00000000 -0.00000017 -0.00000041
vn -1.00000000 0.00000000 -0.00000021
vn -1.00000000 0.00000041 -0.00000017
vn -1.00000000 0.00000000 -0.00000021
vn 0.00000000 0.17560860 0.98446010
vn 0.24851650 0.19767390 0.94824290
vn 0.90453550 0.13896790 0.40311730
vn 0.86979880 -0.07427391 0.48778420
vn 0.00000000 0.10457660 -0.99451680
vn 0.20237320 0.13497990 -0.96996160
vn 0.86820540 0.49254490 0.06015650
vn 0.82194290 0.56525250 -0.06999581
vn 0.94022440 0.16207910 -0.29951380
vn 0.92733650 -0.00392600 -0.37420810
vn -0.24851650 0.19767390 0.94824290
vn -0.90453550 0.13896790 0.40311730
vn -0.86979880 -0.07427391 0.48778420
vn -0.20237320 0.13497990 -0.96996160
vn -0.86820540 0.49254490 0.06015650
vn -0.82194290 0.56525250 -0.06999581
vn -0.94022430 0.16207910 -0.29951380
vn -0.92733650 -0.00392600 -0.37420810
vn 0.15457140 0.87277450 0.46300350
vn 0.00000000 0.89380030 0.44846530
vn 0.00000000 0.98398080 0.17827480
vn 0.11546020 0.97667350 0.18104650
vn 0.95810960 -0.09195677 0.27123800
vn 0.90453550 0.13896790 0.40311730
vn 0.00000000 0.89564700 -0.44476570
vn 0.17488090 0.87672130 -0.44808100
vn 0.00000000 0.99313270 -0.11699410
vn 0.09397335 0.99032750 -0.10208060
vn 0.88990290 0.45389530 0.04529676
vn 0.97452600 0.22408380 -0.00924474
vn 0.88244650 0.47024730 -0.01247988
vn 0.88990290 0.45389530 0.04529676
vn 0.88244650 0.47024730 -0.01247988
vn 0.97452600 0.22408380 -0.00924474
vn 0.90005870 0.43031640 -0.06871752
vn 0.90005870 0.43031640 -0.06871752
vn 0.82194290 0.56525250 -0.06999581
vn 0.95388510 0.26753390 -0.13612100
vn 0.93722190 0.28786300 0.19685030
vn 0.95810960 -0.09195677 0.27123800
vn 0.86820540 0.49254490 0.06015650
vn -0.15457140 0.87277450 0.46300350
vn -0.11546020 0.97667350 0.18104650
vn -0.95810960 -0.09195677 0.27123800
vn -0.90453550 0.13896790 0.40311730
vn -0.17488090 0.87672130 -0.44808100
vn -0.09397335 0.99032750 -0.10208060
vn -0.88990290 0.45389530 0.04529676
vn -0.97452600 0.22408380 -0.00924474
vn -0.88990290 0.45389530 0.04529676
vn -0.88244650 0.47024730 -0.01247988
vn -0.88244650 0.47024730 -0.01247988
vn -0.90005870 0.43031640 -0.06871751
vn -0.97452600 0.22408380 -0.00924474
vn -0.90005870 0.43031640 -0.06871751
vn -0.82194290 0.56525250 -0.06999581
vn -0.95388510 0.26753390 -0.13612100
vn -0.93722190 0.28786300 0.19685030
vn -0.95810960 -0.09195677 0.27123800
vn -0.86820540 0.49254490 0.06015650
vc 0.00000000 0.00000000 0.00000000 1.00000000
vc 0.00000000 0.00000000 0.00000000 1.00000000
vc 0.00000000 0.00000000 0.00000000 1.00000000
vc 0.00000000 0.00000000 0.00000000 1.00000000
vc 0.00000000 0.00000000 0.00000000 1.00000000
vc 0.00000000 0.00000000 0.00000000 1.00000000
vc 0.00000000 0.00000000 0.00000000 1.00000000
vc 0.00000000 0.00000000 0.00000000 1.00000000
vc 0.00000000 0.00000000 0.00000000 1.00000000
vc 0.00000000 0.00000000 0.00000000 1.00000000
vc 0.00000000 0.00000000 0.00000000 1.00000000
vc 0.00000000 0.00000000 0.00000000 1.00000000
vc 0.00000000 0.00000000 0.00000000 1.00000000
vc 0.00000000 0.00000000 0.00000000 1.00000000
vc 0.00000000 0.00000000 0.00000000 1.00000000
vc 0.00000000 0.00000000 0.00000000 1.00000000
vc 0.00000000 0.00000000 0.00000000 1.00000000
vc 0.00000000 0.00000000 0.00000000 1.00000000
vc 0.00000000 0.00000000 0.00000000 1.00000000
vc 0.00000000 0.00000000 0.00000000 1.00000000
vc 0.00000000 0.00000000 0.00000000 1.00000000
vc 0.00000000 0.00000000 0.00000000 1.00000000
vc 0.00000000 0.00000000 0.00000000 1.00000000
vc 0.00000000 0.00000000 0.00000000 1.00000000
vc 0.00000000 0.00000000 0.00000000 1.00000000
vc 0.00000000 0.00000000 0.00000000 1.00000000
vc 0.00000000 0.00000000 0.00000000 1.00000000
vc 0.00000000 0.00000000 0.00000000 1.00000000
vc 0.00000000 0.00000000 0.00000000 1.00000000
vc 0.00000000 0.00000000 0.00000000 1.00000000
vc 0.00000000 0.00000000 0.00000000 1.00000000
vc 0.00000000 0.00000000 0.00000000 1.00000000
vc 0.00000000 0.00000000 0.00000000 1.00000000
vc 0.00000000 0.00000000 0.00000000 1.00000000
vc 0.00000000 0.00000000 0.00000000 1.00000000
vc 0.00000000 0.00000000 0.00000000 1.00000000
vc 0.00000000 0.00000000 0.00000000 1.00000000
vc 0.00000000 0.00000000 0.00000000 1.00000000
vc 0.00000000 0.00000000 0.00000000 1.00000000
vc 0.00000000 0.00000000 0.00000000 1.00000000
vc 0.00000000 0.00000000 0.00000000 1.00000000
vc 0.00000000 0.00000000 0.00000000 1.00000000
vc 0.00000000 0.00000000 0.00000000 1.00000000
vc 0.00000000 0.00000000 0.00000000 1.00000000
vc 0.00000000 0.00000000 0.00000000 1.00000000
vc 0.00000000 0.00000000 0.00000000 1.00000000
vc 0.00000000 0.00000000 0.00000000 1.00000000
vc 0.00000000 0.00000000 0.00000000 1.00000000
vc 0.00000000 0.00000000 0.00000000 1.00000000
vc 0.00000000 0.00000000 0.00000000 1.00000000
vc 0.00000000 0.00000000 0.00000000 1.00000000
vc 0.00000000 0.00000000 0.00000000 1.00000000
vc 0.00000000 0.00000000 0.00000000 1.00000000
vc 0.00000000 0.00000000 0.00000000 1.00000000
vc 0.00000000 0.00000000 0.00000000 1.00000000
vc 0.00000000 0.00000000 0.00000000 1.00000000
vc 0.00000000 0.00000000 0.00000000 1.00000000
vc 0.00000000 0.00000000 0.00000000 1.00000000
vc 0.00000000 0.00000000 0.00000000 1.00000000
vc 0.00000000 0.00000000 0.00000000 1.00000000
vc 0.00000000 0.00000000 0.00000000 1.00000000
vc 0.00000000 0.00000000 0.00000000 1.00000000
vc 0.00000000 0.00000000 0.00000000 1.00000000
vc 0.00000000 0.00000000 0.00000000 1.00000000
vc 0.00000000 0.00000000 0.00000000 1.00000000
vc 0.00000000 0.00000000 0.00000000 1.00000000
vc 0.00000000 0.00000000 0.00000000 1.00000000
vc 0.00000000 0.00000000 0.00000000 1.00000000
vc 0.00000000 0.00000000 0.00000000 1.00000000
vc 0.00000000 0.00000000 0.00000000 1.00000000
vc 0.00000000 0.00000000 0.00000000 1.00000000
vc 0.00000000 0.00000000 0.00000000 1.00000000
vc 0.00000000 0.00000000 0.00000000 1.00000000
vc 0.00000000 0.00000000 0.00000000 1.00000000
vc 0.00000000 0.00000000 0.00000000 1.00000000
vc 0.00000000 0.00000000 0.00000000 1.00000000
vc 0.00000000 0.00000000 0.00000000 1.00000000
vc 0.00000000 0.00000000 0.00000000 1.00000000
vc 0.00000000 0.00000000 0.00000000 1.00000000
vc 0.00000000 0.00000000 0.00000000 1.00000000
vc 0.00000000 0.00000000 0.00000000 1.00000000
vc 0.00000000 0.00000000 0.00000000 1.00000000
vc 0.00000000 0.00000000 0.00000000 1.00000000
vc 0.00000000 0.00000000 0.00000000 1.00000000
vc 0.00000000 0.00000000 0.00000000 1.00000000
vc 0.00000000 0.00000000 0.00000000 1.00000000
vc 0.00000000 0.00000000 0.00000000 1.00000000
vc 0.00000000 0.00000000 0.00000000 1.00000000
vc 0.00000000 0.00000000 0.00000000 1.00000000
vc 0.00000000 0.00000000 0.00000000 1.00000000
vc 0.00000000 0.00000000 0.00000000 1.00000000
vc 0.00000000 0.00000000 0.00000000 1.00000000
vc 0.00000000 0.00000000 0.00000000 1.00000000
vc 0.00000000 0.00000000 0.00000000 1.00000000
vc 0.00000000 0.00000000 0.00000000 1.00000000
vc 0.00000000 0.00000000 0.00000000 1.00000000
vc 0.00000000 0.00000000 0.00000000 1.00000000
vc 0.00000000 0.00000000 0.00000000 1.00000000
vc 0.00000000 0.00000000 0.00000000 1.00000000
vc 0.00000000 0.00000000 0.00000000 1.00000000
vc 0.00000000 0.00000000 0.00000000 1.00000000
vc 0.00000000 0.00000000 0.00000000 1.00000000
vc 0.00000000 0.00000000 0.00000000 1.00000000
vc 0.00000000 0.00000000 0.00000000 1.00000000
vc 0.00000000 0.00000000 0.00000000 1.00000000
vc 0.00000000 0.00000000 0.00000000 1.00000000
vc 0.00000000 0.00000000 0.00000000 1.00000000
vc 0.00000000 0.00000000 0.00000000 1.00000000
vc 0.00000000 0.00000000 0.00000000 1.00000000
vc 0.00000000 0.00000000 0.00000000 1.00000000
vc 0.00000000 0.00000000 0.00000000 1.00000000
vc 0.00000000 0.00000000 0.00000000 1.00000000
vc 0.00000000 0.00000000 0.00000000 1.00000000
vc 0.00000000 0.00000000 0.00000000 1.00000000
vc 0.00000000 0.00000000 0.00000000 1.00000000
vc 0.00000000 0.00000000 0.00000000 1.00000000
vc 0.00000000 0.00000000 0.00000000 1.00000000
vc 0.00000000 0.00000000 0.00000000 1.00000000
vc 0.00000000 0.00000000 0.00000000 1.00000000
vc 0.00000000 0.00000000 0.00000000 1.00000000
vc 0.00000000 0.00000000 0.00000000 1.00000000
vc 0.00000000 0.00000000 0.00000000 1.00000000
vc 0.00000000 0.00000000 0.00000000 1.00000000
vc 0.00000000 0.00000000 0.00000000 1.00000000
vc 0.00000000 0.00000000 0.00000000 1.00000000
vc 0.00000000 0.00000000 0.00000000 1.00000000
vc 0.00000000 0.00000000 0.00000000 1.00000000
vc 0.00000000 0.00000000 0.00000000 1.00000000
vc 0.00000000 0.00000000 0.00000000 1.00000000
vc 0.00000000 0.00000000 0.00000000 1.00000000
vc 0.00000000 0.00000000 0.00000000 1.00000000
g audi_s4_b5_lod_0
f 2/2/2/2 37/37/37/37 3/3/3/3
f 37/37/37/37 2/2/2/2 1/1/1/1
f 90/90/90/90 43/43/43/43 4/4/4/4
f 43/43/43/43 90/90/90/90 91/91/91/91
f 5/5/5/5 92/92/92/92 9/9/9/9
f 92/92/92/92 5/5/5/5 93/93/93/93
f 6/6/6/6 72/72/72/72 10/10/10/10
f 72/72/72/72 6/6/6/6 73/73/73/73
f 74/74/74/74 7/7/7/7 8/8/8/8
f 94/94/94/94 95/95/95/95 75/75/75/75
f 11/11/11/11 1/1/1/1 2/2/2/2
f 1/1/1/1 11/11/11/11 44/44/44/44
f 12/12/12/12 96/96/96/96 97/97/97/97
f 96/96/96/96 12/12/12/12 46/46/46/46
f 98/98/98/98 13/13/13/13 48/48/48/48
f 13/13/13/13 98/98/98/98 99/99/99/99
f 14/14/14/14 76/76/76/76 77/77/77/77
f 76/76/76/76 14/14/14/14 50/50/50/50
f 15/15/15/15 100/100/100/100 78/78/78/78
f 101/101/101/101 102/102/102/102 103/103/103/103
f 104/104/104/104 105/105/105/105 106/106/106/106
f 107/107/107/107 15/15/15/15 79/79/79/79
f 108/108/108/108 17/17/17/17 80/80/80/80
f 80/80/80/80 18/18/18/18 81/81/81/81
f 18/18/18/18 80/80/80/80 17/17/17/17
f 16/16/16/16 109/109/109/109 15/15/15/15
f 109/109/109/109 16/16/16/16 18/18/18/18
f 16/16/16/16 110/110/110/110 111/111/111/111
f 110/110/110/110 16/16/16/16 15/15/15/15
f 110/110/110/110 112/112/112/112 74/74/74/74
f 15/15/15/15 78/78/78/78 110/110/110/110
f 109/109/109/109 79/79/79/79 15/15/15/15
f 20/20/20/20 22/22/22/22 21/21/21/21
f 22/22/22/22 24/24/24/24 23/23/23/23
f 24/24/24/24 26/26/26/26 25/25/25/25
f 22/22/22/22 26/26/26/26 24/24/24/24
f 20/20/20/20 26/26/26/26 22/22/22/22
f 19/19/19/19 26/26/26/26 20/20/20/20
f 28/28/28/28 30/30/30/30 29/29/29/29
f 30/30/30/30 32/32/32/32 31/31/31/31
f 32/32/32/32 34/34/34/34 33/33/33/33
f 30/30/30/30 34/34/34/34 32/32/32/32
f 28/28/28/28 34/34/34/34 30/30/30/30
f 27/27/27/27 34/34/34/34 28/28/28/28
f 35/35/35/35 37/37/37/37 1/1/1/1
f 37/37/37/37 35/35/35/35 36/36/36/36
f 113/113/113/113 43/43/43/43 91/91/91/91
f 43/43/43/43 113/113/113/113 38/38/38/38
f 39/39/39/39 92/92/92/92 114/114/114/114
f 92/92/92/92 39/39/39/39 9/9/9/9
f 40/40/40/40 72/72/72/72 82/82/82/82
f 72/72/72/72 40/40/40/40 10/10/10/10
f 83/83/83/83 41/41/41/41 84/84/84/84
f 115/115/115/115 116/116/116/116 42/42/42/42
f 45/45/45/45 1/1/1/1 44/44/44/44
f 1/1/1/1 45/45/45/45 35/35/35/35
f 47/47/47/47 96/96/96/96 46/46/46/46
f 96/96/96/96 47/47/47/47 117/117/117/117
f 98/98/98/98 49/49/49/49 118/118/118/118
f 49/49/49/49 98/98/98/98 48/48/48/48
f 51/51/51/51 76/76/76/76 50/50/50/50
f 76/76/76/76 51/51/51/51 85/85/85/85
f 52/52/52/52 86/86/86/86 119/119/119/119
f 120/120/120/120 121/121/121/121 122/122/122/122
f 123/123/123/123 124/124/124/124 125/125/125/125
f 126/126/126/126 87/87/87/87 52/52/52/52
f 127/127/127/127 88/88/88/88 54/54/54/54
f 88/88/88/88 55/55/55/55 54/54/54/54
f 55/55/55/55 88/88/88/88 89/89/89/89
f 53/53/53/53 128/128/128/128 55/55/55/55
f 128/128/128/128 53/53/53/53 52/52/52/52
f 53/53/53/53 129/129/129/129 52/52/52/52
f 129/129/129/129 53/53/53/53 130/130/130/130
f 129/129/129/129 116/116/116/116 131/131/131/131
f 52/52/52/52 129/129/129/129 86/86/86/86
f 128/128/128/128 52/52/52/52 87/87/87/87
f 63/63/63/63 61/61/61/61 62/62/62/62
f 61/61/61/61 59/59/59/59 60/60/60/60
f 63/63/63/63 59/59/59/59 61/61/61/61
f 59/59/59/59 57/57/57/57 58/58/58/58
f 63/63/63/63 57/57/57/57 59/59/59/59
f 56/56/56/56 57/57/57/57 63/63/63/63
f 71/71/71/71 69/69/69/69 70/70/70/70
f 69/69/69/69 67/67/67/67 68/68/68/68
f 71/71/71/71 67/67/67/67 69/69/69/69
f 67/67/67/67 65/65/65/65 66/66/66/66
f 71/71/71/71 65/65/65/65 67/67/67/67
f 64/64/64/64 65/65/65/65 71/71/71/71
