# Blender v2.79 (sub 7) OBJ File: 'BMW E34.blend'
# www.blender.org
mtllib BMW E34_LOD.mtl
o BMW_E34_LOD_bmw_e34_lod
v 0.000000 1.282572 -0.469776
v 0.600402 1.172980 -1.197655
v 0.000000 1.233815 -1.210131
v 0.559080 1.239908 -0.402802
v 0.000000 1.202353 0.228213
v 0.564403 1.181139 0.183173
v 0.770375 0.737971 0.727463
v 0.000000 0.796622 0.978520
v 0.719037 0.508250 2.042252
v 0.000000 0.538853 2.169661
v 0.000000 0.016862 2.144164
v 0.716024 0.012228 1.949611
v 0.850777 0.588164 0.755907
v 0.782785 0.011156 0.714232
v 0.740961 0.852282 -1.788808
v 0.000000 0.897020 -1.938114
v 0.711958 0.818537 -2.351310
v 0.000000 0.853370 -2.415036
v 0.000000 0.664382 -2.400022
v 0.800754 0.668363 -2.306887
v 0.716350 0.122474 -2.314938
v 0.000000 0.115613 -2.391383
v 0.835967 0.657907 -1.730273
v 0.786004 0.103027 -1.788234
v -0.600402 1.172980 -1.197655
v -0.559080 1.239908 -0.402802
v -0.564403 1.181139 0.183173
v -0.770375 0.737971 0.727462
v -0.719038 0.508250 2.042252
v -0.716025 0.012228 1.949611
v -0.850777 0.588164 0.755907
v -0.782785 0.011156 0.714231
v -0.740961 0.852282 -1.788808
v -0.711957 0.818537 -2.351310
v -0.800753 0.668363 -2.306888
v -0.716349 0.122474 -2.314938
v -0.835966 0.657907 -1.730273
v -0.786003 0.103027 -1.788234
vt 0.572680 0.381130
vt 0.725090 0.506850
vt 0.727700 0.381130
vt 0.558650 0.498200
vt 0.426520 0.381130
vt 0.435960 0.499320
vt 0.321990 0.542440
vt 0.269420 0.381130
vt 0.046680 0.531690
vt 0.020000 0.381130
vt 0.400010 0.893650
vt 0.548600 0.792110
vt 0.400630 0.791150
vt 0.548600 0.899980
vt 0.318870 0.616180
vt 0.065240 0.733120
vt 0.324500 0.738030
vt 0.047630 0.628970
vt 0.324030 0.586240
vt 0.848870 0.536290
vt 0.880140 0.381130
vt 0.966660 0.530210
vt 0.980000 0.381130
vt 0.183450 0.903160
vt 0.328770 0.934630
vt 0.346890 0.903970
vt 0.183450 0.941740
vt 0.329670 0.792550
vt 0.183450 0.791150
vt 0.958430 0.614360
vt 0.849820 0.574450
vt 0.838460 0.613340
vt 0.966790 0.584550
vt 0.847860 0.730360
vt 0.956870 0.729810
vt 0.725090 0.255410
vt 0.558650 0.264070
vt 0.435960 0.262950
vt 0.321990 0.219820
vt 0.046680 0.230570
vt 0.697190 0.893650
vt 0.696570 0.791150
vt 0.318870 0.146090
vt 0.065240 0.029140
vt 0.047630 0.133300
vt 0.324500 0.024240
vt 0.324030 0.176030
vt 0.848870 0.225980
vt 0.966660 0.232060
vt 0.038120 0.934630
vt 0.020000 0.903970
vt 0.037230 0.792550
vt 0.958430 0.147910
vt 0.849820 0.187820
vt 0.966790 0.177720
vt 0.838460 0.148930
vt 0.847860 0.031910
vt 0.956870 0.032460
vn 0.0000 0.9999 0.0131
vn 0.0950 0.9929 -0.0711
vn 0.0000 0.9978 -0.0657
vn 0.0694 0.9974 0.0200
vn -0.0000 0.9943 0.1066
vn 0.0453 0.9940 0.0993
vn -0.0000 0.8402 0.5423
vn 0.1529 0.9156 0.3718
vn 0.0784 0.7874 0.6114
vn -0.0000 0.9507 0.3102
vn 0.0973 0.9752 0.1986
vn 0.0788 0.9743 0.2109
vn 0.2248 -0.1286 0.9659
vn 0.0000 -0.1007 0.9949
vn 0.2569 -0.1789 0.9497
vn 0.0000 -0.0488 0.9988
vn 0.9789 0.1978 0.0518
vn 0.9949 -0.0495 0.0884
vn 0.9929 -0.1166 0.0217
vn 0.9946 0.0168 0.1029
vn 0.8760 0.4793 0.0543
vn 0.0000 0.8990 -0.4379
vn 0.1011 0.9589 -0.2651
vn -0.0000 0.9722 -0.2343
vn 0.0991 0.8843 -0.4562
vn 0.0671 0.9950 -0.0734
vn -0.0000 0.9958 -0.0911
vn 0.0000 -0.0546 -0.9985
vn 0.1104 -0.2025 -0.9730
vn 0.1155 -0.0950 -0.9888
vn -0.0000 -0.0792 -0.9969
vn 0.1120 -0.0079 -0.9937
vn -0.0000 -0.0157 -0.9999
vn 0.9726 0.2162 -0.0859
vn 0.8976 0.4401 -0.0268
vn 0.9833 0.1806 -0.0231
vn 0.8679 0.4912 -0.0742
vn 0.9933 -0.1032 -0.0522
vn 0.9795 -0.1495 -0.1351
vn 0.9036 0.4280 0.0169
vn 0.9194 0.3932 0.0088
vn 0.8994 0.4367 0.0209
vn 0.9205 0.3906 0.0070
vn 0.9491 0.3142 0.0229
vn -0.0950 0.9929 -0.0711
vn -0.0694 0.9974 0.0200
vn -0.0453 0.9940 0.0993
vn -0.1529 0.9156 0.3718
vn -0.0784 0.7874 0.6114
vn -0.0973 0.9752 0.1986
vn -0.0788 0.9743 0.2109
vn -0.2248 -0.1286 0.9659
vn -0.2569 -0.1789 0.9497
vn -0.9789 0.1978 0.0518
vn -0.9949 -0.0495 0.0884
vn -0.9946 0.0168 0.1029
vn -0.9929 -0.1166 0.0217
vn -0.8760 0.4793 0.0543
vn -0.1011 0.9589 -0.2651
vn -0.0991 0.8843 -0.4562
vn -0.0671 0.9950 -0.0734
vn -0.1104 -0.2025 -0.9730
vn -0.1155 -0.0950 -0.9888
vn -0.1120 -0.0079 -0.9937
vn -0.9726 0.2162 -0.0859
vn -0.8976 0.4401 -0.0268
vn -0.8679 0.4912 -0.0742
vn -0.9833 0.1806 -0.0231
vn -0.9933 -0.1032 -0.0522
vn -0.9795 -0.1495 -0.1351
vn -0.9036 0.4280 0.0169
vn -0.9194 0.3932 0.0088
vn -0.9205 0.3906 0.0070
vn -0.8994 0.4367 0.0209
vn -0.9491 0.3142 0.0229
usemtl BMW_E34_(LOD)
s 1
f 1/1/1 2/2/2 3/3/3
f 2/2/2 1/1/1 4/4/4
f 5/5/5 4/4/4 1/1/1
f 4/4/4 5/5/5 6/6/6
f 5/5/7 7/7/8 6/6/9
f 7/7/8 5/5/7 8/8/10
f 8/8/10 9/9/11 7/7/8
f 9/9/11 8/8/10 10/10/12
f 9/11/13 11/12/14 12/13/15
f 11/12/14 9/11/13 10/14/16
f 13/15/17 12/16/18 14/17/19
f 12/16/18 13/15/17 9/18/20
f 9/18/20 13/15/17 7/19/21
f 3/3/22 15/20/23 16/21/24
f 15/20/23 3/3/22 2/2/25
f 17/22/26 16/21/24 15/20/23
f 16/21/24 17/22/26 18/23/27
f 19/24/28 17/25/29 20/26/30
f 17/25/29 19/24/28 18/27/31
f 19/24/28 21/28/32 22/29/33
f 21/28/32 19/24/28 20/26/30
f 20/30/34 15/31/35 23/32/36
f 15/31/35 20/30/34 17/33/37
f 23/32/36 7/19/21 13/15/17
f 7/19/21 23/32/36 15/31/35
f 20/30/34 24/34/38 21/35/39
f 24/34/38 20/30/34 23/32/36
f 14/17/19 23/32/36 13/15/17
f 23/32/36 14/17/19 24/34/38
f 7/19/40 2/2/41 6/6/42
f 2/2/41 7/19/40 15/31/43
f 4/4/44 6/6/42 2/2/41
f 1/1/1 25/36/45 26/37/46
f 25/36/45 1/1/1 3/3/3
f 5/5/5 26/37/46 27/38/47
f 26/37/46 5/5/5 1/1/1
f 5/5/7 28/39/48 8/8/10
f 28/39/48 5/5/7 27/38/49
f 8/8/10 29/40/50 10/10/51
f 29/40/50 8/8/10 28/39/48
f 29/41/52 11/12/14 10/14/16
f 11/12/14 29/41/52 30/42/53
f 31/43/54 30/44/55 29/45/56
f 30/44/55 31/43/54 32/46/57
f 29/45/56 28/47/58 31/43/54
f 3/3/22 33/48/59 25/36/60
f 33/48/59 3/3/22 16/21/24
f 34/49/61 16/21/24 18/23/27
f 16/21/24 34/49/61 33/48/59
f 19/24/28 34/50/62 18/27/31
f 34/50/62 19/24/28 35/51/63
f 19/24/28 36/52/64 35/51/63
f 36/52/64 19/24/28 22/29/33
f 35/53/65 33/54/66 34/55/67
f 33/54/66 35/53/65 37/56/68
f 37/56/68 28/47/58 33/54/66
f 28/47/58 37/56/68 31/43/54
f 35/53/65 38/57/69 37/56/68
f 38/57/69 35/53/65 36/58/70
f 32/46/57 37/56/68 38/57/69
f 37/56/68 32/46/57 31/43/54
f 28/47/71 25/36/72 33/54/73
f 25/36/72 28/47/71 27/38/74
f 26/37/75 25/36/72 27/38/74
