# Blender v2.79 (sub 0) OBJ File: ''
# www.blender.org
mtllib Opel Astra J Sports Tourer_LOD.mtl
o opel_astra_j_sports_tourer_lod_0
v 0.547211 1.519119 -0.006554
v 0.657980 1.069224 1.180824
v 0.844546 0.885986 1.051138
v 0.000000 1.537089 -0.011046
v 0.000000 1.071102 1.343758
v 0.774314 0.894580 1.701768
v 0.441840 0.836649 2.105836
v 0.000000 0.843989 2.202474
v 0.000000 0.264272 2.351793
v 0.510345 0.261875 2.248657
v 0.843939 0.254903 1.771396
v 0.812409 1.018070 -1.798552
v 0.579994 1.389446 -1.693490
v 0.413642 1.457144 -1.898238
v -0.000000 1.477001 -1.968352
v 0.515018 0.909618 -2.228001
v -0.000000 0.912177 -2.306513
v 0.511958 0.345846 -2.344442
v -0.000000 0.347156 -2.406367
v 0.860174 0.325182 -1.932042
v 0.868809 0.540000 -1.043428
v 0.868809 0.540000 -1.666967
v 0.868809 0.720000 -1.355197
v 0.868809 0.000000 -1.355198
v 0.868809 0.180000 -1.666967
v 0.868809 0.180000 -1.043428
v 0.851937 0.539999 1.679247
v 0.851937 0.540000 1.055708
v 0.851937 0.719999 1.367478
v 0.851937 -0.000000 1.367478
v 0.851937 0.180000 1.055709
v 0.851937 0.180000 1.679247
v -0.547211 1.519119 -0.006554
v -0.844545 0.885986 1.051138
v -0.657979 1.069224 1.180824
v -0.774314 0.894580 1.701769
v -0.441839 0.836649 2.105836
v -0.510344 0.261875 2.248657
v -0.843938 0.254903 1.771396
v -0.812409 1.018070 -1.798552
v -0.579995 1.389446 -1.693490
v -0.413643 1.457144 -1.898238
v -0.515019 0.909618 -2.228001
v -0.511959 0.345846 -2.344442
v -0.860175 0.325182 -1.932042
v -0.868810 0.000000 -1.355197
v -0.868810 0.540000 -1.666966
v -0.868810 0.180000 -1.666966
v -0.868810 0.540000 -1.043428
v -0.868810 0.720000 -1.355197
v -0.868810 0.180000 -1.043428
v -0.851936 -0.000000 1.367478
v -0.851937 0.540000 1.055709
v -0.851937 0.180000 1.055709
v -0.851937 0.539999 1.679247
v -0.851936 0.719999 1.367478
v -0.851936 0.180000 1.679247
vt 0.388060 0.529910
vt 0.609010 0.465190
vt 0.587410 0.417090
vt 0.583070 0.027310
vt 0.363280 0.137630
vt 0.607820 0.147220
vt 0.367970 0.038890
vt 0.704110 0.431870
vt 0.748500 0.072870
vt 0.677920 0.010000
vt 0.762810 0.153310
vt 0.880020 0.111430
vt 0.959830 0.011330
vt 0.880020 0.010000
vt 0.972210 0.108880
vt 0.730860 0.343860
vt 0.783550 0.466620
vt 0.822010 0.386110
vt 0.078010 0.415670
vt 0.091080 0.494620
vt 0.063720 0.021030
vt 0.025580 0.049610
vt 0.010000 0.123770
vt 0.055940 0.521860
vt 0.010000 0.432590
vt 0.213780 0.814390
vt 0.115340 0.889110
vt 0.217370 0.889110
vt 0.114880 0.796080
vt 0.013040 0.796630
vt 0.010000 0.889110
vt 0.705280 0.893350
vt 0.608540 0.800980
vt 0.577570 0.892200
vt 0.712380 0.796080
vt 0.071790 0.314540
vt 0.348270 0.796080
vt 0.348270 0.908710
vt 0.380790 0.852390
vt 0.250730 0.852390
vt 0.283240 0.908710
vt 0.283240 0.796080
vt 0.511690 0.796080
vt 0.511690 0.908710
vt 0.544200 0.852390
vt 0.414150 0.852390
vt 0.446660 0.908710
vt 0.446660 0.796080
vt 0.437970 0.766070
vt 0.243200 0.645530
vt 0.219730 0.692740
vt 0.573750 0.264830
vt 0.360220 0.236430
vt 0.126020 0.655720
vt 0.666960 0.289520
vt 0.742240 0.232370
vt 0.800210 0.011330
vt 0.787840 0.108880
vt 0.102740 0.566730
vt 0.045270 0.687330
vt 0.010000 0.605370
vt 0.752270 0.664080
vt 0.736110 0.742460
vt 0.019730 0.198930
vt 0.055500 0.230400
vt 0.770160 0.771050
vt 0.819560 0.683650
vt 0.213780 0.963820
vt 0.114880 0.982140
vt 0.013040 0.981580
vt 0.862280 0.411820
vt 0.959190 0.319640
vt 0.855370 0.314540
vt 0.990000 0.410910
vt 0.762450 0.563270
vt 0.844580 0.619590
vt 0.942120 0.563270
vt 0.877100 0.563270
vt 0.942120 0.675900
vt 0.974640 0.619590
vt 0.877100 0.675900
vt 0.787840 0.192770
vt 0.885380 0.136450
vt 0.820350 0.136450
vt 0.885380 0.249090
vt 0.917890 0.192770
vt 0.820350 0.249090
vn 0.5048 0.6035 0.6172
vn 0.7412 0.6693 0.0516
vn 0.9380 0.3394 0.0708
vn 0.0000 0.9878 0.1560
vn -0.0000 0.9580 0.2867
vn 0.7875 0.5967 -0.1541
vn 0.7774 0.6269 0.0517
vn 0.5703 0.6087 0.5515
vn -0.0000 0.2575 0.9663
vn 0.5337 -0.1596 0.8305
vn 0.9246 0.1392 0.3547
vn 0.8405 0.4715 -0.2670
vn 0.6745 0.7329 0.0890
vn 0.4235 0.8963 0.1311
vn 0.0000 1.0000 0.0093
vn 0.4049 0.6945 -0.5947
vn 0.0000 0.3582 -0.9337
vn 0.5108 -0.2371 -0.8264
vn 0.0000 0.1740 -0.9847
vn 0.8953 -0.2672 -0.3564
vn 1.0000 0.0000 -0.0000
vn -0.6055 0.5515 0.5737
vn -0.9380 0.3394 0.0708
vn -0.3491 0.9210 -0.1732
vn -0.6245 0.7720 -0.1184
vn -0.5665 0.8240 -0.0109
vn -0.5337 -0.1596 0.8305
vn -0.9246 0.1392 0.3547
vn -0.9301 0.3368 -0.1466
vn -0.8252 0.5181 -0.2249
vn -0.7322 0.6809 -0.0133
vn -0.7411 0.4445 -0.5032
vn -0.5108 -0.2371 -0.8264
vn -0.8953 -0.2672 -0.3564
vn -1.0000 -0.0000 -0.0000
usemtl None
s 1
f 1/1/1 2/2/2 3/3/3
f 2/4/2 4/5/4 5/6/5
f 4/5/4 2/4/2 1/7/1
f 2/2/2 6/8/6 3/3/3
f 2/4/2 7/9/7 6/10/6
f 7/9/7 5/6/5 8/11/8
f 5/6/5 7/9/7 2/4/2
f 9/12/9 7/13/7 8/14/8
f 7/13/7 9/12/9 10/15/10
f 11/16/11 7/17/7 10/18/10
f 7/17/7 11/16/11 6/8/6
f 11/16/11 3/3/3 6/8/6
f 1/1/1 12/19/12 13/20/13
f 12/19/12 1/1/1 3/3/3
f 1/7/1 13/21/13 14/22/14
f 4/5/4 14/22/14 15/23/15
f 14/22/14 4/5/4 1/7/1
f 14/24/14 12/19/12 16/25/16
f 12/19/12 14/24/14 13/20/13
f 14/26/14 17/27/17 15/28/15
f 17/27/17 14/26/14 16/29/16
f 17/27/17 18/30/18 19/31/19
f 18/30/18 17/27/17 16/29/16
f 20/32/20 16/33/16 12/34/12
f 16/33/16 20/32/20 18/35/18
f 3/3/3 20/36/20 12/19/12
f 20/36/20 3/3/3 11/16/11
f 21/37/21 22/38/21 23/39/21
f 22/38/21 24/40/21 25/41/21
f 21/37/21 24/40/21 22/38/21
f 26/42/21 24/40/21 21/37/21
f 27/43/21 28/44/21 29/45/21
f 28/44/21 30/46/21 31/47/21
f 27/43/21 30/46/21 28/44/21
f 32/48/21 30/46/21 27/43/21
f 33/49/22 34/50/23 35/51/24
f 35/52/24 4/5/4 33/53/22
f 4/5/4 35/52/24 5/6/5
f 35/51/24 34/50/23 36/54/25
f 35/52/24 36/55/25 37/56/26
f 37/56/26 5/6/5 35/52/24
f 5/6/5 37/56/26 8/11/8
f 9/12/9 37/57/26 38/58/27
f 37/57/26 9/12/9 8/14/8
f 39/59/28 37/60/26 36/54/25
f 37/60/26 39/59/28 38/61/27
f 39/59/28 36/54/25 34/50/23
f 33/49/22 40/62/29 34/50/23
f 40/62/29 33/49/22 41/63/30
f 33/53/22 42/64/31 41/65/30
f 4/5/4 42/64/31 33/53/22
f 42/64/31 4/5/4 15/23/15
f 42/66/31 40/62/29 41/63/30
f 40/62/29 42/66/31 43/67/32
f 42/68/31 17/27/17 43/69/32
f 17/27/17 42/68/31 15/28/15
f 17/27/17 44/70/33 43/69/32
f 44/70/33 17/27/17 19/31/19
f 45/71/34 43/72/32 44/73/33
f 43/72/32 45/71/34 40/74/29
f 34/50/23 45/75/34 39/59/28
f 45/75/34 34/50/23 40/62/29
f 46/76/35 47/77/35 48/78/35
f 47/77/35 49/79/35 50/80/35
f 46/76/35 49/79/35 47/77/35
f 51/81/35 49/79/35 46/76/35
f 52/82/35 53/83/35 54/84/35
f 53/83/35 55/85/35 56/86/35
f 52/82/35 55/85/35 53/83/35
f 57/87/35 55/85/35 52/82/35
