# Blender v2.79 (sub 0) OBJ File: 'sunday-cars.blend'
# www.blender.org
mtllib Renault Laguna I_LOD.mtl
o Renault_Laguna_I_LOD_renault_laguna_i_lod
v 0.000000 1.348411 0.240664
v 0.558501 1.399515 -0.422807
v 0.000000 1.430758 -0.431807
v 0.600501 1.316776 0.189313
v 0.753279 0.943099 0.934686
v 0.000000 0.955961 1.170980
v 0.583785 1.333964 -1.083760
v 0.000000 1.367147 -1.106462
v 0.677012 0.755781 1.957061
v 0.000000 0.745194 2.107604
v 0.707117 0.554555 2.109827
v 0.000000 0.552259 2.248866
v 0.690650 0.233227 2.100518
v 0.000000 0.231383 2.221816
v 0.887573 0.719626 1.312478
v 0.869768 0.234364 1.675286
v 0.889112 0.251438 -0.219842
v 0.896324 0.780670 -0.261421
v 0.661900 0.989705 -2.105760
v 0.000000 1.027227 -2.191433
v 0.000000 0.323804 -2.219999
v 0.737579 0.321391 -2.128230
v 0.879545 0.812356 -1.399404
v 0.850137 0.301164 -1.716392
v 0.777008 1.002258 -1.393593
v -0.558501 1.399515 -0.422807
v -0.600501 1.316776 0.189313
v -0.753279 0.943099 0.934686
v -0.583785 1.333964 -1.083760
v -0.677012 0.755781 1.957061
v -0.707117 0.554555 2.109827
v -0.690650 0.233227 2.100518
v -0.887573 0.719626 1.312478
v -0.869768 0.234364 1.675286
v -0.889112 0.251438 -0.219842
v -0.896324 0.780670 -0.261421
v -0.661900 0.989705 -2.105760
v -0.737579 0.321391 -2.128230
v -0.879545 0.812356 -1.399404
v -0.850137 0.301164 -1.716392
v -0.777008 1.002258 -1.393593
vt 0.534340 0.390150
vt 0.396500 0.267560
vt 0.389860 0.384620
vt 0.528370 0.263790
vt 0.689790 0.234970
vt 0.734210 0.397800
vt 0.254720 0.256820
vt 0.244920 0.379070
vt 0.908800 0.259380
vt 0.935440 0.405510
vt 0.015560 0.935530
vt 0.173960 0.977210
vt 0.173960 0.935020
vt 0.022300 0.979530
vt 0.019250 0.865260
vt 0.173960 0.864860
vt 0.773240 0.129810
vt 0.692200 0.182500
vt 0.922190 0.160040
vt 0.959710 0.118150
vt 0.867380 0.036000
vt 0.968590 0.054090
vt 0.457900 0.020340
vt 0.432100 0.126910
vt 0.035800 0.232030
vt 0.011820 0.370140
vt 0.824000 0.824160
vt 0.965040 0.962660
vt 0.981170 0.823660
vt 0.824000 0.970470
vt 0.187080 0.124150
vt 0.136330 0.019700
vt 0.041240 0.171120
vt 0.053120 0.029030
vt 0.187940 0.171030
vt 0.387090 0.501820
vt 0.518240 0.515660
vt 0.677100 0.553830
vt 0.244870 0.501680
vt 0.897390 0.546250
vt 0.332370 0.935530
vt 0.325630 0.979530
vt 0.328680 0.865260
vt 0.751610 0.667960
vt 0.902530 0.649210
vt 0.675050 0.609230
vt 0.936570 0.693840
vt 0.837930 0.768680
vt 0.940280 0.758380
vt 0.428450 0.752980
vt 0.411290 0.644760
vt 0.024650 0.509650
vt 0.682970 0.962660
vt 0.666840 0.823660
vt 0.166790 0.628770
vt 0.107820 0.729020
vt 0.025180 0.570800
vt 0.025610 0.713360
vt 0.171420 0.582110
vn -0.0000 0.9920 0.1259
vn 0.0579 0.9982 0.0166
vn -0.0000 0.9999 0.0120
vn 0.0629 0.9902 0.1246
vn 0.1007 0.9445 0.3127
vn -0.0000 0.9107 0.4131
vn 0.0000 0.9607 0.2775
vn 0.0794 0.8978 0.4331
vn 0.0588 0.9938 -0.0949
vn 0.0000 0.9956 -0.0939
vn 0.0506 0.9774 0.2053
vn -0.0000 0.9756 0.2195
vn 0.1877 0.3072 0.9330
vn -0.0000 0.5969 0.8023
vn -0.0000 0.2650 0.9643
vn 0.1625 0.6119 0.7740
vn 0.1876 -0.0501 0.9810
vn 0.0000 -0.0840 0.9965
vn 0.9212 0.3685 0.1248
vn 0.8291 0.5570 0.0475
vn 0.8781 0.3987 0.2645
vn 0.9403 0.1335 0.3132
vn 0.9765 0.0572 0.2077
vn 0.9201 -0.0584 0.3874
vn 0.9998 -0.0189 -0.0055
vn 0.9588 0.2839 0.0083
vn 0.0845 0.9494 -0.3026
vn -0.0000 0.9510 -0.3092
vn 0.0660 0.9471 -0.3140
vn -0.0000 0.9543 -0.2990
vn -0.0000 0.0441 -0.9990
vn 0.1269 0.0439 -0.9909
vn 0.1235 0.0473 -0.9912
vn -0.0000 0.0406 -0.9992
vn 0.9671 0.2353 -0.0962
vn 0.9808 0.0625 -0.1849
vn 0.9373 0.2632 -0.2284
vn 0.9594 0.1173 -0.2565
vn 0.8489 0.5215 -0.0855
vn 0.8530 0.5209 -0.0312
vn 0.9081 0.4182 0.0208
vn 0.9098 0.4149 -0.0063
vn -0.0579 0.9982 0.0166
vn -0.0632 0.9896 0.1294
vn -0.1007 0.9445 0.3127
vn -0.0843 0.8976 0.4327
vn -0.0588 0.9938 -0.0949
vn -0.0506 0.9774 0.2053
vn -0.1877 0.3072 0.9330
vn -0.1625 0.6119 0.7740
vn -0.1876 -0.0501 0.9810
vn -0.9212 0.3685 0.1248
vn -0.8781 0.3987 0.2645
vn -0.8291 0.5570 0.0475
vn -0.9403 0.1335 0.3132
vn -0.9765 0.0572 0.2077
vn -0.9201 -0.0584 0.3874
vn -0.9998 -0.0189 -0.0055
vn -0.9588 0.2839 0.0083
vn -0.0845 0.9494 -0.3026
vn -0.0660 0.9471 -0.3140
vn -0.1269 0.0439 -0.9909
vn -0.1235 0.0473 -0.9912
vn -0.9671 0.2353 -0.0962
vn -0.9808 0.0625 -0.1849
vn -0.9373 0.2632 -0.2284
vn -0.9594 0.1173 -0.2565
vn -0.8489 0.5215 -0.0855
vn -0.8530 0.5209 -0.0312
vn -0.9072 0.4204 0.0164
vn -0.9098 0.4149 -0.0063
usemtl Renault_Laguna_I_LOD
s 1
f 1/1/1 2/2/2 3/3/3
f 2/2/2 1/1/1 4/4/4
f 5/5/5 1/1/6 6/6/7
f 1/1/6 5/5/5 4/4/8
f 3/3/3 7/7/9 8/8/10
f 7/7/9 3/3/3 2/2/2
f 6/6/7 9/9/11 5/5/5
f 9/9/11 6/6/7 10/10/12
f 11/11/13 10/12/14 12/13/15
f 10/12/14 11/11/13 9/14/16
f 12/13/15 13/15/17 11/11/13
f 13/15/17 12/13/15 14/16/18
f 15/17/19 5/18/20 9/19/21
f 15/17/19 9/19/21 11/20/22
f 11/20/22 16/21/23 15/17/19
f 16/21/23 11/20/22 13/22/24
f 17/23/25 15/17/19 16/21/23
f 17/23/25 18/24/26 15/17/19
f 19/25/27 8/8/28 7/7/29
f 8/8/28 19/25/27 20/26/30
f 21/27/31 19/28/32 22/29/33
f 19/28/32 21/27/31 20/30/34
f 23/31/35 17/23/25 24/32/36
f 23/31/35 18/24/26 17/23/25
f 24/32/36 19/33/37 23/31/35
f 19/33/37 24/32/36 22/34/38
f 19/33/37 25/35/39 23/31/35
f 7/7/40 25/35/39 19/33/37
f 5/18/20 15/17/19 18/24/26
f 25/35/39 18/24/26 23/31/35
f 25/35/39 5/18/20 18/24/26
f 4/4/41 25/35/39 7/7/40
f 25/35/39 4/4/41 5/18/20
f 4/4/41 7/7/40 2/2/42
f 1/1/1 26/36/43 27/37/44
f 26/36/43 1/1/1 3/3/3
f 28/38/45 1/1/6 27/37/46
f 1/1/6 28/38/45 6/6/7
f 3/3/3 29/39/47 26/36/43
f 29/39/47 3/3/3 8/8/10
f 6/6/7 30/40/48 10/10/12
f 30/40/48 6/6/7 28/38/45
f 31/41/49 10/12/14 30/42/50
f 10/12/14 31/41/49 12/13/15
f 12/13/15 32/43/51 14/16/18
f 32/43/51 12/13/15 31/41/49
f 33/44/52 30/45/53 28/46/54
f 33/44/52 31/47/55 30/45/53
f 31/47/55 33/44/52 34/48/56
f 34/48/56 32/49/57 31/47/55
f 35/50/58 34/48/56 33/44/52
f 35/50/58 33/44/52 36/51/59
f 37/52/60 8/8/28 20/26/30
f 8/8/28 37/52/60 29/39/61
f 21/27/31 37/53/62 20/30/34
f 37/53/62 21/27/31 38/54/63
f 39/55/64 40/56/65 35/50/58
f 39/55/64 35/50/58 36/51/59
f 40/56/65 37/57/66 38/58/67
f 37/57/66 40/56/65 39/55/64
f 37/57/66 39/55/64 41/59/68
f 29/39/69 37/57/66 41/59/68
f 28/46/54 36/51/59 33/44/52
f 41/59/68 39/55/64 36/51/59
f 41/59/68 36/51/59 28/46/54
f 27/37/70 41/59/68 28/46/54
f 41/59/68 27/37/70 29/39/69
f 27/37/70 26/36/71 29/39/69
