# Blender v2.79 (sub 0) OBJ File: ''
# www.blender.org
mtllib Renault Laguna I_LOD.mtl
o renault_laguna_I_LOD_0
v 0.000000 1.348411 0.240664
v 0.558501 1.399515 -0.422807
v 0.000000 1.430758 -0.431807
v 0.600501 1.316776 0.189313
v 0.753279 0.943099 0.934686
v 0.000000 0.955961 1.170980
v 0.583785 1.333964 -1.083760
v 0.000000 1.367147 -1.106462
v 0.677012 0.755781 1.957061
v 0.000000 0.745194 2.107604
v 0.707117 0.554555 2.109827
v 0.000000 0.552259 2.248866
v 0.690650 0.233227 2.100518
v 0.000000 0.231383 2.221816
v 0.887573 0.719626 1.312478
v 0.869768 0.234364 1.675286
v 0.889112 0.251438 -0.219842
v 0.896324 0.780670 -0.261421
v 0.661900 0.989705 -2.105760
v 0.000000 1.027227 -2.191433
v 0.000000 0.323804 -2.219999
v 0.737579 0.321391 -2.128230
v 0.879545 0.812356 -1.399404
v 0.850137 0.301164 -1.716392
v 0.777008 1.002258 -1.393593
v 0.887668 0.465000 1.583544
v 0.887668 0.465000 1.046609
v 0.887668 0.620000 1.315077
v 0.887668 -0.000000 1.315076
v 0.887668 0.155000 1.046609
v 0.887668 0.155000 1.583544
v 0.875572 0.465000 -1.092243
v 0.875572 0.465000 -1.629179
v 0.875572 0.620000 -1.360711
v 0.875572 0.000000 -1.360711
v 0.875572 0.155000 -1.629179
v 0.875572 0.155000 -1.092243
v -0.558501 1.399515 -0.422807
v -0.600501 1.316776 0.189313
v -0.753279 0.943099 0.934686
v -0.583785 1.333964 -1.083760
v -0.677012 0.755781 1.957061
v -0.707117 0.554555 2.109827
v -0.690650 0.233227 2.100518
v -0.887573 0.719626 1.312478
v -0.869768 0.234364 1.675286
v -0.889112 0.251438 -0.219842
v -0.896324 0.780670 -0.261421
v -0.661900 0.989705 -2.105760
v -0.737579 0.321391 -2.128230
v -0.879545 0.812356 -1.399404
v -0.850137 0.301164 -1.716392
v -0.777008 1.002258 -1.393593
v -0.887668 -0.000000 1.315076
v -0.887668 0.465000 1.046609
v -0.887668 0.155000 1.046609
v -0.887668 0.465000 1.583544
v -0.887668 0.620000 1.315077
v -0.887668 0.155000 1.583544
v -0.875572 0.000000 -1.360711
v -0.875572 0.465000 -1.629179
v -0.875572 0.155000 -1.629179
v -0.875572 0.465000 -1.092243
v -0.875572 0.620000 -1.360711
v -0.875572 0.155000 -1.092243
vt 0.534340 0.390150
vt 0.396500 0.267560
vt 0.389860 0.384620
vt 0.528370 0.263790
vt 0.689790 0.234970
vt 0.734210 0.397800
vt 0.254720 0.256820
vt 0.244920 0.379070
vt 0.908800 0.259380
vt 0.935440 0.405510
vt 0.015560 0.935530
vt 0.173960 0.977210
vt 0.173960 0.935020
vt 0.022300 0.979530
vt 0.019250 0.865260
vt 0.173960 0.864860
vt 0.773240 0.129810
vt 0.692200 0.182500
vt 0.922190 0.160040
vt 0.959710 0.118150
vt 0.867380 0.036000
vt 0.968590 0.054090
vt 0.457900 0.020340
vt 0.432100 0.126910
vt 0.035800 0.232030
vt 0.011820 0.370140
vt 0.824000 0.824160
vt 0.965040 0.962660
vt 0.981170 0.823660
vt 0.824000 0.970470
vt 0.187080 0.124150
vt 0.136330 0.019700
vt 0.041240 0.171120
vt 0.053120 0.029030
vt 0.187940 0.171030
vt 0.540770 0.774390
vt 0.540770 0.876890
vt 0.570360 0.825640
vt 0.452010 0.825640
vt 0.481600 0.876890
vt 0.481600 0.774390
vt 0.620030 0.875060
vt 0.620030 0.977550
vt 0.649620 0.926310
vt 0.531260 0.926310
vt 0.560850 0.977550
vt 0.560850 0.875060
vt 0.387090 0.501820
vt 0.518240 0.515660
vt 0.677100 0.553830
vt 0.244870 0.501680
vt 0.897390 0.546250
vt 0.332370 0.935530
vt 0.325630 0.979530
vt 0.328680 0.865260
vt 0.751610 0.667960
vt 0.902530 0.649210
vt 0.675050 0.609230
vt 0.936570 0.693840
vt 0.837930 0.768680
vt 0.940280 0.758380
vt 0.428450 0.752980
vt 0.411290 0.644760
vt 0.024650 0.509650
vt 0.682970 0.962660
vt 0.666840 0.823660
vt 0.166790 0.628770
vt 0.107820 0.729020
vt 0.025180 0.570800
vt 0.025610 0.713360
vt 0.171420 0.582110
vt 0.365790 0.925140
vt 0.454560 0.873890
vt 0.395380 0.873890
vt 0.454560 0.976390
vt 0.484140 0.925140
vt 0.395380 0.976390
vt 0.026690 0.797980
vt 0.115460 0.746730
vt 0.056280 0.746730
vt 0.115460 0.849230
vt 0.145050 0.797980
vt 0.056280 0.849230
vn -0.0000 0.9604 0.2786
vn 0.5359 0.8443 0.0068
vn 0.0000 0.9999 0.0120
vn 0.5361 0.8238 0.1846
vn 0.5582 0.8091 0.1839
vn 0.0000 0.9607 0.2775
vn 0.4993 0.8552 -0.1388
vn 0.0000 0.9789 -0.2046
vn 0.4921 0.7484 0.4447
vn -0.0000 0.8154 0.5788
vn 0.6172 0.2606 0.7424
vn -0.0000 0.2650 0.9643
vn 0.6223 -0.0614 0.7804
vn 0.0000 -0.0840 0.9965
vn 0.9212 0.3685 0.1248
vn 0.9765 0.0572 0.2077
vn 0.9998 -0.0189 -0.0055
vn 0.9588 0.2839 0.0083
vn 0.5427 0.5235 -0.6568
vn -0.0000 0.5992 -0.8006
vn 0.0000 0.0441 -0.9990
vn 0.6773 0.1012 -0.7287
vn 0.9671 0.2353 -0.0962
vn 0.9808 0.0625 -0.1849
vn 0.8489 0.5215 -0.0855
vn 1.0000 -0.0000 0.0000
vn -0.5359 0.8443 0.0068
vn -0.5361 0.8225 0.1901
vn -0.5582 0.8091 0.1839
vn -0.4993 0.8552 -0.1388
vn -0.4921 0.7484 0.4447
vn -0.6172 0.2606 0.7424
vn -0.6223 -0.0614 0.7804
vn -0.9212 0.3685 0.1248
vn -0.9765 0.0572 0.2077
vn -0.9998 -0.0189 -0.0055
vn -0.9588 0.2839 0.0083
vn -0.5427 0.5235 -0.6568
vn -0.6773 0.1012 -0.7287
vn -0.9671 0.2353 -0.0962
vn -0.9808 0.0625 -0.1849
vn -0.8489 0.5215 -0.0855
vn -1.0000 -0.0000 -0.0000
usemtl None
s 1
f 1/1/1 2/2/2 3/3/3
f 2/2/2 1/1/1 4/4/4
f 5/5/5 1/1/1 6/6/6
f 1/1/1 5/5/5 4/4/4
f 3/3/3 7/7/7 8/8/8
f 7/7/7 3/3/3 2/2/2
f 6/6/6 9/9/9 5/5/5
f 9/9/9 6/6/6 10/10/10
f 11/11/11 10/12/10 12/13/12
f 10/12/10 11/11/11 9/14/9
f 12/13/12 13/15/13 11/11/11
f 13/15/13 12/13/12 14/16/14
f 15/17/15 5/18/5 9/19/9
f 15/17/15 9/19/9 11/20/11
f 11/20/11 16/21/16 15/17/15
f 16/21/16 11/20/11 13/22/13
f 17/23/17 15/17/15 16/21/16
f 17/23/17 18/24/18 15/17/15
f 19/25/19 8/8/8 7/7/7
f 8/8/8 19/25/19 20/26/20
f 21/27/21 19/28/19 22/29/22
f 19/28/19 21/27/21 20/30/20
f 23/31/23 17/23/17 24/32/24
f 23/31/23 18/24/18 17/23/17
f 24/32/24 19/33/19 23/31/23
f 19/33/19 24/32/24 22/34/22
f 19/33/19 25/35/25 23/31/23
f 7/7/7 25/35/25 19/33/19
f 5/18/5 15/17/15 18/24/18
f 25/35/25 18/24/18 23/31/23
f 25/35/25 5/18/5 18/24/18
f 4/4/4 25/35/25 7/7/7
f 25/35/25 4/4/4 5/18/5
f 4/4/4 7/7/7 2/2/2
f 26/36/26 27/37/26 28/38/26
f 27/37/26 29/39/26 30/40/26
f 26/36/26 29/39/26 27/37/26
f 31/41/26 29/39/26 26/36/26
f 32/42/26 33/43/26 34/44/26
f 33/43/26 35/45/26 36/46/26
f 32/42/26 35/45/26 33/43/26
f 37/47/26 35/45/26 32/42/26
f 1/1/1 38/48/27 39/49/28
f 38/48/27 1/1/1 3/3/3
f 40/50/29 1/1/1 39/49/28
f 1/1/1 40/50/29 6/6/6
f 3/3/3 41/51/30 38/48/27
f 41/51/30 3/3/3 8/8/8
f 6/6/6 42/52/31 10/10/10
f 42/52/31 6/6/6 40/50/29
f 43/53/32 10/12/10 42/54/31
f 10/12/10 43/53/32 12/13/12
f 12/13/12 44/55/33 14/16/14
f 44/55/33 12/13/12 43/53/32
f 45/56/34 42/57/31 40/58/29
f 45/56/34 43/59/32 42/57/31
f 43/59/32 45/56/34 46/60/35
f 46/60/35 44/61/33 43/59/32
f 47/62/36 46/60/35 45/56/34
f 47/62/36 45/56/34 48/63/37
f 49/64/38 8/8/8 20/26/20
f 8/8/8 49/64/38 41/51/30
f 21/27/21 49/65/38 20/30/20
f 49/65/38 21/27/21 50/66/39
f 51/67/40 52/68/41 47/62/36
f 51/67/40 47/62/36 48/63/37
f 52/68/41 49/69/38 50/70/39
f 49/69/38 52/68/41 51/67/40
f 49/69/38 51/67/40 53/71/42
f 41/51/30 49/69/38 53/71/42
f 40/58/29 48/63/37 45/56/34
f 53/71/42 51/67/40 48/63/37
f 53/71/42 48/63/37 40/58/29
f 39/49/28 53/71/42 40/58/29
f 53/71/42 39/49/28 41/51/30
f 39/49/28 38/48/27 41/51/30
f 54/72/43 55/73/43 56/74/43
f 55/73/43 57/75/43 58/76/43
f 54/72/43 57/75/43 55/73/43
f 59/77/43 57/75/43 54/72/43
f 60/78/43 61/79/43 62/80/43
f 61/79/43 63/81/43 64/82/43
f 60/78/43 63/81/43 61/79/43
f 65/83/43 63/81/43 60/78/43
