# Blender v2.79 (sub 0) OBJ File: ''
# www.blender.org
mtllib untitled.mtl
o Traffic_Sign_Cube.000_0
v 0.086256 2.325000 0.051035
v 0.056256 2.325000 0.051035
v 0.056256 2.332098 -0.096737
v 0.086256 2.332098 -0.096737
v 0.056256 2.395206 -0.230545
v 0.086256 2.395206 -0.230545
v 0.056256 2.395206 -0.230545
v 0.056256 2.504716 -0.330016
v 0.086256 2.504716 -0.330016
v 0.056256 2.643956 -0.380009
v 0.086256 2.643956 -0.380009
v 0.056256 2.791728 -0.372911
v 0.086256 2.791728 -0.372911
v 0.056256 2.925536 -0.309803
v 0.086256 2.925536 -0.309803
v 0.056256 2.925536 -0.309803
v 0.056256 3.025008 -0.200293
v 0.086256 3.025008 -0.200293
v 0.056256 3.075000 -0.061053
v 0.086256 3.075000 -0.061053
v 0.056256 3.067902 0.086720
v 0.086256 3.067902 0.086720
v 0.056256 3.004795 0.220527
v 0.086256 3.004795 0.220527
v 0.056256 3.004795 0.220527
v 0.056256 2.895285 0.319999
v 0.086256 2.895285 0.319999
v 0.056256 2.756044 0.369991
v 0.086256 2.756044 0.369991
v 0.056256 2.608272 0.362893
v 0.056256 2.474464 0.299786
v 0.086256 2.474464 0.299786
v 0.086256 3.004795 0.220527
v 0.086256 2.895285 0.319999
v 0.086256 2.925536 -0.309803
v 0.086256 2.474464 0.299786
v 0.056256 2.474464 0.299786
v 0.056256 2.374993 0.190275
v 0.086256 2.374993 0.190275
v 0.056256 3.004795 0.220527
v 0.056256 2.925536 -0.309803
v 0.056256 2.895285 0.319999
v -0.030779 2.922100 0.036049
v -0.030779 2.877899 0.036049
v -0.003858 2.877899 0.050919
v -0.003858 2.922100 0.050919
v 0.052663 2.877899 0.050186
v 0.052663 2.922100 -0.050185
v 0.052663 2.877899 -0.050185
v -0.003858 2.877899 -0.050918
v -0.030779 2.922100 -0.036048
v -0.030779 2.877899 -0.036048
v -0.045633 2.877899 0.000001
v -0.003858 2.922100 -0.050918
v -0.003858 2.877899 -0.050918
v -0.030779 2.877899 -0.036048
v -0.045633 2.922100 0.000001
v -0.030779 2.877899 0.036049
v -0.030779 2.472100 0.036049
v -0.030779 2.427899 0.036049
v -0.003858 2.427899 0.050919
v -0.003858 2.472100 0.050919
v 0.052663 2.427899 0.050186
v 0.052663 2.472100 -0.050185
v 0.052663 2.427899 -0.050185
v -0.003858 2.427899 -0.050918
v -0.030779 2.472100 -0.036048
v -0.030779 2.427899 -0.036048
v -0.045633 2.427899 0.000001
v -0.003858 2.472100 -0.050918
v -0.003858 2.427899 -0.050918
v -0.030779 2.427899 -0.036048
v -0.045633 2.472100 0.000001
v -0.030779 2.427899 0.036049
v 0.005683 3.000000 0.049624
v 0.005683 -0.750000 0.049623
v 0.041039 -0.750000 0.034979
v 0.041039 3.000000 0.034979
v 0.041039 -0.750000 0.034979
v 0.055683 -0.750000 -0.000377
v 0.055683 3.000000 -0.000376
v 0.041039 -0.750000 -0.035732
v 0.041039 -0.750000 -0.035732
v 0.005683 -0.750000 -0.050377
v 0.005683 3.000000 -0.050376
v -0.029672 -0.750000 -0.035732
v -0.029672 3.000000 -0.035731
v -0.044317 -0.750000 -0.000377
v -0.044317 3.000000 -0.000376
v 0.055683 3.000000 -0.000376
v 0.041039 3.000000 -0.035731
v -0.044317 3.000000 -0.000376
v -0.029672 -0.750000 0.034979
v -0.029672 3.000000 0.034979
v -0.029672 -0.750000 0.034979
v 0.086256 2.395206 -0.230545
v 0.086256 2.925536 -0.309803
v 0.086256 3.004795 0.220527
v 0.086256 2.608272 0.362893
v 0.086256 2.395206 -0.230545
v 0.086256 2.374993 0.190275
v 0.086256 2.332098 -0.096737
v 0.086256 2.325000 0.051035
v 0.086256 2.474464 0.299786
v 0.086256 2.504716 -0.330016
v 0.086256 2.608272 0.362893
v 0.086256 2.756044 0.369991
v 0.086256 2.791728 -0.372911
v 0.086256 3.025008 -0.200293
v 0.086256 3.067902 0.086720
v 0.086256 3.075000 -0.061053
v 0.086256 2.643956 -0.380009
v 0.056256 2.374993 0.190275
v 0.056256 2.332098 -0.096737
v 0.056256 2.325000 0.051035
v 0.056256 2.395206 -0.230545
v 0.056256 2.504716 -0.330016
v 0.056256 2.608272 0.362893
v 0.056256 2.643956 -0.380009
v 0.056256 2.791728 -0.372911
v 0.056256 3.025008 -0.200293
v 0.056256 3.067902 0.086720
v 0.056256 3.075000 -0.061053
v 0.056256 2.756044 0.369991
v 0.056256 2.474464 0.299786
v 0.052663 2.922100 0.050186
v -0.003858 2.922100 -0.050918
v -0.030779 2.922100 -0.036048
v -0.030779 2.922100 0.036049
v 0.052663 2.472100 0.050186
v -0.003858 2.472100 -0.050918
v -0.030779 2.472100 -0.036048
v -0.030779 2.472100 0.036049
v 0.041039 3.000000 0.034979
v 0.041039 3.000000 -0.035731
v 0.041039 3.000000 -0.035731
v 0.005683 3.000000 0.049624
v 0.041039 3.000000 0.034979
v -0.029672 3.000000 0.034979
v 0.005683 3.000000 -0.050376
v -0.029672 3.000000 -0.035731
v -0.029672 3.000000 0.034979
vt 0.990300 0.008510
vt 0.990300 0.991410
vt 0.980780 0.991410
vt 0.980780 0.008510
vt 0.485010 0.011510
vt 0.485010 0.070060
vt 0.260970 0.070060
vt 0.260970 0.011510
vt 0.709050 0.011510
vt 0.709050 0.070060
vt 0.922820 0.008510
vt 0.922820 0.991410
vt 0.913300 0.991410
vt 0.913300 0.008510
vt 0.204910 0.011510
vt 0.204910 0.070060
vt 0.014980 0.070060
vt 0.014980 0.011510
vt 0.932340 0.008510
vt 0.932340 0.991410
vt 0.889340 0.816370
vt 0.889340 0.982140
vt 0.801020 0.982140
vt 0.801020 0.816370
vt 0.428950 0.011510
vt 0.428950 0.070060
vt 0.652990 0.070060
vt 0.652990 0.011510
vt 0.652990 0.011510
vt 0.652990 0.070060
vt 0.428950 0.070060
vt 0.428950 0.011510
vt 0.961320 0.991410
vt 0.970840 0.991410
vt 0.970840 0.008510
vt 0.961320 0.008510
vt 0.942290 0.008510
vt 0.942290 0.991410
vt 0.951810 0.991410
vt 0.951800 0.008510
vt 0.889340 0.816370
vt 0.889340 0.982140
vt 0.801020 0.982140
vt 0.801020 0.816370
vt 0.805490 0.816370
vt 0.805490 0.982140
vt 0.764050 0.982140
vt 0.764050 0.816370
vt 0.805490 0.816370
vt 0.805490 0.982140
vt 0.764050 0.982140
vt 0.764050 0.816370
vt 0.748560 0.816370
vt 0.748560 0.982140
vt 0.801020 0.982140
vt 0.801020 0.816370
vt 0.846930 0.816370
vt 0.846930 0.982140
vt 0.748560 0.982140
vt 0.748560 0.816370
vt 0.932760 0.008510
vt 0.932760 0.991410
vt 0.710621 0.363646
vt 0.596567 0.260043
vt 0.451544 0.207979
vt 0.297634 0.215371
vt 0.158275 0.281097
vt 0.054673 0.395161
vt 0.002599 0.540174
vt 0.009990 0.694084
vt 0.075726 0.833453
vt 0.189780 0.937055
vt 0.334804 0.989119
vt 0.488714 0.981728
vt 0.628072 0.916002
vt 0.731675 0.801938
vt 0.783739 0.656924
vt 0.776347 0.503015
vt 0.709050 0.011510
vt 0.709050 0.070060
vt 0.898980 0.070060
vt 0.898980 0.011510
vt 0.204910 0.011510
vt 0.204910 0.070060
vt 0.014980 0.011510
vt 0.014980 0.070060
vt 0.071040 0.070060
vt 0.071040 0.011510
vt 0.748560 0.816370
vt 0.748560 0.982140
vt 0.801020 0.982140
vt 0.801020 0.816370
vt 0.971260 0.991410
vt 0.971260 0.008510
vt 0.842920 0.070060
vt 0.842920 0.011510
vt 0.846930 0.816370
vt 0.846930 0.982140
vt 0.071040 0.011510
vt 0.071040 0.070060
vt 0.260970 0.070060
vt 0.260970 0.011510
vt 0.748560 0.982140
vt 0.748560 0.816370
vt 0.898980 0.011510
vt 0.898980 0.070060
vt 0.485010 0.070060
vt 0.485010 0.011510
vt 0.842920 0.070060
vt 0.842920 0.011510
vt 0.687780 0.108470
vt 0.735910 0.085770
vt 0.789070 0.083210
vt 0.839160 0.101200
vt 0.878550 0.136980
vt 0.901250 0.185110
vt 0.903810 0.238270
vt 0.885820 0.288360
vt 0.850040 0.327750
vt 0.801910 0.350460
vt 0.748750 0.353010
vt 0.698660 0.335030
vt 0.659270 0.299240
vt 0.636570 0.251110
vt 0.634010 0.197950
vt 0.652000 0.147860
vt 0.748650 0.816370
vt 0.748650 0.982140
vt 0.836970 0.982140
vt 0.836970 0.816370
vt 0.883920 0.376390
vt 0.834220 0.355800
vt 0.784530 0.376390
vt 0.763940 0.426080
vt 0.784530 0.475780
vt 0.834220 0.496360
vt 0.883920 0.475780
vt 0.904500 0.426080
vt 0.748650 0.816370
vt 0.748650 0.982140
vt 0.836970 0.982140
vt 0.836970 0.816370
vn 0.7071 0.0000 -0.7071
vn 1.0000 0.0000 0.0000
vn 0.0000 -0.9890 0.1478
vn 0.0000 -0.8572 0.5150
vn 0.0000 -0.9703 -0.2419
vn -0.0000 -0.0000 1.0000
vn -0.7071 -0.0000 0.7071
vn 0.0000 0.5150 0.8572
vn -0.0000 0.8039 0.5948
vn 0.7071 0.0000 0.7071
vn 0.0130 -0.0000 0.9999
vn -0.2434 -0.0000 0.9699
vn 0.0000 -0.1478 -0.9890
vn 0.0000 -0.5150 -0.8572
vn 0.0000 -0.2419 0.9703
vn 0.0000 0.1478 0.9890
vn -0.0000 0.0000 -1.0000
vn -1.0000 -0.0000 0.0000
vn -0.7071 0.0000 -0.7071
vn -0.7462 -0.0000 -0.6657
vn -0.7462 0.0000 -0.6658
vn -0.2434 -0.0000 -0.9699
vn -0.7462 0.0000 0.6657
vn -0.7462 -0.0000 0.6658
vn 0.0000 0.8572 -0.5150
vn -0.0000 0.5948 -0.8039
vn 0.0000 0.2419 -0.9703
vn -0.0000 -0.5948 0.8039
vn -0.7462 0.0001 -0.6658
vn 0.0000 0.9703 0.2419
vn 0.0000 -0.8039 -0.5948
vn 0.0000 0.9890 -0.1478
vn -0.0001 -0.8039 -0.5948
vn -0.2434 0.0001 -0.9699
vn 0.0130 0.0000 -0.9999
vn 0.0000 1.0000 0.0000
usemtl None
s 1
f 82/1/1 135/2/1 81/3/2 80/4/2
f 2/5/3 1/6/3 39/7/4 38/8/4
f 3/9/5 4/10/5 1/6/3 2/5/3
f 76/11/6 75/12/6 94/13/7 95/14/7
f 26/15/8 27/16/8 24/17/9 25/18/9
f 77/19/10 134/20/10 75/12/6 76/11/6
f 63/21/11 130/22/11 62/23/12 61/24/12
f 10/25/13 11/26/13 9/27/14 8/28/14
f 30/29/15 99/30/15 29/31/16 28/32/16
f 85/33/17 136/34/1 83/35/1 84/36/17
f 88/37/18 92/38/18 87/39/19 86/40/19
f 47/41/11 126/42/11 46/43/12 45/44/12
f 69/45/18 73/46/18 67/47/20 68/48/20
f 53/49/18 57/50/18 51/51/20 52/52/20
f 56/53/21 128/54/21 54/55/22 55/56/22
f 58/57/23 129/58/23 57/50/18 53/49/18
f 45/44/12 46/43/12 43/59/24 44/60/24
f 93/61/7 142/62/7 92/38/18 88/37/18
f 104/63/2 101/64/2 103/65/2 102/66/2 100/67/2 105/68/2 112/69/2 108/70/2 35/71/2 109/72/2 111/73/2 110/74/2 33/75/2 34/76/2 107/77/2 106/78/2
f 17/79/25 18/80/25 15/81/26 16/82/26
f 86/40/19 87/39/19 85/33/17 84/36/17
f 12/83/27 13/84/27 11/26/13 10/25/13
f 14/85/26 97/86/26 13/84/27 12/83/27
f 38/8/4 39/7/4 36/87/28 37/88/28
f 72/89/21 132/90/29 70/91/22 71/92/22
f 80/4/2 81/3/2 78/93/10 79/94/10
f 32/95/28 99/30/15 30/29/15 31/96/28
f 74/97/23 133/98/23 73/46/18 69/45/18
f 23/99/9 98/100/9 22/101/30 21/102/30
f 61/24/12 62/23/12 59/103/24 60/104/24
f 5/105/31 96/106/31 4/10/5 3/9/5
f 21/102/30 22/101/30 20/107/32 19/108/32
f 8/28/14 9/27/14 6/109/31 7/110/33
f 19/108/32 20/107/32 18/80/25 17/79/25
f 116/111/18 114/112/18 115/113/18 113/114/18 125/115/18 118/116/18 124/117/18 42/118/18 40/119/18 122/120/18 123/121/18 121/122/18 41/123/18 120/124/18 119/125/18 117/126/18
f 28/32/16 29/31/16 27/16/8 26/15/8
f 50/127/22 127/128/34 48/129/35 49/130/35
f 91/131/36 140/132/36 141/133/36 89/134/36 139/135/36 137/136/36 138/137/36 90/138/36
f 66/139/22 131/140/22 64/141/35 65/142/35
