# Blender v2.79 (sub 0) OBJ File: 'sunday-cars.blend'
# www.blender.org
mtllib Citroen C1_LOD.mtl
o Citroen_C1_LOD_citroen_c1_lod
v 0.000000 1.375044 0.302625
v 0.482990 1.445953 -0.338007
v 0.000000 1.465881 -0.362457
v 0.547572 1.360852 0.276399
v 0.477997 1.364691 -1.132259
v 0.000000 1.386199 -1.183266
v 0.695346 0.830266 1.357221
v 0.000000 0.833776 1.578098
v 0.000000 0.851987 -1.470517
v 0.681604 0.854100 -1.356544
v 0.000000 0.275913 -1.543720
v 0.730176 0.288010 -1.476624
v 0.743979 0.948293 -0.386984
v 0.731000 0.213018 -0.363920
v 0.721531 0.587547 1.550109
v 0.000000 0.628822 1.777545
v 0.720591 0.211494 1.602442
v 0.000000 0.208187 1.826795
v -0.482990 1.445953 -0.338007
v -0.547572 1.360852 0.276399
v -0.477997 1.364691 -1.132259
v -0.695346 0.830266 1.357221
v -0.681604 0.854100 -1.356544
v -0.730176 0.288010 -1.476624
v -0.743979 0.948293 -0.386984
v -0.731000 0.213018 -0.363920
v -0.721531 0.587547 1.550109
v -0.720591 0.211494 1.602442
vt 0.274510 0.440340
vt 0.412390 0.528610
vt 0.409820 0.429960
vt 0.288390 0.551340
vt 0.573910 0.515200
vt 0.576830 0.417150
vt 0.070790 0.598280
vt 0.015000 0.460260
vt 0.761450 0.432880
vt 0.858990 0.537510
vt 0.900530 0.433320
vt 0.761450 0.541890
vt 0.761450 0.315330
vt 0.910450 0.317800
vt 0.231990 0.153700
vt 0.365680 0.249330
vt 0.588660 0.141840
vt 0.240380 0.267840
vt 0.079190 0.249590
vt 0.035640 0.136550
vt 0.242280 0.015000
vt 0.015000 0.024870
vt 0.690530 0.092410
vt 0.837770 0.142660
vt 0.837770 0.100830
vt 0.695880 0.141940
vt 0.690720 0.015670
vt 0.837770 0.015000
vt 0.629560 0.094530
vt 0.643040 0.023330
vt 0.397310 0.332070
vt 0.271300 0.328530
vt 0.558990 0.320690
vt 0.049080 0.315330
vt 0.663910 0.537510
vt 0.622360 0.433320
vt 0.612450 0.317800
vt 0.430630 0.772120
vt 0.073760 0.773590
vt 0.300600 0.872680
vt 0.426510 0.886490
vt 0.586900 0.862240
vt 0.626200 0.747650
vt 0.415170 0.633900
vt 0.642650 0.635280
vt 0.985000 0.092410
vt 0.979660 0.141940
vt 0.984810 0.015670
vt 0.031130 0.727850
vt 0.015000 0.657200
vn 0.0000 0.9909 0.1345
vn 0.0395 0.9989 0.0242
vn 0.0000 0.9999 0.0139
vn 0.0321 0.9905 0.1338
vn 0.0521 0.9938 -0.0983
vn 0.0000 0.9953 -0.0966
vn 0.1738 0.7993 0.5753
vn -0.0000 0.9071 0.4210
vn 0.0000 0.8017 0.5977
vn 0.0442 0.8992 0.4354
vn -0.0000 0.2929 -0.9562
vn 0.1315 0.4576 -0.8794
vn 0.1325 0.2992 -0.9450
vn -0.0000 0.4736 -0.8807
vn 0.0000 0.1658 -0.9862
vn 0.0859 0.2138 -0.9731
vn 0.9758 0.2185 0.0081
vn 0.9199 0.3911 0.0291
vn 0.9845 0.1712 0.0390
vn 0.8841 0.4664 -0.0283
vn 0.9697 0.2345 -0.0684
vn 0.9008 0.4261 -0.0834
vn 0.8822 0.4679 -0.0534
vn 0.9816 0.1845 -0.0494
vn 0.9991 0.0163 -0.0392
vn 0.9964 0.0844 0.0050
vn 0.2444 0.6326 0.7349
vn 0.2569 0.6740 0.6926
vn -0.0000 0.1225 0.9925
vn 0.3017 0.1243 0.9453
vn 0.3048 0.1305 0.9434
vn -0.0000 0.1163 0.9932
vn 0.9993 0.0341 0.0145
vn 0.9998 -0.0155 0.0080
vn 1.0000 -0.0018 0.0053
vn -0.0395 0.9989 0.0242
vn -0.0321 0.9905 0.1338
vn -0.0521 0.9938 -0.0983
vn -0.1738 0.7993 0.5753
vn -0.0442 0.8992 0.4354
vn -0.1315 0.4576 -0.8794
vn -0.1325 0.2992 -0.9450
vn -0.0859 0.2138 -0.9731
vn -0.9758 0.2185 0.0081
vn -0.9845 0.1712 0.0390
vn -0.9199 0.3911 0.0291
vn -0.8841 0.4664 -0.0283
vn -0.9697 0.2345 -0.0684
vn -0.9008 0.4261 -0.0834
vn -0.9816 0.1845 -0.0494
vn -0.8822 0.4679 -0.0534
vn -0.9991 0.0163 -0.0392
vn -0.9964 0.0844 0.0050
vn -0.2444 0.6326 0.7349
vn -0.2569 0.6740 0.6926
vn -0.3017 0.1243 0.9453
vn -0.3048 0.1305 0.9434
vn -0.9993 0.0341 0.0145
vn -0.9998 -0.0155 0.0080
vn -1.0000 -0.0018 0.0053
usemtl Citroen_C1_LOD
s 1
f 1/1/1 2/2/2 3/3/3
f 2/2/2 1/1/1 4/4/4
f 5/5/5 3/3/3 2/2/2
f 3/3/3 5/5/5 6/6/6
f 7/7/7 1/1/8 8/8/9
f 1/1/8 7/7/7 4/4/10
f 9/9/11 5/10/12 10/11/13
f 5/10/12 9/9/11 6/12/14
f 10/11/13 11/13/15 9/9/11
f 11/13/15 10/11/13 12/14/16
f 13/15/17 4/16/18 7/17/19
f 13/15/17 2/18/20 4/16/18
f 13/15/21 5/19/22 2/18/23
f 5/19/22 13/15/21 10/20/24
f 14/21/25 10/20/24 13/15/21
f 10/20/24 14/21/25 12/22/26
f 15/23/27 8/24/9 16/25/28
f 8/24/9 15/23/27 7/26/7
f 16/25/29 17/27/30 15/23/31
f 17/27/30 16/25/29 18/28/32
f 7/17/19 15/29/33 13/15/17
f 14/21/34 15/29/33 17/30/35
f 15/29/33 14/21/34 13/15/17
f 1/1/1 19/31/36 20/32/37
f 19/31/36 1/1/1 3/3/3
f 21/33/38 3/3/3 6/6/6
f 3/3/3 21/33/38 19/31/36
f 22/34/39 1/1/8 20/32/40
f 1/1/8 22/34/39 8/8/9
f 9/9/11 21/35/41 6/12/14
f 21/35/41 9/9/11 23/36/42
f 23/36/42 11/13/15 24/37/43
f 11/13/15 23/36/42 9/9/11
f 25/38/44 22/39/45 20/40/46
f 25/38/44 20/40/46 19/41/47
f 25/38/48 21/42/49 23/43/50
f 21/42/49 25/38/48 19/41/51
f 26/44/52 23/43/50 24/45/53
f 23/43/50 26/44/52 25/38/48
f 27/46/54 8/24/9 22/47/39
f 8/24/9 27/46/54 16/25/55
f 16/25/29 28/48/56 18/28/32
f 28/48/56 16/25/29 27/46/57
f 22/39/45 25/38/44 27/49/58
f 26/44/59 27/49/58 25/38/44
f 27/49/58 26/44/59 28/50/60
