# Blender v2.79 (sub 7) OBJ File: 'Subaru Legacy IV.blend'
# www.blender.org
mtllib Subaru Legacy IV_LOD.mtl
o Subaru_Legacy_IV_LOD_subaru_legacy_iv_lod
v 0.668007 1.050864 -1.693853
v 0.581793 1.015407 -2.167723
v 0.000000 0.331423 -2.294419
v 0.000000 1.048018 -2.242456
v 0.575010 0.327959 -2.243074
v 0.753380 0.320911 -2.038571
v 0.746886 0.929026 -1.962923
v 0.000000 1.406232 -0.910311
v 0.576731 1.352792 -0.890393
v 0.000000 1.087553 -1.791124
v 0.000000 1.382605 0.128405
v 0.000000 0.952577 1.180731
v 0.464781 0.730059 2.119133
v 0.810393 0.446871 1.880487
v 0.439321 0.441002 2.264557
v 0.756894 0.764518 1.779797
v 0.796021 0.235451 1.888960
v 0.426427 0.273118 2.220876
v 0.850183 0.225602 0.885849
v 0.842406 0.228370 -0.914080
v 0.802585 0.891416 -0.902625
v 0.600082 1.343533 0.090886
v 0.751980 0.931880 0.916774
v 0.816275 0.828922 0.890497
v -0.746886 0.929026 -1.962923
v -0.581793 1.015407 -2.167723
v -0.575010 0.327959 -2.243074
v -0.753380 0.320911 -2.038571
v -0.668007 1.050864 -1.693853
v -0.751980 0.931880 0.916774
v -0.439321 0.441002 2.264557
v 0.000000 0.720151 2.184598
v 0.000000 0.271041 2.262913
v 0.000000 0.440140 2.314097
v -0.464781 0.730059 2.119133
v -0.756894 0.764518 1.779797
v -0.796021 0.235451 1.888960
v -0.426427 0.273118 2.220876
v -0.810393 0.446871 1.880487
v -0.850183 0.225602 0.885849
v -0.842406 0.228370 -0.914080
v -0.802585 0.891416 -0.902625
v -0.600082 1.343533 0.090886
v -0.576731 1.352792 -0.890393
v -0.816275 0.828922 0.890497
vt 0.025610 0.395690
vt 0.138510 0.255050
vt 0.039530 0.273910
vt 0.120640 0.395690
vt 0.079100 0.231820
vt 0.092370 0.810410
vt 0.215100 0.955000
vt 0.215100 0.804740
vt 0.094360 0.955040
vt 0.037660 0.952260
vt 0.036100 0.824100
vt 0.315630 0.395690
vt 0.318280 0.275390
vt 0.530000 0.395690
vt 0.523680 0.270560
vt 0.767800 0.395690
vt 0.716320 0.236080
vt 0.971060 0.298650
vt 0.900420 0.236560
vt 0.984600 0.395690
vt 0.533960 0.846690
vt 0.622960 0.908390
vt 0.622960 0.844100
vt 0.523540 0.912730
vt 0.622960 0.806710
vt 0.529000 0.811490
vt 0.425670 0.868170
vt 0.432050 0.939540
vt 0.421520 0.822880
vt 0.688350 0.025610
vt 0.897040 0.071670
vt 0.898890 0.027260
vt 0.093310 0.179490
vt 0.311330 0.028110
vt 0.075070 0.052200
vt 0.315150 0.166960
vt 0.149640 0.210570
vt 0.695920 0.177560
vt 0.689830 0.152170
vt 0.876610 0.139410
vt 0.138510 0.536330
vt 0.039530 0.517470
vt 0.079100 0.559560
vt 0.337830 0.810410
vt 0.335840 0.955040
vt 0.392540 0.952260
vt 0.394100 0.824100
vt 0.318280 0.515990
vt 0.523680 0.520820
vt 0.716320 0.555300
vt 0.900420 0.554830
vt 0.971060 0.492730
vt 0.711970 0.846690
vt 0.722380 0.912730
vt 0.716930 0.811490
vt 0.820260 0.868170
vt 0.813880 0.939540
vt 0.824410 0.822880
vt 0.688350 0.765780
vt 0.898890 0.764130
vt 0.897040 0.719720
vt 0.093310 0.611900
vt 0.311330 0.763270
vt 0.315150 0.624430
vt 0.075070 0.739190
vt 0.149640 0.580810
vt 0.695920 0.613820
vt 0.689830 0.639220
vt 0.876610 0.651970
vn 0.0000 0.9962 -0.0871
vn 0.2457 0.9623 -0.1168
vn 0.2113 0.9711 -0.1111
vn 0.0000 0.9962 -0.0873
vn 0.6136 0.7712 -0.1693
vn 0.4524 0.0899 -0.8873
vn 0.0000 0.0921 -0.9957
vn 0.0000 0.0723 -0.9974
vn 0.4450 0.0932 -0.8907
vn 0.7627 0.0688 -0.6431
vn 0.7927 0.0836 -0.6038
vn 0.0999 0.9354 -0.3391
vn 0.0000 0.9864 -0.1642
vn 0.0923 0.9817 -0.1666
vn 0.0000 0.9403 -0.3402
vn -0.0000 0.9788 0.2046
vn 0.0937 0.9733 0.2096
vn -0.0000 0.9145 0.4045
vn 0.1701 0.8941 0.4144
vn 0.0945 0.9779 0.1867
vn 0.0524 0.9768 0.2074
vn 0.1041 0.9765 0.1888
vn -0.0000 0.9806 0.1962
vn 0.0000 0.9742 0.2256
vn 0.3654 0.3873 0.8465
vn 0.0000 0.4283 0.9036
vn 0.0000 0.4198 0.9076
vn 0.4825 0.3702 0.7938
vn 0.3923 -0.2363 0.8890
vn -0.0000 -0.2824 0.9593
vn 0.3933 -0.2597 0.8820
vn -0.0000 -0.2897 0.9571
vn 0.6972 0.3037 0.6493
vn 0.7017 0.3200 0.6366
vn 0.7057 -0.0645 0.7055
vn 0.7192 -0.0211 0.6945
vn 0.9988 0.0479 0.0133
vn 0.9976 0.0396 0.0571
vn 0.9964 -0.0656 0.0544
vn 0.9971 0.0338 -0.0683
vn 0.9981 0.0533 -0.0318
vn 0.9968 0.0203 -0.0773
vn 0.9978 0.0604 -0.0282
vn 0.8111 0.5846 -0.0202
vn 0.7560 0.6546 0.0044
vn 0.8160 0.5777 -0.0224
vn 0.8506 0.5229 0.0556
vn 0.9476 0.3189 -0.0162
vn 0.9450 0.3266 -0.0176
vn 0.9417 0.3359 -0.0192
vn 0.9481 0.3177 -0.0160
vn 0.9974 0.0695 0.0161
vn 0.9786 0.1899 0.0791
vn 0.8527 0.5202 0.0482
vn 0.8550 0.5100 0.0940
vn -0.2457 0.9623 -0.1168
vn -0.2113 0.9711 -0.1111
vn -0.6136 0.7712 -0.1693
vn -0.4524 0.0899 -0.8873
vn -0.4450 0.0932 -0.8907
vn -0.7627 0.0688 -0.6431
vn -0.7927 0.0836 -0.6038
vn -0.0999 0.9354 -0.3391
vn -0.0923 0.9817 -0.1666
vn -0.0937 0.9733 0.2096
vn -0.1701 0.8941 0.4144
vn -0.0945 0.9779 0.1867
vn -0.1041 0.9765 0.1888
vn -0.0524 0.9768 0.2074
vn -0.3654 0.3873 0.8465
vn -0.4825 0.3702 0.7938
vn -0.3923 -0.2363 0.8890
vn -0.3933 -0.2597 0.8820
vn -0.6972 0.3037 0.6493
vn -0.7017 0.3200 0.6366
vn -0.7057 -0.0645 0.7055
vn -0.7192 -0.0211 0.6945
vn -0.9988 0.0479 0.0133
vn -0.9964 -0.0656 0.0544
vn -0.9976 0.0396 0.0571
vn -0.9971 0.0338 -0.0683
vn -0.9981 0.0533 -0.0318
vn -0.9978 0.0604 -0.0282
vn -0.9968 0.0203 -0.0773
vn -0.8111 0.5846 -0.0202
vn -0.8160 0.5777 -0.0224
vn -0.7560 0.6546 0.0044
vn -0.8506 0.5229 0.0556
vn -0.9476 0.3189 -0.0162
vn -0.9450 0.3266 -0.0176
vn -0.9481 0.3177 -0.0160
vn -0.9417 0.3359 -0.0192
vn -0.9974 0.0695 0.0161
vn -0.9786 0.1899 0.0791
vn -0.8527 0.5202 0.0482
vn -0.8550 0.5100 0.0940
usemtl Subaru_Legacy_IV_(LOD)
s 1
f 4/1/1 1/2/2 2/3/3
f 1/2/2 4/1/1 10/4/4
f 1/2/2 7/5/5 2/3/3
f 2/6/6 3/7/7 4/8/8
f 3/7/7 2/6/6 5/9/9
f 2/6/6 6/10/10 5/9/9
f 6/10/10 2/6/6 7/11/11
f 1/2/12 8/12/13 9/13/14
f 8/12/13 1/2/12 10/4/15
f 9/13/14 11/14/16 22/15/17
f 11/14/16 9/13/14 8/12/13
f 12/16/18 22/15/17 11/14/16
f 22/15/17 12/16/18 23/17/19
f 23/17/20 13/18/21 16/19/22
f 13/18/21 12/16/23 32/20/24
f 12/16/23 13/18/21 23/17/20
f 15/21/25 32/22/26 34/23/27
f 32/22/26 15/21/25 13/24/28
f 15/21/29 33/25/30 18/26/31
f 33/25/30 15/21/29 34/23/32
f 14/27/33 13/24/28 15/21/25
f 13/24/28 14/27/33 16/28/34
f 15/21/29 17/29/35 14/27/36
f 17/29/35 15/21/29 18/26/31
f 19/30/37 14/31/38 17/32/39
f 7/33/40 20/34/41 6/35/42
f 20/34/41 7/33/40 21/36/43
f 1/37/44 21/36/45 7/33/46
f 21/36/45 1/37/44 23/38/47
f 22/15/48 1/37/49 9/13/50
f 1/37/49 22/15/48 23/38/51
f 20/34/41 24/39/52 19/30/37
f 24/39/52 20/34/41 21/36/43
f 24/39/52 14/31/38 19/30/37
f 14/31/38 24/39/52 16/40/53
f 24/39/54 23/38/47 16/40/55
f 23/38/47 24/39/54 21/36/45
f 4/1/1 29/41/56 10/4/4
f 29/41/56 4/1/1 26/42/57
f 29/41/56 26/42/57 25/43/58
f 26/44/59 3/7/7 27/45/60
f 3/7/7 26/44/59 4/8/8
f 26/44/59 28/46/61 25/47/62
f 28/46/61 26/44/59 27/45/60
f 29/41/63 8/12/13 10/4/15
f 8/12/13 29/41/63 44/48/64
f 44/48/64 11/14/16 8/12/13
f 11/14/16 44/48/64 43/49/65
f 12/16/18 43/49/65 30/50/66
f 43/49/65 12/16/18 11/14/16
f 30/50/67 36/51/68 35/52/69
f 35/52/69 12/16/23 30/50/67
f 12/16/23 35/52/69 32/20/24
f 31/53/70 32/22/26 35/54/71
f 32/22/26 31/53/70 34/23/27
f 31/53/72 33/25/30 34/23/32
f 33/25/30 31/53/72 38/55/73
f 39/56/74 35/54/71 36/57/75
f 35/54/71 39/56/74 31/53/70
f 31/53/72 37/58/76 38/55/73
f 37/58/76 31/53/72 39/56/77
f 40/59/78 37/60/79 39/61/80
f 25/62/81 41/63/82 42/64/83
f 41/63/82 25/62/81 28/65/84
f 29/66/85 25/62/86 42/64/87
f 42/64/87 30/67/88 29/66/85
f 43/49/89 29/66/90 30/67/91
f 29/66/90 43/49/89 44/48/92
f 41/63/82 45/68/93 42/64/83
f 45/68/93 41/63/82 40/59/78
f 45/68/93 39/61/80 36/69/94
f 39/61/80 45/68/93 40/59/78
f 45/68/95 36/69/96 30/67/88
f 30/67/88 42/64/87 45/68/95
