# File exported by Unity3D version 5.6.7f1
v 0.66800710 1.05086400 -1.69385300
v 0.00000000 1.04801800 -2.24245600
v 0.58179300 1.01540700 -2.16772300
v 0.74688630 0.92902590 -1.96292300
v 0.57501030 0.32795850 -2.24307400
v 0.75338010 0.32091020 -2.03857100
v 0.57673080 1.35279200 -0.89039340
v 0.60008160 1.34353300 0.09088531
v 0.00000000 0.95257750 1.18073100
v 0.75198020 0.93187980 0.91677430
v 0.00000000 0.72015120 2.18459800
v 0.75689440 0.76451790 1.77979700
v 0.46478050 0.73005900 2.11913300
v 0.43932130 0.44100220 2.26455700
v 0.81039320 0.44687110 1.88048700
v 0.00000000 0.27104110 2.26291300
v 0.42642720 0.27311800 2.22087600
v 0.79602100 0.23545170 1.88896000
v 0.85018310 0.22560260 0.88584930
v 0.80258480 0.89141600 -0.90262480
v 0.84240600 0.22837000 -0.91408020
v 0.81627530 0.82892230 0.89049650
v 0.85061540 0.15500060 1.59618100
v 0.85061540 0.46500060 1.59618100
v 0.85061540 0.62000050 1.32771300
v 0.85061530 0.46500040 1.05924500
v 0.85061530 0.15500040 1.05924500
v 0.85061530 0.00000054 1.32771300
v 0.83798640 0.15500020 -1.06599500
v 0.83798640 0.46500020 -1.06599500
v 0.83798640 0.62000020 -1.33446300
v 0.83798630 0.46500020 -1.60293100
v 0.83798630 0.15500010 -1.60293100
v 0.83798630 0.00000022 -1.33446300
v 0.00000000 1.08755300 -1.79112400
v -0.66800710 1.05086400 -1.69385300
v -0.58179300 1.01540700 -2.16772300
v -0.74688630 0.92902590 -1.96292300
v 0.00000000 0.33142280 -2.29441900
v -0.57501030 0.32795850 -2.24307400
v -0.75338010 0.32091020 -2.03857100
v 0.00000000 1.40623200 -0.91031090
v -0.57673080 1.35279200 -0.89039340
v 0.00000000 1.38260500 0.12840480
v -0.60008160 1.34353300 0.09088531
v -0.75198020 0.93187980 0.91677430
v -0.75689440 0.76451790 1.77979700
v -0.46478050 0.73005900 2.11913300
v 0.00000000 0.44014080 2.31409700
v -0.43932130 0.44100220 2.26455700
v -0.81039320 0.44687110 1.88048700
v -0.42642720 0.27311800 2.22087600
v -0.79602100 0.23545170 1.88896000
v -0.85018310 0.22560260 0.88584930
v -0.80258480 0.89141600 -0.90262480
v -0.84240600 0.22837000 -0.91408020
v -0.81627530 0.82892230 0.89049650
v -0.85061540 0.15500060 1.59618100
v -0.85061540 0.46500060 1.59618100
v -0.85061540 0.62000050 1.32771300
v -0.85061530 0.46500040 1.05924500
v -0.85061530 0.15500040 1.05924500
v -0.85061530 0.00000054 1.32771300
v -0.83798640 0.15500020 -1.06599500
v -0.83798640 0.46500020 -1.06599500
v -0.83798640 0.62000020 -1.33446300
v -0.83798630 0.46500020 -1.60293100
v -0.83798630 0.15500010 -1.60293100
v -0.83798630 0.00000022 -1.33446300
v 0.58179300 1.01540700 -2.16772300
v 0.00000000 1.04801800 -2.24245600
v 0.74688630 0.92902590 -1.96292300
v 0.00000000 0.72015120 2.18459800
v 0.46478050 0.73005900 2.11913300
v 0.75689440 0.76451790 1.77979700
v 0.81039320 0.44687110 1.88048700
v 0.79602100 0.23545170 1.88896000
v 0.74688630 0.92902590 -1.96292300
v 0.75338010 0.32091020 -2.03857100
v 0.66800710 1.05086400 -1.69385300
v 0.75198020 0.93187980 0.91677430
v 0.75689440 0.76451790 1.77979700
v -0.58179300 1.01540700 -2.16772300
v -0.74688630 0.92902590 -1.96292300
v -0.46478050 0.73005900 2.11913300
v -0.75689440 0.76451790 1.77979700
v -0.79602100 0.23545170 1.88896000
v -0.81039320 0.44687110 1.88048700
v -0.74688630 0.92902590 -1.96292300
v -0.75338010 0.32091020 -2.03857100
v -0.66800710 1.05086400 -1.69385300
v -0.75198020 0.93187980 0.91677430
v -0.75689440 0.76451790 1.77979700
v 0.66800710 1.05086400 -1.69385300
v 0.00000000 1.08755300 -1.79112400
v 0.75198020 0.93187980 0.91677430
v 0.00000000 0.95257750 1.18073100
v 0.43932130 0.44100220 2.26455700
v 0.00000000 0.44014080 2.31409700
v 0.46478050 0.73005900 2.11913300
v 0.43932130 0.44100220 2.26455700
v 0.43932130 0.44100220 2.26455700
v 0.81039320 0.44687110 1.88048700
v 0.42642720 0.27311800 2.22087600
v 0.80258480 0.89141600 -0.90262480
v 0.74688630 0.92902590 -1.96292300
v 0.60008160 1.34353300 0.09088531
v 0.66800710 1.05086400 -1.69385300
v 0.57673080 1.35279200 -0.89039340
v 0.75198020 0.93187980 0.91677430
v 0.81627530 0.82892230 0.89049650
v 0.75689440 0.76451790 1.77979700
v -0.66800710 1.05086400 -1.69385300
v -0.75198020 0.93187980 0.91677430
v 0.00000000 0.72015120 2.18459800
v -0.43932130 0.44100220 2.26455700
v 0.00000000 0.27104110 2.26291300
v 0.00000000 0.44014080 2.31409700
v -0.46478050 0.73005900 2.11913300
v -0.43932130 0.44100220 2.26455700
v -0.43932130 0.44100220 2.26455700
v -0.42642720 0.27311800 2.22087600
v -0.81039320 0.44687110 1.88048700
v -0.74688630 0.92902590 -1.96292300
v -0.80258480 0.89141600 -0.90262480
v -0.60008160 1.34353300 0.09088531
v -0.66800710 1.05086400 -1.69385300
v -0.75198020 0.93187980 0.91677430
v -0.57673080 1.35279200 -0.89039340
v -0.81627530 0.82892230 0.89049650
v -0.75689440 0.76451790 1.77979700
vt 0.13851 0.25505
vt 0.02561 0.39569
vt 0.03953 0.27391
vt 0.07910 0.23182
vt 0.09436 0.95504
vt 0.03766 0.95226
vt 0.31828 0.27539
vt 0.52368 0.27056
vt 0.76780 0.39569
vt 0.71632 0.23608
vt 0.98460 0.39569
vt 0.90042 0.23656
vt 0.97106 0.29865
vt 0.53396 0.84669
vt 0.42567 0.86817
vt 0.62296 0.80671
vt 0.52900 0.81149
vt 0.42152 0.82288
vt 0.68835 0.02561
vt 0.31515 0.16696
vt 0.31133 0.02811
vt 0.68983 0.15217
vt 0.91532 0.81905
vt 0.97933 0.85600
vt 0.97933 0.92991
vt 0.91532 0.96687
vt 0.85131 0.92991
vt 0.85131 0.85600
vt 0.91532 0.81905
vt 0.97933 0.85600
vt 0.97933 0.92991
vt 0.91532 0.96687
vt 0.85131 0.92991
vt 0.85131 0.85600
vt 0.12064 0.39569
vt 0.13851 0.53633
vt 0.03953 0.51747
vt 0.07910 0.55956
vt 0.21510 0.95500
vt 0.33584 0.95504
vt 0.39254 0.95226
vt 0.31563 0.39569
vt 0.31828 0.51599
vt 0.53000 0.39569
vt 0.52368 0.52082
vt 0.71632 0.55530
vt 0.90042 0.55483
vt 0.97106 0.49273
vt 0.62296 0.84410
vt 0.71197 0.84669
vt 0.82026 0.86817
vt 0.71693 0.81149
vt 0.82441 0.82288
vt 0.68835 0.76578
vt 0.31515 0.62443
vt 0.31133 0.76327
vt 0.68983 0.63922
vt 0.91532 0.81905
vt 0.97933 0.85600
vt 0.97933 0.92991
vt 0.91532 0.96687
vt 0.85131 0.92991
vt 0.85131 0.85600
vt 0.91532 0.81905
vt 0.97933 0.85600
vt 0.97933 0.92991
vt 0.91532 0.96687
vt 0.85131 0.92991
vt 0.85131 0.85600
vt 0.09237 0.81041
vt 0.21510 0.80474
vt 0.03610 0.82410
vt 0.62296 0.90839
vt 0.52354 0.91273
vt 0.43205 0.93954
vt 0.89704 0.07167
vt 0.89889 0.02726
vt 0.09331 0.17949
vt 0.07507 0.05220
vt 0.14964 0.21057
vt 0.69592 0.17756
vt 0.87661 0.13941
vt 0.33783 0.81041
vt 0.39410 0.82410
vt 0.72238 0.91273
vt 0.81388 0.93954
vt 0.89889 0.76413
vt 0.89704 0.71972
vt 0.09331 0.61190
vt 0.07507 0.73919
vt 0.14964 0.58081
vt 0.69592 0.61382
vt 0.87661 0.65197
vt 0.13851 0.25505
vt 0.12064 0.39569
vt 0.71632 0.23608
vt 0.76780 0.39569
vt 0.53396 0.84669
vt 0.62296 0.84410
vt 0.52354 0.91273
vt 0.53396 0.84669
vt 0.53396 0.84669
vt 0.42567 0.86817
vt 0.52900 0.81149
vt 0.31515 0.16696
vt 0.09331 0.17949
vt 0.52368 0.27056
vt 0.14964 0.21057
vt 0.31828 0.27539
vt 0.69592 0.17756
vt 0.68983 0.15217
vt 0.87661 0.13941
vt 0.13851 0.53633
vt 0.71632 0.55530
vt 0.62296 0.90839
vt 0.71197 0.84669
vt 0.62296 0.80671
vt 0.62296 0.84410
vt 0.72238 0.91273
vt 0.71197 0.84669
vt 0.71197 0.84669
vt 0.71693 0.81149
vt 0.82026 0.86817
vt 0.09331 0.61190
vt 0.31515 0.62443
vt 0.52368 0.52082
vt 0.14964 0.58081
vt 0.69592 0.61382
vt 0.31828 0.51599
vt 0.68983 0.63922
vt 0.87661 0.65197
vn 0.24565770 0.96228950 -0.11683870
vn 0.00000000 0.99620360 -0.08705439
vn 0.21128480 0.97108980 -0.11110020
vn 0.61360710 0.77123870 -0.16934390
vn 0.44494970 0.09323832 -0.89068880
vn 0.76268730 0.06884234 -0.64309330
vn 0.09227789 0.98170530 -0.16655180
vn 0.09370084 0.97328510 0.20960980
vn 0.00000000 0.91451900 0.40454320
vn 0.17005770 0.89408140 0.41436580
vn 0.00000000 0.97422840 0.22556390
vn 0.10409880 0.97648780 0.18877280
vn 0.05238550 0.97684650 0.20742880
vn 0.36535250 0.38731430 0.84646640
vn 0.69722990 0.30373420 0.64931980
vn 0.00000000 -0.28239360 0.95929870
vn 0.39327140 -0.25968500 0.88198720
vn 0.70574020 -0.06449777 0.70552880
vn 0.99876250 0.04791807 0.01331983
vn 0.99777640 0.06041085 -0.02815674
vn 0.99807070 0.05330955 -0.03182854
vn 0.99744900 0.06954890 0.01607674
vn 1.00000000 0.00000000 -0.00000028
vn 1.00000000 -0.00000010 -0.00000018
vn 1.00000000 -0.00000025 -0.00000014
vn 1.00000000 -0.00000010 -0.00000011
vn 1.00000000 0.00000000 0.00000000
vn 1.00000000 0.00000000 -0.00000014
vn 1.00000000 0.00000000 -0.00000028
vn 1.00000000 -0.00000010 -0.00000018
vn 1.00000000 -0.00000025 -0.00000014
vn 1.00000000 -0.00000010 -0.00000011
vn 1.00000000 0.00000000 0.00000000
vn 1.00000000 0.00000000 -0.00000014
vn 0.00000000 0.99618540 -0.08726218
vn -0.24565770 0.96228950 -0.11683870
vn -0.21128480 0.97108980 -0.11110020
vn -0.61360710 0.77123870 -0.16934390
vn 0.00000000 0.09212121 -0.99574780
vn -0.44494970 0.09323832 -0.89068880
vn -0.76268730 0.06884234 -0.64309330
vn 0.00000000 0.98643320 -0.16416340
vn -0.09227789 0.98170530 -0.16655180
vn 0.00000000 0.97883650 0.20464390
vn -0.09370084 0.97328510 0.20960980
vn -0.17005770 0.89408140 0.41436580
vn -0.10409870 0.97648780 0.18877280
vn -0.05238549 0.97684650 0.20742880
vn 0.00000000 0.41976170 0.90763440
vn -0.36535250 0.38731430 0.84646640
vn -0.69722990 0.30373420 0.64931980
vn -0.39327140 -0.25968500 0.88198720
vn -0.70574020 -0.06449777 0.70552880
vn -0.99876250 0.04791807 0.01331983
vn -0.99777640 0.06041085 -0.02815674
vn -0.99807070 0.05330955 -0.03182855
vn -0.99744900 0.06954891 0.01607674
vn -1.00000000 0.00000000 -0.00000028
vn -1.00000000 -0.00000010 -0.00000018
vn -1.00000000 -0.00000025 -0.00000014
vn -1.00000000 -0.00000010 -0.00000011
vn -1.00000000 0.00000000 0.00000000
vn -1.00000000 0.00000000 -0.00000014
vn -1.00000000 0.00000000 -0.00000028
vn -1.00000000 -0.00000010 -0.00000018
vn -1.00000000 -0.00000025 -0.00000014
vn -1.00000000 -0.00000010 -0.00000011
vn -1.00000000 0.00000000 0.00000000
vn -1.00000000 0.00000000 -0.00000014
vn 0.45238620 0.08985469 -0.88728400
vn 0.00000000 0.07232416 -0.99738120
vn 0.79274550 0.08357657 -0.60379600
vn 0.00000000 0.42828200 0.90364520
vn 0.48249750 0.37021600 0.79381130
vn 0.70172050 0.31996660 0.63656090
vn 0.99758650 0.03955962 0.05706370
vn 0.99636300 -0.06555040 0.05444134
vn 0.99709650 0.03375320 -0.06825905
vn 0.99680600 0.02025430 -0.07725024
vn 0.81110440 0.58455400 -0.02015946
vn 0.85060470 0.52285610 0.05561657
vn 0.97861340 0.18989310 0.07909692
vn -0.45238620 0.08985470 -0.88728400
vn -0.79274550 0.08357657 -0.60379600
vn -0.48249750 0.37021600 0.79381130
vn -0.70172050 0.31996660 0.63656090
vn -0.99636300 -0.06555040 0.05444134
vn -0.99758650 0.03955962 0.05706370
vn -0.99709650 0.03375320 -0.06825905
vn -0.99680600 0.02025430 -0.07725024
vn -0.81110440 0.58455400 -0.02015946
vn -0.85060470 0.52285610 0.05561656
vn -0.97861340 0.18989310 0.07909692
vn 0.09987290 0.93543050 -0.33910960
vn 0.00000000 0.94034630 -0.34021890
vn 0.09454426 0.97785340 0.18671980
vn 0.00000000 0.98055960 0.19622170
vn 0.39233880 -0.23629770 0.88895090
vn 0.00000000 -0.28970860 0.95711490
vn 0.48249750 0.37021600 0.79381130
vn 0.36535250 0.38731430 0.84646640
vn 0.39233880 -0.23629770 0.88895090
vn 0.71917330 -0.02105556 0.69451170
vn 0.39327140 -0.25968500 0.88198720
vn 0.75595250 0.65461160 0.00442051
vn 0.81596260 0.57767160 -0.02237271
vn 0.94763400 0.31894560 -0.01623606
vn 0.94501140 0.32656430 -0.01758521
vn 0.94170600 0.33588650 -0.01923970
vn 0.94805660 0.31769820 -0.01601540
vn 0.85269130 0.52018590 0.04821070
vn 0.85504310 0.50996140 0.09402560
vn -0.09987290 0.93543050 -0.33910960
vn -0.09454425 0.97785340 0.18671980
vn 0.00000000 0.42828200 0.90364520
vn -0.39233880 -0.23629770 0.88895090
vn 0.00000000 -0.28239360 0.95929870
vn 0.00000000 -0.28970860 0.95711490
vn -0.48249750 0.37021600 0.79381130
vn -0.36535250 0.38731430 0.84646640
vn -0.39233880 -0.23629770 0.88895090
vn -0.39327140 -0.25968500 0.88198720
vn -0.71917330 -0.02105556 0.69451170
vn -0.81596270 0.57767160 -0.02237271
vn -0.75595240 0.65461160 0.00442051
vn -0.94763400 0.31894560 -0.01623606
vn -0.94501140 0.32656430 -0.01758521
vn -0.94805660 0.31769820 -0.01601540
vn -0.94170600 0.33588650 -0.01923970
vn -0.85269130 0.52018590 0.04821070
vn -0.85504310 0.50996120 0.09402560
vc 0.00000000 0.00000000 0.00000000 1.00000000
vc 0.00000000 0.00000000 0.00000000 1.00000000
vc 0.00000000 0.00000000 0.00000000 1.00000000
vc 0.00000000 0.00000000 0.00000000 1.00000000
vc 0.00000000 0.00000000 0.00000000 1.00000000
vc 0.00000000 0.00000000 0.00000000 1.00000000
vc 0.00000000 0.00000000 0.00000000 1.00000000
vc 0.00000000 0.00000000 0.00000000 1.00000000
vc 0.00000000 0.00000000 0.00000000 1.00000000
vc 0.00000000 0.00000000 0.00000000 1.00000000
vc 0.00000000 0.00000000 0.00000000 1.00000000
vc 0.00000000 0.00000000 0.00000000 1.00000000
vc 0.00000000 0.00000000 0.00000000 1.00000000
vc 0.00000000 0.00000000 0.00000000 1.00000000
vc 0.00000000 0.00000000 0.00000000 1.00000000
vc 0.00000000 0.00000000 0.00000000 1.00000000
vc 0.00000000 0.00000000 0.00000000 1.00000000
vc 0.00000000 0.00000000 0.00000000 1.00000000
vc 0.00000000 0.00000000 0.00000000 1.00000000
vc 0.00000000 0.00000000 0.00000000 1.00000000
vc 0.00000000 0.00000000 0.00000000 1.00000000
vc 0.00000000 0.00000000 0.00000000 1.00000000
vc 0.00000000 0.00000000 0.00000000 1.00000000
vc 0.00000000 0.00000000 0.00000000 1.00000000
vc 0.00000000 0.00000000 0.00000000 1.00000000
vc 0.00000000 0.00000000 0.00000000 1.00000000
vc 0.00000000 0.00000000 0.00000000 1.00000000
vc 0.00000000 0.00000000 0.00000000 1.00000000
vc 0.00000000 0.00000000 0.00000000 1.00000000
vc 0.00000000 0.00000000 0.00000000 1.00000000
vc 0.00000000 0.00000000 0.00000000 1.00000000
vc 0.00000000 0.00000000 0.00000000 1.00000000
vc 0.00000000 0.00000000 0.00000000 1.00000000
vc 0.00000000 0.00000000 0.00000000 1.00000000
vc 0.00000000 0.00000000 0.00000000 1.00000000
vc 0.00000000 0.00000000 0.00000000 1.00000000
vc 0.00000000 0.00000000 0.00000000 1.00000000
vc 0.00000000 0.00000000 0.00000000 1.00000000
vc 0.00000000 0.00000000 0.00000000 1.00000000
vc 0.00000000 0.00000000 0.00000000 1.00000000
vc 0.00000000 0.00000000 0.00000000 1.00000000
vc 0.00000000 0.00000000 0.00000000 1.00000000
vc 0.00000000 0.00000000 0.00000000 1.00000000
vc 0.00000000 0.00000000 0.00000000 1.00000000
vc 0.00000000 0.00000000 0.00000000 1.00000000
vc 0.00000000 0.00000000 0.00000000 1.00000000
vc 0.00000000 0.00000000 0.00000000 1.00000000
vc 0.00000000 0.00000000 0.00000000 1.00000000
vc 0.00000000 0.00000000 0.00000000 1.00000000
vc 0.00000000 0.00000000 0.00000000 1.00000000
vc 0.00000000 0.00000000 0.00000000 1.00000000
vc 0.00000000 0.00000000 0.00000000 1.00000000
vc 0.00000000 0.00000000 0.00000000 1.00000000
vc 0.00000000 0.00000000 0.00000000 1.00000000
vc 0.00000000 0.00000000 0.00000000 1.00000000
vc 0.00000000 0.00000000 0.00000000 1.00000000
vc 0.00000000 0.00000000 0.00000000 1.00000000
vc 0.00000000 0.00000000 0.00000000 1.00000000
vc 0.00000000 0.00000000 0.00000000 1.00000000
vc 0.00000000 0.00000000 0.00000000 1.00000000
vc 0.00000000 0.00000000 0.00000000 1.00000000
vc 0.00000000 0.00000000 0.00000000 1.00000000
vc 0.00000000 0.00000000 0.00000000 1.00000000
vc 0.00000000 0.00000000 0.00000000 1.00000000
vc 0.00000000 0.00000000 0.00000000 1.00000000
vc 0.00000000 0.00000000 0.00000000 1.00000000
vc 0.00000000 0.00000000 0.00000000 1.00000000
vc 0.00000000 0.00000000 0.00000000 1.00000000
vc 0.00000000 0.00000000 0.00000000 1.00000000
vc 0.00000000 0.00000000 0.00000000 1.00000000
vc 0.00000000 0.00000000 0.00000000 1.00000000
vc 0.00000000 0.00000000 0.00000000 1.00000000
vc 0.00000000 0.00000000 0.00000000 1.00000000
vc 0.00000000 0.00000000 0.00000000 1.00000000
vc 0.00000000 0.00000000 0.00000000 1.00000000
vc 0.00000000 0.00000000 0.00000000 1.00000000
vc 0.00000000 0.00000000 0.00000000 1.00000000
vc 0.00000000 0.00000000 0.00000000 1.00000000
vc 0.00000000 0.00000000 0.00000000 1.00000000
vc 0.00000000 0.00000000 0.00000000 1.00000000
vc 0.00000000 0.00000000 0.00000000 1.00000000
vc 0.00000000 0.00000000 0.00000000 1.00000000
vc 0.00000000 0.00000000 0.00000000 1.00000000
vc 0.00000000 0.00000000 0.00000000 1.00000000
vc 0.00000000 0.00000000 0.00000000 1.00000000
vc 0.00000000 0.00000000 0.00000000 1.00000000
vc 0.00000000 0.00000000 0.00000000 1.00000000
vc 0.00000000 0.00000000 0.00000000 1.00000000
vc 0.00000000 0.00000000 0.00000000 1.00000000
vc 0.00000000 0.00000000 0.00000000 1.00000000
vc 0.00000000 0.00000000 0.00000000 1.00000000
vc 0.00000000 0.00000000 0.00000000 1.00000000
vc 0.00000000 0.00000000 0.00000000 1.00000000
vc 0.00000000 0.00000000 0.00000000 1.00000000
vc 0.00000000 0.00000000 0.00000000 1.00000000
vc 0.00000000 0.00000000 0.00000000 1.00000000
vc 0.00000000 0.00000000 0.00000000 1.00000000
vc 0.00000000 0.00000000 0.00000000 1.00000000
vc 0.00000000 0.00000000 0.00000000 1.00000000
vc 0.00000000 0.00000000 0.00000000 1.00000000
vc 0.00000000 0.00000000 0.00000000 1.00000000
vc 0.00000000 0.00000000 0.00000000 1.00000000
vc 0.00000000 0.00000000 0.00000000 1.00000000
vc 0.00000000 0.00000000 0.00000000 1.00000000
vc 0.00000000 0.00000000 0.00000000 1.00000000
vc 0.00000000 0.00000000 0.00000000 1.00000000
vc 0.00000000 0.00000000 0.00000000 1.00000000
vc 0.00000000 0.00000000 0.00000000 1.00000000
vc 0.00000000 0.00000000 0.00000000 1.00000000
vc 0.00000000 0.00000000 0.00000000 1.00000000
vc 0.00000000 0.00000000 0.00000000 1.00000000
vc 0.00000000 0.00000000 0.00000000 1.00000000
vc 0.00000000 0.00000000 0.00000000 1.00000000
vc 0.00000000 0.00000000 0.00000000 1.00000000
vc 0.00000000 0.00000000 0.00000000 1.00000000
vc 0.00000000 0.00000000 0.00000000 1.00000000
vc 0.00000000 0.00000000 0.00000000 1.00000000
vc 0.00000000 0.00000000 0.00000000 1.00000000
vc 0.00000000 0.00000000 0.00000000 1.00000000
vc 0.00000000 0.00000000 0.00000000 1.00000000
vc 0.00000000 0.00000000 0.00000000 1.00000000
vc 0.00000000 0.00000000 0.00000000 1.00000000
vc 0.00000000 0.00000000 0.00000000 1.00000000
vc 0.00000000 0.00000000 0.00000000 1.00000000
vc 0.00000000 0.00000000 0.00000000 1.00000000
vc 0.00000000 0.00000000 0.00000000 1.00000000
vc 0.00000000 0.00000000 0.00000000 1.00000000
vc 0.00000000 0.00000000 0.00000000 1.00000000
vc 0.00000000 0.00000000 0.00000000 1.00000000
vc 0.00000000 0.00000000 0.00000000 1.00000000
vc 0.00000000 0.00000000 0.00000000 1.00000000
g subaru_legacy_4_lod_0
f 2/2/2/2 1/1/1/1 3/3/3/3
f 1/1/1/1 2/2/2/2 35/35/35/35
f 1/1/1/1 4/4/4/4 3/3/3/3
f 70/70/70/70 39/39/39/39 71/71/71/71
f 39/39/39/39 70/70/70/70 5/5/5/5
f 70/70/70/70 6/6/6/6 5/5/5/5
f 6/6/6/6 70/70/70/70 72/72/72/72
f 94/94/94/94 42/42/42/42 7/7/7/7
f 42/42/42/42 94/94/94/94 95/95/95/95
f 7/7/7/7 44/44/44/44 8/8/8/8
f 44/44/44/44 7/7/7/7 42/42/42/42
f 9/9/9/9 8/8/8/8 44/44/44/44
f 8/8/8/8 9/9/9/9 10/10/10/10
f 96/96/96/96 13/13/13/13 12/12/12/12
f 13/13/13/13 97/97/97/97 11/11/11/11
f 97/97/97/97 13/13/13/13 96/96/96/96
f 14/14/14/14 73/73/73/73 49/49/49/49
f 73/73/73/73 14/14/14/14 74/74/74/74
f 98/98/98/98 16/16/16/16 17/17/17/17
f 16/16/16/16 98/98/98/98 99/99/99/99
f 15/15/15/15 100/100/100/100 101/101/101/101
f 100/100/100/100 15/15/15/15 75/75/75/75
f 102/102/102/102 18/18/18/18 103/103/103/103
f 18/18/18/18 102/102/102/102 104/104/104/104
f 19/19/19/19 76/76/76/76 77/77/77/77
f 78/78/78/78 21/21/21/21 79/79/79/79
f 21/21/21/21 78/78/78/78 20/20/20/20
f 80/80/80/80 105/105/105/105 106/106/106/106
f 105/105/105/105 80/80/80/80 81/81/81/81
f 107/107/107/107 108/108/108/108 109/109/109/109
f 108/108/108/108 107/107/107/107 110/110/110/110
f 21/21/21/21 22/22/22/22 19/19/19/19
f 22/22/22/22 21/21/21/21 20/20/20/20
f 22/22/22/22 76/76/76/76 19/19/19/19
f 76/76/76/76 22/22/22/22 82/82/82/82
f 111/111/111/111 81/81/81/81 112/112/112/112
f 81/81/81/81 111/111/111/111 105/105/105/105
f 24/24/24/24 26/26/26/26 25/25/25/25
f 26/26/26/26 28/28/28/28 27/27/27/27
f 24/24/24/24 28/28/28/28 26/26/26/26
f 23/23/23/23 28/28/28/28 24/24/24/24
f 30/30/30/30 32/32/32/32 31/31/31/31
f 32/32/32/32 34/34/34/34 33/33/33/33
f 30/30/30/30 34/34/34/34 32/32/32/32
f 29/29/29/29 34/34/34/34 30/30/30/30
f 2/2/2/2 36/36/36/36 35/35/35/35
f 36/36/36/36 2/2/2/2 37/37/37/37
f 36/36/36/36 37/37/37/37 38/38/38/38
f 83/83/83/83 39/39/39/39 40/40/40/40
f 39/39/39/39 83/83/83/83 71/71/71/71
f 83/83/83/83 41/41/41/41 84/84/84/84
f 41/41/41/41 83/83/83/83 40/40/40/40
f 113/113/113/113 42/42/42/42 95/95/95/95
f 42/42/42/42 113/113/113/113 43/43/43/43
f 43/43/43/43 44/44/44/44 42/42/42/42
f 44/44/44/44 43/43/43/43 45/45/45/45
f 9/9/9/9 45/45/45/45 46/46/46/46
f 45/45/45/45 9/9/9/9 44/44/44/44
f 114/114/114/114 47/47/47/47 48/48/48/48
f 48/48/48/48 97/97/97/97 114/114/114/114
f 97/97/97/97 48/48/48/48 11/11/11/11
f 50/50/50/50 115/115/115/115 85/85/85/85
f 115/115/115/115 50/50/50/50 49/49/49/49
f 116/116/116/116 117/117/117/117 118/118/118/118
f 117/117/117/117 116/116/116/116 52/52/52/52
f 51/51/51/51 119/119/119/119 86/86/86/86
f 119/119/119/119 51/51/51/51 120/120/120/120
f 121/121/121/121 53/53/53/53 122/122/122/122
f 53/53/53/53 121/121/121/121 123/123/123/123
f 54/54/54/54 87/87/87/87 88/88/88/88
f 89/89/89/89 56/56/56/56 55/55/55/55
f 56/56/56/56 89/89/89/89 90/90/90/90
f 91/91/91/91 124/124/124/124 125/125/125/125
f 125/125/125/125 92/92/92/92 91/91/91/91
f 126/126/126/126 127/127/127/127 128/128/128/128
f 127/127/127/127 126/126/126/126 129/129/129/129
f 56/56/56/56 57/57/57/57 55/55/55/55
f 57/57/57/57 56/56/56/56 54/54/54/54
f 57/57/57/57 88/88/88/88 93/93/93/93
f 88/88/88/88 57/57/57/57 54/54/54/54
f 130/130/130/130 131/131/131/131 92/92/92/92
f 92/92/92/92 125/125/125/125 130/130/130/130
f 63/63/63/63 61/61/61/61 62/62/62/62
f 61/61/61/61 59/59/59/59 60/60/60/60
f 63/63/63/63 59/59/59/59 61/61/61/61
f 58/58/58/58 59/59/59/59 63/63/63/63
f 69/69/69/69 67/67/67/67 68/68/68/68
f 67/67/67/67 65/65/65/65 66/66/66/66
f 69/69/69/69 65/65/65/65 67/67/67/67
f 64/64/64/64 65/65/65/65 69/69/69/69
