# Blender v2.79 (sub 0) OBJ File: 'sunday-cars.blend'
# www.blender.org
mtllib Renault Megane II_LOD.mtl
o Renault_Megane_II_LOD_renault_megane_II_lod
v 0.000000 1.014622 -1.809241
v 0.530853 1.374003 -1.495417
v 0.689701 1.013522 -1.519060
v 0.000000 1.393167 -1.658373
v 0.804687 0.829764 -1.700671
v 0.000000 0.795906 -2.059649
v 0.787949 0.312483 -1.738567
v 0.000000 0.296623 -2.030623
v 0.000000 0.546000 2.139628
v 0.729073 0.222773 1.907113
v 0.756896 0.552599 1.923246
v 0.000000 0.221477 2.092520
v 0.000000 0.822657 1.926148
v 0.712968 0.796907 1.733074
v 0.000000 0.987135 1.220215
v 0.759371 0.971744 1.000591
v 0.000000 1.389400 0.348889
v 0.590057 1.356721 0.265305
v 0.863654 0.723035 0.846688
v 0.845826 0.188694 0.892607
v -0.530853 1.374003 -1.495417
v -0.689701 1.013522 -1.519060
v -0.804687 0.829764 -1.700671
v -0.787949 0.312483 -1.738567
v -0.729072 0.222773 1.907113
v -0.756895 0.552599 1.923246
v -0.712967 0.796907 1.733074
v -0.759370 0.971744 1.000591
v -0.590057 1.356721 0.265305
v -0.863654 0.723035 0.846688
v -0.845826 0.188694 0.892607
vt 0.848670 0.335250
vt 0.946520 0.401720
vt 0.975800 0.335050
vt 0.848670 0.405260
vt 0.185690 0.885920
vt 0.348650 0.907980
vt 0.185690 0.835040
vt 0.325360 0.944880
vt 0.540830 0.925850
vt 0.683670 0.837930
vt 0.540830 0.835040
vt 0.686710 0.932010
vt 0.847260 0.079320
vt 0.710360 0.018430
vt 0.705130 0.080570
vt 0.847260 0.018180
vt 0.847260 0.131450
vt 0.713380 0.126590
vt 0.629530 0.031560
vt 0.533550 0.154920
vt 0.658820 0.159850
vt 0.499870 0.018180
vt 0.378930 0.148830
vt 0.368210 0.043190
vt 0.055340 0.041430
vt 0.022730 0.134810
vt 0.022730 0.588860
vt 0.482020 0.680700
vt 0.493890 0.585160
vt 0.025940 0.681920
vt 0.675110 0.656930
vt 0.674420 0.597540
vt 0.056630 0.715390
vt 0.372600 0.788580
vt 0.507350 0.725690
vt 0.057680 0.779190
vt 0.639240 0.699130
vt 0.750820 0.401720
vt 0.721540 0.335050
vt 0.022730 0.907980
vt 0.046010 0.944880
vt 0.397990 0.837930
vt 0.394960 0.932010
vt 0.984170 0.018430
vt 0.989390 0.080570
vt 0.981150 0.126590
vt 0.619600 0.285440
vt 0.489290 0.288590
vt 0.359990 0.253300
vt 0.047950 0.230460
vt 0.675230 0.339620
vt 0.215770 0.430610
vt 0.671850 0.432670
vt 0.204070 0.335050
vt 0.022730 0.406480
vt 0.023520 0.347100
vt 0.641090 0.466100
vt 0.324990 0.538700
vt 0.639920 0.529880
vt 0.190360 0.475560
vt 0.058510 0.448750
vn 0.0000 0.5926 -0.8055
vn 0.3510 0.2656 -0.8979
vn 0.3217 0.5614 -0.7624
vn 0.0000 0.3702 -0.9289
vn 0.3571 0.4367 -0.8257
vn -0.0000 0.3601 -0.9329
vn 0.3871 0.0186 -0.9219
vn -0.0000 -0.0580 -0.9983
vn 0.2531 0.2370 0.9380
vn 0.2674 -0.0872 0.9596
vn 0.2654 0.3060 0.9143
vn 0.2443 -0.1393 0.9596
vn 0.2181 0.6029 0.7674
vn 0.2253 0.6234 0.7488
vn 0.0919 0.9685 0.2315
vn -0.0000 0.9502 0.3117
vn -0.0000 0.9739 0.2269
vn 0.1116 0.9321 0.3444
vn -0.0000 0.9018 0.4321
vn 0.1117 0.8907 0.4406
vn 0.0390 0.9992 0.0029
vn 0.0000 1.0000 0.0067
vn 0.0564 0.9984 0.0079
vn 0.0000 1.0000 0.0019
vn 0.9992 -0.0312 -0.0243
vn 0.9833 0.1788 0.0352
vn 0.9985 -0.0364 0.0415
vn 0.9834 0.1807 -0.0152
vn 0.9920 0.0425 0.1186
vn 0.9891 -0.0892 0.1168
vn 0.8807 0.4735 -0.0097
vn 0.9273 0.3738 -0.0201
vn 0.9368 0.3431 0.0682
vn 0.9141 0.4046 -0.0268
vn 0.9551 0.2688 0.1247
vn -0.3510 0.2656 -0.8979
vn -0.3217 0.5614 -0.7624
vn -0.3571 0.4367 -0.8257
vn -0.3871 0.0186 -0.9219
vn -0.2531 0.2370 0.9380
vn -0.2674 -0.0872 0.9596
vn -0.2443 -0.1393 0.9596
vn -0.2654 0.3060 0.9143
vn -0.2181 0.6029 0.7674
vn -0.2253 0.6234 0.7488
vn -0.0919 0.9685 0.2315
vn -0.1116 0.9321 0.3444
vn -0.1117 0.8907 0.4406
vn -0.0390 0.9992 0.0029
vn -0.0564 0.9984 0.0079
vn -0.9992 -0.0312 -0.0243
vn -0.9833 0.1788 0.0352
vn -0.9834 0.1807 -0.0152
vn -0.9985 -0.0364 0.0415
vn -0.9920 0.0425 0.1186
vn -0.9891 -0.0892 0.1168
vn -0.8807 0.4735 -0.0097
vn -0.9273 0.3738 -0.0201
vn -0.9141 0.4046 -0.0268
vn -0.9368 0.3431 0.0682
vn -0.9551 0.2688 0.1247
usemtl Renault_Megane_II_LOD
s 1
f 1/1/1 2/2/2 3/3/3
f 2/2/2 1/1/1 4/4/4
f 1/5/1 5/6/5 6/7/6
f 5/6/5 1/5/1 3/8/3
f 6/9/6 7/10/7 8/11/8
f 7/10/7 6/9/6 5/12/5
f 9/13/9 10/14/10 11/15/11
f 10/14/10 9/13/9 12/16/12
f 11/15/11 13/17/13 9/13/9
f 13/17/13 11/15/11 14/18/14
f 14/19/15 15/20/16 13/21/17
f 15/20/16 14/19/15 16/22/18
f 17/23/19 16/22/18 18/24/20
f 16/22/18 17/23/19 15/20/16
f 2/25/21 17/23/22 18/24/23
f 17/23/22 2/25/21 4/26/24
f 7/27/25 19/28/26 20/29/27
f 19/28/26 7/27/25 5/30/28
f 11/31/29 20/29/27 19/28/26
f 20/29/27 11/31/29 10/32/30
f 3/33/31 18/34/32 16/35/33
f 18/34/32 3/33/31 2/36/34
f 3/33/31 19/28/26 5/30/28
f 19/28/26 3/33/31 16/35/33
f 11/31/29 16/35/33 14/37/35
f 16/35/33 11/31/29 19/28/26
f 1/1/1 21/38/36 4/4/4
f 21/38/36 1/1/1 22/39/37
f 1/5/1 23/40/38 22/41/37
f 23/40/38 1/5/1 6/7/6
f 6/9/6 24/42/39 23/43/38
f 24/42/39 6/9/6 8/11/8
f 9/13/40 25/44/41 12/16/42
f 25/44/41 9/13/40 26/45/43
f 26/45/43 13/17/44 27/46/45
f 13/17/44 26/45/43 9/13/40
f 27/47/46 15/20/16 28/48/47
f 15/20/16 27/47/46 13/21/17
f 17/23/19 28/48/47 15/20/16
f 28/48/47 17/23/19 29/49/48
f 21/50/49 17/23/22 4/26/24
f 17/23/22 21/50/49 29/49/50
f 24/51/51 30/52/52 23/53/53
f 30/52/52 24/51/51 31/54/54
f 26/55/55 31/54/54 25/56/56
f 31/54/54 26/55/55 30/52/52
f 22/57/57 29/58/58 21/59/59
f 29/58/58 22/57/57 28/60/60
f 22/57/57 30/52/52 28/60/60
f 30/52/52 22/57/57 23/53/53
f 26/55/55 28/60/60 30/52/52
f 28/60/60 26/55/55 27/61/61
