# Blender v2.79 (sub 0) OBJ File: 'sunday-cars.blend'
# www.blender.org
mtllib BMW E39 M5_LOD.mtl
o BMW_E39_M5_LOD_bmw_e39_m5_lod
v 0.000000 1.367512 0.326200
v 0.761769 0.957168 0.908193
v 0.601020 1.321386 0.266226
v 0.000000 0.988214 1.130437
v 0.742697 0.686883 2.107321
v 0.000000 0.699216 2.313376
v 0.776433 0.232045 2.134483
v 0.560220 1.395193 -0.417138
v 0.000000 1.440473 -0.433712
v 0.569196 1.354510 -1.091112
v 0.000000 1.392542 -1.187439
v 0.651882 0.983839 -2.231891
v 0.000000 1.071170 -1.884540
v 0.647671 1.063538 -1.735146
v 0.000000 1.014000 -2.313573
v 0.000000 0.317798 -2.286031
v 0.712256 0.302817 -2.223708
v 0.887248 0.756710 0.938237
v 0.848194 0.235899 -0.183532
v 0.880932 0.799158 -0.194135
v 0.855273 0.226544 0.937490
v 0.785094 0.980675 -0.240227
v 0.815156 0.810003 -1.714692
v 0.829637 0.272881 -1.725626
v 0.000000 0.219373 2.296703
v -0.761769 0.957168 0.908193
v -0.601020 1.321386 0.266226
v -0.742697 0.686883 2.107321
v -0.776433 0.232045 2.134483
v -0.560220 1.395193 -0.417138
v -0.569196 1.354510 -1.091112
v -0.651882 0.983839 -2.231891
v -0.647671 1.063538 -1.735146
v -0.712256 0.302817 -2.223708
v -0.887248 0.756710 0.938237
v -0.848194 0.235899 -0.183532
v -0.855273 0.226544 0.937490
v -0.880932 0.799158 -0.194135
v -0.785094 0.980675 -0.240227
v -0.815156 0.810003 -1.714692
v -0.829637 0.272881 -1.725626
vt 0.438580 0.178660
vt 0.317620 0.333140
vt 0.451050 0.300540
vt 0.271430 0.178660
vt 0.068390 0.329270
vt 0.025560 0.178660
vt 0.679270 0.975060
vt 0.693470 0.882820
vt 0.517890 0.880320
vt 0.593080 0.292270
vt 0.596520 0.178660
vt 0.733160 0.294090
vt 0.753180 0.178660
vt 0.970260 0.310860
vt 0.898070 0.178660
vt 0.867010 0.310000
vt 0.987240 0.178660
vt 0.038790 0.821010
vt 0.174280 0.956080
vt 0.174280 0.814890
vt 0.026240 0.959120
vt 0.677970 0.460200
vt 0.670280 0.507960
vt 0.922980 0.471070
vt 0.458360 0.369890
vt 0.444130 0.461670
vt 0.689180 0.373880
vt 0.534030 0.583930
vt 0.432920 0.502840
vt 0.392690 0.597100
vt 0.132230 0.462200
vt 0.126290 0.523670
vt 0.254590 0.585380
vt 0.140540 0.369470
vt 0.039780 0.384770
vt 0.025560 0.506880
vt 0.937080 0.390370
vt 0.517890 0.977630
vt 0.317620 0.024180
vt 0.451050 0.056780
vt 0.068390 0.028050
vt 0.356520 0.975060
vt 0.363530 0.882820
vt 0.593080 0.065050
vt 0.733160 0.063230
vt 0.970260 0.046470
vt 0.867010 0.047320
vt 0.309770 0.821010
vt 0.322320 0.959120
vt 0.284540 0.714260
vt 0.039510 0.724680
vt 0.292130 0.762030
vt 0.504320 0.624350
vt 0.273490 0.627920
vt 0.518370 0.716150
vt 0.428240 0.838240
vt 0.529500 0.757330
vt 0.569550 0.851670
vt 0.830270 0.717240
vt 0.836090 0.778730
vt 0.707680 0.840200
vt 0.822140 0.624500
vt 0.922870 0.639980
vt 0.936860 0.762110
vt 0.025560 0.643960
vn 0.0000 0.8936 0.4488
vn 0.1419 0.8869 0.4396
vn 0.1140 0.8761 0.4685
vn -0.0000 0.9045 0.4266
vn 0.0962 0.9694 0.2259
vn 0.0895 0.9689 0.2308
vn 0.1038 0.9699 0.2203
vn 0.0817 0.9682 0.2365
vn 0.2458 0.0376 0.9686
vn 0.2677 0.0772 0.9604
vn 0.0000 0.0031 1.0000
vn 0.0000 0.9945 0.1051
vn 0.0857 0.9961 0.0227
vn -0.0000 0.9998 0.0181
vn 0.0862 0.9911 0.1019
vn 0.0819 0.9949 -0.0595
vn 0.0000 0.9980 -0.0635
vn 0.0533 0.9875 -0.1483
vn 0.0000 0.9898 -0.1425
vn 0.0480 0.9863 -0.1578
vn 0.0000 0.9912 -0.1321
vn 0.1154 0.9058 -0.4077
vn 0.0000 0.9129 -0.4081
vn 0.1277 0.9096 -0.3954
vn 0.0000 0.9081 -0.4187
vn 0.1045 -0.0215 -0.9943
vn -0.0000 -0.0215 -0.9998
vn -0.0000 -0.0395 -0.9992
vn 0.0871 -0.0042 -0.9962
vn 0.9642 0.2581 0.0606
vn 0.8523 0.5194 0.0610
vn 0.9831 0.1299 0.1293
vn 0.9982 -0.0603 -0.0047
vn 0.9693 0.2455 0.0103
vn 0.9977 -0.0602 0.0296
vn 0.8913 0.4530 0.0192
vn 0.8805 0.4736 0.0178
vn 0.8792 0.4765 -0.0010
vn 0.9522 0.3022 -0.0460
vn 0.8901 0.4543 -0.0368
vn 0.9809 0.1925 -0.0267
vn 0.8608 0.5064 -0.0511
vn 0.9132 0.4039 -0.0543
vn 0.8818 0.4713 -0.0167
vn 0.9993 0.0084 -0.0364
vn 0.9984 -0.0554 -0.0119
vn 0.9489 0.2458 -0.1979
vn 0.9663 0.0562 -0.2514
vn 0.9469 0.2344 -0.2201
vn 0.9733 0.0309 -0.2275
vn 0.8347 0.5449 -0.0803
vn 0.9930 0.0424 0.1106
vn 0.0000 -0.0347 0.9994
vn -0.1419 0.8869 0.4396
vn -0.1140 0.8761 0.4685
vn -0.0962 0.9694 0.2259
vn -0.0895 0.9689 0.2308
vn -0.0817 0.9682 0.2365
vn -0.1038 0.9699 0.2203
vn -0.2458 0.0376 0.9686
vn -0.2677 0.0772 0.9604
vn -0.0835 0.9962 0.0257
vn -0.0862 0.9911 0.1019
vn -0.0819 0.9949 -0.0595
vn -0.0533 0.9875 -0.1483
vn -0.0480 0.9863 -0.1578
vn -0.1154 0.9058 -0.4077
vn -0.1277 0.9096 -0.3954
vn -0.1045 -0.0215 -0.9943
vn -0.0871 -0.0042 -0.9962
vn -0.9643 0.2577 0.0610
vn -0.9831 0.1299 0.1293
vn -0.8523 0.5194 0.0610
vn -0.9982 -0.0603 -0.0047
vn -0.9977 -0.0602 0.0296
vn -0.9697 0.2441 0.0112
vn -0.8913 0.4530 0.0192
vn -0.8849 0.4652 0.0219
vn -0.8792 0.4765 -0.0010
vn -0.9537 0.2762 -0.1187
vn -0.8858 0.4623 -0.0406
vn -0.8496 0.5235 -0.0639
vn -0.9806 0.1939 -0.0278
vn -0.9132 0.4039 -0.0543
vn -0.8818 0.4713 -0.0167
vn -0.9912 0.0195 -0.1310
vn -0.9984 -0.0554 -0.0119
vn -0.9663 0.0562 -0.2514
vn -0.9469 0.2344 -0.2201
vn -0.9930 0.0424 0.1106
usemtl BMW_E39_M5_LOD
s 1
f 1/1/1 2/2/2 3/3/3
f 2/2/2 1/1/1 4/4/4
f 4/4/5 5/5/6 2/2/7
f 5/5/6 4/4/5 6/6/8
f 7/7/9 5/8/10 6/9/11
f 1/1/12 8/10/13 9/11/14
f 8/10/13 1/1/12 3/3/15
f 9/11/14 10/12/16 11/13/17
f 10/12/16 9/11/14 8/10/13
f 12/14/18 13/15/19 14/16/20
f 13/15/19 12/14/18 15/17/21
f 14/16/22 11/13/23 10/12/24
f 11/13/23 14/16/22 13/15/25
f 12/18/26 16/19/27 15/20/28
f 16/19/27 12/18/26 17/21/29
f 18/22/30 2/23/31 5/24/32
f 18/22/30 19/25/33 20/26/34
f 19/25/33 18/22/30 21/27/35
f 3/28/36 22/29/37 8/30/38
f 22/29/37 3/28/36 2/23/31
f 23/31/39 22/29/40 20/26/41
f 22/29/40 23/31/39 14/32/42
f 22/29/40 10/33/43 8/30/44
f 10/33/43 22/29/40 14/32/42
f 20/26/41 24/34/45 23/31/39
f 24/34/45 20/26/41 19/25/46
f 23/31/47 17/35/48 12/36/49
f 17/35/48 23/31/47 24/34/50
f 14/32/51 23/31/47 12/36/49
f 20/26/34 2/23/31 18/22/30
f 2/23/31 20/26/34 22/29/37
f 7/37/52 21/27/35 18/22/30
f 7/37/52 18/22/30 5/24/32
f 7/7/9 6/9/11 25/38/53
f 1/1/1 26/39/54 4/4/4
f 26/39/54 1/1/1 27/40/55
f 4/4/56 28/41/57 6/6/58
f 28/41/57 4/4/56 26/39/59
f 29/42/60 6/9/11 28/43/61
f 1/1/12 30/44/62 27/40/63
f 30/44/62 1/1/12 9/11/14
f 9/11/14 31/45/64 30/44/62
f 31/45/64 9/11/14 11/13/17
f 32/46/65 13/15/19 15/17/21
f 13/15/19 32/46/65 33/47/66
f 33/47/67 11/13/23 13/15/25
f 11/13/23 33/47/67 31/45/68
f 32/48/69 16/19/27 34/49/70
f 16/19/27 32/48/69 15/20/28
f 35/50/71 28/51/72 26/52/73
f 35/50/71 36/53/74 37/54/75
f 36/53/74 35/50/71 38/55/76
f 27/56/77 39/57/78 26/52/73
f 39/57/78 27/56/77 30/58/79
f 40/59/80 39/57/81 33/60/82
f 39/57/81 40/59/80 38/55/83
f 39/57/81 31/61/84 33/60/82
f 31/61/84 39/57/81 30/58/85
f 38/55/83 41/62/86 36/53/87
f 41/62/86 38/55/83 40/59/80
f 40/59/80 34/63/88 41/62/86
f 34/63/88 40/59/80 32/64/89
f 33/60/82 32/64/89 40/59/80
f 38/55/76 26/52/73 39/57/78
f 26/52/73 38/55/76 35/50/71
f 29/65/90 35/50/71 37/54/75
f 29/65/90 28/51/72 35/50/71
f 29/42/60 25/38/53 6/9/11
