# Blender v2.79 (sub 0) OBJ File: ''
# www.blender.org
mtllib BMW E39 M5_LOD.mtl
o bmw_e39_lod_0
v 0.000000 1.367512 0.326200
v 0.761769 0.957168 0.908193
v 0.601020 1.321386 0.266226
v 0.000000 0.988214 1.130437
v 0.742697 0.686883 2.107321
v 0.000000 0.699216 2.313376
v 0.776433 0.232045 2.134483
v 0.560220 1.395193 -0.417138
v 0.000000 1.440473 -0.433712
v 0.569196 1.354510 -1.091112
v 0.000000 1.392542 -1.187439
v 0.651882 0.983839 -2.231891
v 0.000000 1.071170 -1.884540
v 0.647671 1.063538 -1.735146
v 0.000000 1.014000 -2.313573
v 0.000000 0.317798 -2.286031
v 0.712256 0.302817 -2.223708
v 0.887248 0.756710 0.938237
v 0.848194 0.235899 -0.183532
v 0.880932 0.799158 -0.194135
v 0.855273 0.226544 0.937490
v 0.785094 0.980675 -0.240227
v 0.815156 0.810003 -1.714692
v 0.829637 0.272881 -1.725626
v 0.000000 0.219373 2.296703
v 0.859821 0.480000 1.792856
v 0.859821 0.480000 1.238600
v 0.859821 0.640000 1.515728
v 0.859821 -0.000000 1.515728
v 0.859821 0.160000 1.238600
v 0.859821 0.160000 1.792856
v 0.850142 0.480000 -1.027003
v 0.850142 0.480000 -1.581259
v 0.850142 0.640000 -1.304131
v 0.850142 0.000000 -1.304131
v 0.850142 0.160000 -1.581259
v 0.850142 0.160000 -1.027003
v -0.761769 0.957168 0.908193
v -0.601020 1.321386 0.266226
v -0.742697 0.686883 2.107321
v -0.776433 0.232045 2.134483
v -0.560220 1.395193 -0.417138
v -0.569196 1.354510 -1.091112
v -0.651882 0.983839 -2.231891
v -0.647671 1.063538 -1.735146
v -0.712256 0.302817 -2.223708
v -0.887248 0.756710 0.938237
v -0.848194 0.235899 -0.183532
v -0.855273 0.226544 0.937490
v -0.880932 0.799158 -0.194135
v -0.785094 0.980675 -0.240227
v -0.815156 0.810003 -1.714692
v -0.829637 0.272881 -1.725626
v -0.859821 -0.000000 1.515728
v -0.859821 0.480000 1.238600
v -0.859821 0.160000 1.238600
v -0.859821 0.480000 1.792856
v -0.859821 0.640000 1.515728
v -0.859821 0.160000 1.792856
v -0.850142 0.000000 -1.304131
v -0.850142 0.480000 -1.581259
v -0.850142 0.160000 -1.581259
v -0.850142 0.480000 -1.027003
v -0.850142 0.640000 -1.304131
v -0.850142 0.160000 -1.027003
vt 0.438580 0.178660
vt 0.317620 0.333140
vt 0.451050 0.300540
vt 0.271430 0.178660
vt 0.068390 0.329270
vt 0.025560 0.178660
vt 0.679270 0.975060
vt 0.693470 0.882820
vt 0.517890 0.880320
vt 0.593080 0.292270
vt 0.596520 0.178660
vt 0.733160 0.294090
vt 0.753180 0.178660
vt 0.970260 0.310860
vt 0.898070 0.178660
vt 0.867010 0.310000
vt 0.987240 0.178660
vt 0.038790 0.821010
vt 0.174280 0.956080
vt 0.174280 0.814890
vt 0.026240 0.959120
vt 0.677970 0.460200
vt 0.670280 0.507960
vt 0.922980 0.471070
vt 0.458360 0.369890
vt 0.444130 0.461670
vt 0.689180 0.373880
vt 0.534030 0.583930
vt 0.432920 0.502840
vt 0.392690 0.597100
vt 0.132230 0.462200
vt 0.126290 0.523670
vt 0.254590 0.585380
vt 0.140540 0.369470
vt 0.039780 0.384770
vt 0.025560 0.506880
vt 0.937080 0.390370
vt 0.517890 0.977630
vt 0.839520 0.505040
vt 0.839520 0.607450
vt 0.869410 0.556250
vt 0.749850 0.556250
vt 0.779740 0.607450
vt 0.779740 0.505040
vt 0.883200 0.899920
vt 0.985610 0.899920
vt 0.934410 0.870030
vt 0.934410 0.989590
vt 0.985610 0.959700
vt 0.883200 0.959700
vt 0.317620 0.024180
vt 0.451050 0.056780
vt 0.068390 0.028050
vt 0.356520 0.975060
vt 0.363530 0.882820
vt 0.593080 0.065050
vt 0.733160 0.063230
vt 0.970260 0.046470
vt 0.867010 0.047320
vt 0.309770 0.821010
vt 0.322320 0.959120
vt 0.284540 0.714260
vt 0.039510 0.724680
vt 0.292130 0.762030
vt 0.504320 0.624350
vt 0.273490 0.627920
vt 0.518370 0.716150
vt 0.428240 0.838240
vt 0.529500 0.757330
vt 0.569550 0.851670
vt 0.830270 0.717240
vt 0.836090 0.778730
vt 0.707680 0.840200
vt 0.822140 0.624500
vt 0.922870 0.639980
vt 0.936860 0.762110
vt 0.025560 0.643960
vt 0.779510 0.982690
vt 0.736320 0.888900
vt 0.731110 0.948460
vt 0.838330 0.897830
vt 0.789930 0.863590
vt 0.833120 0.957380
vt 0.938190 0.620690
vt 0.886990 0.531020
vt 0.886990 0.590800
vt 0.989390 0.531020
vt 0.938190 0.501130
vt 0.989390 0.590800
vn 0.1140 0.8761 0.4685
vn 0.1593 0.8929 0.4211
vn 0.1038 0.9699 0.2203
vn 0.0817 0.9682 0.2365
vn 0.2677 0.0772 0.9604
vn 0.0774 0.9924 0.0953
vn 0.0862 0.9911 0.1019
vn 0.0772 0.9950 -0.0633
vn 0.0822 0.9949 -0.0590
vn 0.0480 0.9863 -0.1578
vn 0.0623 0.9893 -0.1318
vn 0.1277 0.9096 -0.3954
vn 0.1067 0.9030 -0.4163
vn 0.1224 -0.0392 -0.9917
vn 0.0871 -0.0042 -0.9962
vn 0.8307 0.5402 0.1350
vn 0.9983 -0.0582 -0.0077
vn 0.9982 -0.0602 -0.0068
vn 0.8792 0.4765 -0.0010
vn 0.8761 0.4821 -0.0019
vn 0.8943 0.4463 0.0328
vn 0.8959 0.4435 0.0273
vn 0.8874 0.4596 -0.0351
vn 0.8904 0.4539 -0.0356
vn 0.8352 0.5474 -0.0528
vn 0.8352 0.5480 -0.0464
vn 0.8800 0.4744 -0.0220
vn 0.8818 0.4713 -0.0167
vn 0.9197 0.3876 -0.0631
vn 0.9189 0.3884 -0.0694
vn 0.9987 0.0278 -0.0430
vn 0.9982 -0.0583 -0.0134
vn 0.9580 0.0816 -0.2750
vn 0.9733 0.0309 -0.2275
vn 0.8347 0.5449 -0.0803
vn 0.8465 0.5322 0.0152
vn 0.8811 0.4722 0.0276
vn 0.8816 0.4707 0.0338
vn 0.9960 -0.0602 0.0659
vn 0.9886 0.0809 0.1271
vn 0.2049 -0.0340 0.9782
vn 1.0000 0.0000 0.0000
vn -0.1593 0.8929 0.4211
vn -0.1140 0.8761 0.4685
vn -0.0817 0.9682 0.2365
vn -0.1038 0.9699 0.2203
vn -0.2677 0.0772 0.9604
vn -0.0862 0.9911 0.1019
vn -0.0774 0.9924 0.0953
vn -0.0822 0.9949 -0.0590
vn -0.0772 0.9950 -0.0633
vn -0.0623 0.9893 -0.1318
vn -0.0480 0.9863 -0.1578
vn -0.1067 0.9030 -0.4163
vn -0.1277 0.9096 -0.3954
vn -0.0871 -0.0042 -0.9962
vn -0.1224 -0.0392 -0.9917
vn -0.8307 0.5402 0.1350
vn -0.9982 -0.0602 -0.0068
vn -0.9983 -0.0582 -0.0077
vn -0.8959 0.4435 0.0273
vn -0.8953 0.4443 0.0336
vn -0.8766 0.4812 0.0026
vn -0.8792 0.4765 -0.0010
vn -0.8352 0.5480 -0.0464
vn -0.8348 0.5481 -0.0528
vn -0.8887 0.4566 -0.0406
vn -0.8874 0.4596 -0.0351
vn -0.9184 0.3896 -0.0690
vn -0.9197 0.3876 -0.0631
vn -0.8818 0.4713 -0.0167
vn -0.8792 0.4761 -0.0200
vn -0.9982 -0.0583 -0.0134
vn -0.9987 0.0278 -0.0430
vn -0.9733 0.0309 -0.2275
vn -0.9580 0.0816 -0.2750
vn -0.8347 0.5449 -0.0803
vn -0.8811 0.4722 0.0276
vn -0.8835 0.4673 0.0310
vn -0.8465 0.5322 0.0152
vn -0.9960 -0.0602 0.0659
vn -0.9886 0.0809 0.1271
vn -0.2049 -0.0340 0.9782
vn -1.0000 0.0000 0.0000
usemtl None.003
s off
f 1/1/1 2/2/1 3/3/1
f 2/2/2 1/1/2 4/4/2
f 4/4/3 5/5/3 2/2/3
f 5/5/4 4/4/4 6/6/4
f 7/7/5 5/8/5 6/9/5
f 1/1/6 8/10/6 9/11/6
f 8/10/7 1/1/7 3/3/7
f 9/11/8 10/12/8 11/13/8
f 10/12/9 9/11/9 8/10/9
f 12/14/10 13/15/10 14/16/10
f 13/15/11 12/14/11 15/17/11
f 14/16/12 11/13/12 10/12/12
f 11/13/13 14/16/13 13/15/13
f 12/18/14 16/19/14 15/20/14
f 16/19/15 12/18/15 17/21/15
f 18/22/16 2/23/16 5/24/16
f 18/22/17 19/25/17 20/26/17
f 19/25/18 18/22/18 21/27/18
f 3/28/19 22/29/20 8/30/19
f 22/29/21 3/28/22 2/23/22
f 23/31/23 22/29/24 20/26/23
f 22/29/25 23/31/26 14/32/26
f 22/29/27 10/33/28 8/30/28
f 10/33/29 22/29/30 14/32/29
f 20/26/31 24/34/31 23/31/31
f 24/34/32 20/26/32 19/25/32
f 23/31/33 17/35/33 12/36/33
f 17/35/34 23/31/34 24/34/34
f 14/32/35 23/31/35 12/36/35
f 20/26/36 2/23/36 18/22/36
f 2/23/37 20/26/37 22/29/38
f 7/37/39 21/27/39 18/22/39
f 7/37/40 18/22/40 5/24/40
f 7/7/41 6/9/41 25/38/41
f 26/39/42 27/40/42 28/41/42
f 27/40/42 29/42/42 30/43/42
f 26/39/42 29/42/42 27/40/42
f 31/44/42 29/42/42 26/39/42
f 32/45/42 33/46/42 34/47/42
f 33/46/42 35/48/42 36/49/42
f 32/45/42 35/48/42 33/46/42
f 37/50/42 35/48/42 32/45/42
f 1/1/43 38/51/43 4/4/43
f 38/51/44 1/1/44 39/52/44
f 4/4/45 40/53/45 6/6/45
f 40/53/46 4/4/46 38/51/46
f 41/54/47 6/9/47 40/55/47
f 1/1/48 42/56/48 39/52/48
f 42/56/49 1/1/49 9/11/49
f 9/11/50 43/57/50 42/56/50
f 43/57/51 9/11/51 11/13/51
f 44/58/52 13/15/52 15/17/52
f 13/15/53 44/58/53 45/59/53
f 45/59/54 11/13/54 13/15/54
f 11/13/55 45/59/55 43/57/55
f 44/60/56 16/19/56 46/61/56
f 16/19/57 44/60/57 15/20/57
f 47/62/58 40/63/58 38/64/58
f 47/62/59 48/65/59 49/66/59
f 48/65/60 47/62/60 50/67/60
f 39/68/61 51/69/62 38/64/61
f 51/69/63 39/68/64 42/70/64
f 52/71/65 51/69/66 45/72/65
f 51/69/67 52/71/68 50/67/68
f 51/69/69 43/73/70 45/72/70
f 43/73/71 51/69/72 42/70/71
f 50/67/73 53/74/73 48/65/73
f 53/74/74 50/67/74 52/71/74
f 52/71/75 46/75/75 53/74/75
f 46/75/76 52/71/76 44/76/76
f 45/72/77 44/76/77 52/71/77
f 50/67/78 38/64/78 51/69/79
f 38/64/80 50/67/80 47/62/80
f 41/77/81 47/62/81 49/66/81
f 41/77/82 40/63/82 47/62/82
f 41/54/83 25/38/83 6/9/83
f 54/78/84 55/79/84 56/80/84
f 55/79/84 57/81/84 58/82/84
f 54/78/84 57/81/84 55/79/84
f 59/83/84 57/81/84 54/78/84
f 60/84/84 61/85/84 62/86/84
f 61/85/84 63/87/84 64/88/84
f 60/84/84 63/87/84 61/85/84
f 65/89/84 63/87/84 60/84/84
