# Blender v2.79 (sub 7) OBJ File: 'fra_road_signs.blend'
# www.blender.org
mtllib fra_regulatory_road_sign.mtl
o regulatory_fra_regulatory_road_sign
v 0.097382 2.325057 0.009252
v 0.186812 2.293058 0.034252
v 0.186812 2.293058 0.009252
v 0.331566 2.177019 0.034252
v 0.331566 2.177019 0.009252
v 0.381766 2.098104 0.034252
v 0.381766 2.098104 0.009252
v 0.413764 2.008674 0.034252
v 0.413764 2.008674 0.009252
v 0.425000 1.911293 0.034252
v 0.413764 1.813911 0.034252
v 0.413764 1.813911 0.009252
v 0.381765 1.724481 0.009252
v 0.331565 1.645566 0.034252
v -0.000000 1.486293 0.009252
v -0.186812 1.529527 0.034252
v -0.186812 1.529527 0.009252
v -0.331566 1.645566 0.034252
v -0.381765 1.724481 0.034252
v -0.413764 1.813911 0.009252
v -0.425000 1.911293 0.034252
v -0.425000 1.911293 0.009252
v -0.413764 2.008675 0.034252
v -0.413764 2.008675 0.009252
v -0.381765 2.098104 0.009252
v -0.265727 2.242858 0.034252
v -0.186811 2.293058 0.009252
v -0.097382 2.325057 0.034252
v 0.265727 2.242858 0.009252
v 0.000000 2.336293 0.009252
v -0.097382 2.325057 0.009252
v -0.265727 2.242858 0.009252
v -0.331565 2.177020 0.009252
v -0.381765 1.724481 0.009252
v -0.331566 1.645566 0.009252
v -0.265727 1.579727 0.009252
v -0.097382 1.497528 0.009252
v 0.097382 1.497528 0.009252
v 0.186811 1.529527 0.009252
v 0.265727 1.579727 0.009252
v 0.331565 1.645566 0.009252
v 0.425000 1.911293 0.009252
v 0.097382 2.325057 0.034252
v 0.265727 2.242858 0.034252
v 0.381765 1.724481 0.034252
v 0.265727 1.579727 0.034252
v 0.186811 1.529527 0.034252
v 0.097382 1.497528 0.034252
v -0.000000 1.486293 0.034252
v -0.097382 1.497528 0.034252
v -0.265727 1.579727 0.034252
v -0.413764 1.813911 0.034252
v -0.381765 2.098104 0.034252
v -0.331565 2.177020 0.034252
v -0.186811 2.293058 0.034252
v 0.000000 2.336293 0.034252
v 0.000036 -0.989839 -0.050594
v 0.000036 2.025848 -0.050594
v 0.011517 -0.989839 -0.048310
v 0.011517 2.025848 -0.048310
v 0.021250 -0.989839 -0.041807
v 0.021250 2.025848 -0.041807
v 0.027753 -0.989839 -0.032074
v 0.027753 2.025848 -0.032074
v 0.030037 -0.989839 -0.020593
v 0.030037 2.025848 -0.020593
v 0.027753 -0.989839 -0.009112
v 0.027753 2.025848 -0.009112
v 0.021250 -0.989839 0.000621
v 0.021250 2.025848 0.000620
v 0.011517 -0.989839 0.007124
v 0.011517 2.025848 0.007124
v 0.000036 -0.989839 0.009408
v 0.000036 2.025848 0.009407
v -0.011445 -0.989839 0.007124
v -0.011445 2.025848 0.007124
v -0.021177 -0.989839 0.000621
v -0.021177 2.025848 0.000620
v -0.027681 -0.989839 -0.009112
v -0.027681 2.025848 -0.009112
v -0.029964 -0.989839 -0.020593
v -0.029964 2.025848 -0.020593
v -0.027681 -0.989839 -0.032074
v -0.027681 2.025848 -0.032074
v -0.021177 -0.989839 -0.041807
v -0.021177 2.025848 -0.041807
v -0.011445 -0.989839 -0.048310
v -0.011445 2.025848 -0.048310
vt 0.040016 0.242096
vt 0.048186 0.229262
vt 0.058881 0.218537
vt 0.071715 0.210368
vt 0.086272 0.205169
vt 0.102106 0.203357
vt 0.117941 0.205169
vt 0.132498 0.210368
vt 0.145332 0.218537
vt 0.156057 0.229262
vt 0.164197 0.242096
vt 0.169425 0.256653
vt 0.171238 0.272488
vt 0.169425 0.288322
vt 0.164197 0.302880
vt 0.156057 0.315713
vt 0.145332 0.326408
vt 0.132498 0.334578
vt 0.117941 0.339777
vt 0.102106 0.341619
vt 0.086272 0.339777
vt 0.071715 0.334578
vt 0.058881 0.326408
vt 0.048186 0.315713
vt 0.040016 0.302880
vt 0.034817 0.288322
vt 0.032975 0.272488
vt 0.034817 0.256653
vt 0.784768 0.726233
vt 0.730930 0.760485
vt 0.669913 0.782317
vt 0.603473 0.789986
vt 0.537033 0.782317
vt 0.476017 0.760485
vt 0.422179 0.726239
vt 0.377256 0.681316
vt 0.343010 0.627472
vt 0.321178 0.566462
vt 0.313509 0.500022
vt 0.321178 0.433582
vt 0.343010 0.372565
vt 0.377256 0.318727
vt 0.422179 0.273804
vt 0.476017 0.239552
vt 0.537033 0.217727
vt 0.603473 0.210058
vt 0.669913 0.217727
vt 0.730930 0.239559
vt 0.784768 0.273804
vt 0.829691 0.318727
vt 0.863937 0.372565
vt 0.885768 0.433582
vt 0.893437 0.500022
vt 0.885768 0.566462
vt 0.863937 0.627478
vt 0.829691 0.681316
vt 0.191225 0.562080
vt 0.183879 0.565123
vt 0.175928 0.565123
vt 0.168582 0.562080
vt 0.162959 0.556458
vt 0.159916 0.549112
vt 0.159916 0.541160
vt 0.162959 0.533815
vt 0.168582 0.528192
vt 0.175928 0.525149
vt 0.183879 0.525149
vt 0.191225 0.528192
vt 0.196847 0.533815
vt 0.199890 0.541160
vt 0.199890 0.549112
vt 0.196847 0.556458
vt 0.102106 0.341619
vt 0.117941 0.339777
vt 0.145332 0.326408
vt 0.132498 0.334578
vt 0.040016 0.242096
vt 0.048186 0.229262
vt 0.164197 0.242096
vt 0.169425 0.256653
vt 0.040016 0.302880
vt 0.034817 0.288322
vt 0.032975 0.272488
vt 0.034817 0.256653
vt 0.058881 0.218537
vt 0.071715 0.210368
vt 0.171238 0.272488
vt 0.169425 0.288322
vt 0.156057 0.315713
vt 0.164197 0.302880
vt 0.086272 0.339777
vt 0.071715 0.334578
vt 0.058881 0.326408
vt 0.048186 0.315713
vt 0.156057 0.229262
vt 0.102106 0.203357
vt 0.117941 0.205169
vt 0.132498 0.210368
vt 0.086272 0.205169
vt 0.145332 0.218537
vt 0.152313 0.519567
vt 0.152313 0.978076
vt 0.144310 0.978142
vt 0.144310 0.519634
vt 0.136308 0.978208
vt 0.136308 0.519700
vt 0.128306 0.978275
vt 0.128306 0.519766
vt 0.120304 0.978341
vt 0.120304 0.519833
vt 0.112302 0.978408
vt 0.112302 0.519899
vt 0.104300 0.978474
vt 0.104300 0.519966
vt 0.096298 0.978540
vt 0.096298 0.520032
vt 0.088295 0.978607
vt 0.088295 0.520098
vt 0.080293 0.978673
vt 0.080293 0.520165
vt 0.072291 0.978740
vt 0.072291 0.520231
vt 0.064289 0.978806
vt 0.064289 0.520298
vt 0.056287 0.978872
vt 0.056287 0.520364
vt 0.048285 0.978939
vt 0.048285 0.520431
vt 0.040283 0.979005
vt 0.040283 0.520497
vt 0.032281 0.979071
vt 0.032281 0.520563
vt 0.024278 0.979138
vt 0.024278 0.520629
vn 0.0000 0.0000 -1.0000
vn -0.0000 -0.0000 1.0000
vn 0.0000 1.0000 -0.0000
vn 1.0000 0.0000 0.0000
vn 0.9738 0.2272 0.0000
vn 0.7801 0.6257 0.0000
vn 0.8982 0.4395 0.0000
vn -0.4395 -0.8982 0.0000
vn -0.6257 -0.7801 0.0000
vn -0.4395 0.8982 0.0000
vn -0.2272 0.9738 0.0000
vn 0.4395 -0.8982 0.0000
vn 0.2272 -0.9738 0.0000
vn -0.0000 -1.0000 0.0000
vn -0.2272 -0.9738 0.0000
vn -0.7801 -0.6257 0.0000
vn -0.8982 -0.4395 0.0000
vn 0.2272 0.9738 0.0000
vn 0.6257 0.7801 0.0000
vn 0.4395 0.8982 0.0000
vn 0.9738 -0.2272 0.0000
vn 0.8982 -0.4395 0.0000
vn 0.7801 -0.6257 0.0000
vn 0.6257 -0.7801 0.0000
vn -0.6257 0.7801 0.0000
vn -1.0000 -0.0000 0.0000
vn -0.9738 0.2272 0.0000
vn -0.8982 0.4395 0.0000
vn -0.9738 -0.2272 0.0000
vn -0.7801 0.6257 0.0000
vn 0.3827 -0.0000 -0.9239
vn 0.7071 -0.0000 -0.7071
vn 0.9239 -0.0000 -0.3827
vn 0.9239 0.0000 0.3827
vn 0.7071 0.0000 0.7071
vn 0.3827 0.0000 0.9239
vn -0.3827 0.0000 0.9239
vn -0.7071 0.0000 0.7071
vn -0.9239 0.0000 0.3827
vn -0.9239 -0.0000 -0.3827
vn -0.7071 -0.0000 -0.7071
vn -0.3827 -0.0000 -0.9239
usemtl Road_Sign_(Regulatory)
s off
f 17/1/1 36/2/1 35/3/1 34/4/1 20/5/1 22/6/1 24/7/1 25/8/1 33/9/1 32/10/1 27/11/1 31/12/1 30/13/1 1/14/1 3/15/1 29/16/1 5/17/1 7/18/1 9/19/1 42/20/1 12/21/1 13/22/1 41/23/1 40/24/1 39/25/1 38/26/1 15/27/1 37/28/1
f 44/29/2 2/30/2 43/31/2 56/32/2 28/33/2 55/34/2 26/35/2 54/36/2 53/37/2 23/38/2 21/39/2 52/40/2 19/41/2 18/42/2 51/43/2 16/44/2 50/45/2 49/46/2 48/47/2 47/48/2 46/49/2 14/50/2 45/51/2 11/52/2 10/53/2 8/54/2 6/55/2 4/56/2
f 60/57/3 58/58/3 88/59/3 86/60/3 84/61/3 82/62/3 80/63/3 78/64/3 76/65/3 74/66/3 72/67/3 70/68/3 68/69/3 66/70/3 64/71/3 62/72/3
s 1
f 10/73/4 42/20/4 9/19/5 8/74/5
f 5/17/6 4/75/6 6/76/7 7/18/7
f 17/1/8 16/77/8 51/78/9 36/2/9
f 27/11/10 55/79/10 28/80/11 31/12/11
f 39/25/12 47/81/12 48/82/13 38/26/13
f 15/27/14 49/83/14 50/84/15 37/28/15
f 7/18/7 6/76/7 8/74/5 9/19/5
f 35/3/16 18/85/16 19/86/17 34/4/17
f 30/13/3 56/87/3 43/88/18 1/14/18
f 29/16/19 44/89/19 4/75/6 5/17/6
f 1/14/18 43/88/18 2/90/20 3/15/20
f 12/21/21 11/91/21 45/92/22 13/22/22
f 13/22/22 45/92/22 14/93/23 41/23/23
f 37/28/15 50/84/15 16/77/8 17/1/8
f 41/23/23 14/93/23 46/94/24 40/24/24
f 3/15/20 2/90/20 44/89/19 29/16/19
f 32/10/25 26/95/25 55/79/10 27/11/10
f 42/20/4 10/73/4 11/91/21 12/21/21
f 22/6/26 21/96/26 23/97/27 24/7/27
f 24/7/27 23/97/27 53/98/28 25/8/28
f 34/4/17 19/86/17 52/99/29 20/5/29
f 38/26/13 48/82/13 49/83/14 15/27/14
f 33/9/30 54/100/30 26/95/25 32/10/25
f 40/24/24 46/94/24 47/81/12 39/25/12
f 36/2/9 51/78/9 18/85/16 35/3/16
f 31/12/11 28/80/11 56/87/3 30/13/3
f 25/8/28 53/98/28 54/100/30 33/9/30
f 20/5/29 52/99/29 21/96/26 22/6/26
f 57/101/1 58/102/1 60/103/31 59/104/31
f 59/104/31 60/103/31 62/105/32 61/106/32
f 61/106/32 62/105/32 64/107/33 63/108/33
f 63/108/33 64/107/33 66/109/4 65/110/4
f 65/110/4 66/109/4 68/111/34 67/112/34
f 67/112/34 68/111/34 70/113/35 69/114/35
f 69/114/35 70/113/35 72/115/36 71/116/36
f 71/116/36 72/115/36 74/117/2 73/118/2
f 73/118/2 74/117/2 76/119/37 75/120/37
f 75/120/37 76/119/37 78/121/38 77/122/38
f 77/122/38 78/121/38 80/123/39 79/124/39
f 79/124/39 80/123/39 82/125/26 81/126/26
f 81/126/26 82/125/26 84/127/40 83/128/40
f 83/128/40 84/127/40 86/129/41 85/130/41
f 85/130/41 86/129/41 88/131/42 87/132/42
f 87/132/42 88/131/42 58/133/1 57/134/1
