# Blender v2.79 (sub 7) OBJ File: 'fra_road_signs.blend'
# www.blender.org
mtllib fra_regulatory_road_sign_LOD.mtl
o regulatory_lod_fra_regulatory_road_sign_LOD
v 0.259188 2.265516 0.009536
v 0.000000 2.349731 0.009536
v -0.259188 2.265516 0.009536
v -0.419376 2.045037 0.009536
v 0.000000 1.467816 0.009536
v 0.259188 1.552031 0.009536
v 0.419376 1.772510 0.009536
v 0.419376 2.045037 0.009536
v -0.419376 1.772510 0.009536
v -0.259188 1.552031 0.009536
v 0.259188 2.265516 0.034303
v 0.259188 1.552031 0.034303
v -0.419376 2.045037 0.034303
v 0.000000 2.349731 0.034303
v -0.259188 2.265516 0.034303
v -0.419376 1.772510 0.034303
v -0.259188 1.552031 0.034303
v 0.000000 1.467816 0.034303
v 0.419376 1.772510 0.034303
v 0.419376 2.045037 0.034303
v -0.027717 2.025848 -0.009064
v 0.027717 2.025848 -0.009064
v -0.000000 2.025848 -0.050546
v 0.027717 -0.990152 -0.009064
v -0.027717 -0.990152 -0.009064
v -0.000000 -0.990152 -0.050546
vt 0.112433 0.358402
vt 0.062239 0.357500
vt 0.022756 0.325337
vt 0.009195 0.274843
vt 0.022464 0.224947
vt 0.063604 0.194858
vt 0.114268 0.194940
vt 0.153759 0.227157
vt 0.168458 0.277351
vt 0.152299 0.327091
vt 0.367893 0.814460
vt 0.227551 0.620313
vt 0.227551 0.380335
vt 0.367893 0.186189
vt 0.594971 0.112032
vt 0.822049 0.186189
vt 0.962391 0.380335
vt 0.962391 0.620313
vt 0.822049 0.814460
vt 0.594971 0.888617
vt 0.115911 0.189882
vt 0.158134 0.224110
vt 0.156741 0.329993
vt 0.114266 0.363359
vt 0.173842 0.277285
vt 0.060556 0.362509
vt 0.018348 0.328346
vt 0.017952 0.222062
vt 0.061824 0.189882
vt 0.003894 0.274985
vt 0.116973 0.962396
vt 0.116973 0.787248
vt 0.160380 0.787248
vt 0.160380 0.962396
vt 0.015027 0.662487
vt 0.166149 0.658309
vt 0.166149 0.669227
vt 0.073566 0.962396
vt 0.073566 0.787248
vt 0.116973 0.787248
vt 0.116973 0.962396
vt 0.073566 0.787248
vt 0.073566 0.962396
vt 0.025335 0.962396
vt 0.025335 0.787248
vt 0.166149 0.658309
vt 0.015027 0.654131
vt 0.166149 0.647391
vn -0.0000 0.0000 -1.0000
vn 0.0000 -0.0000 1.0000
vn -0.0000 -1.0000 0.0000
vn -0.5878 -0.8090 0.0000
vn -0.9511 0.3090 0.0000
vn -0.5878 0.8090 0.0000
vn -0.9511 -0.3090 0.0000
vn 0.0000 1.0000 0.0000
vn 0.5878 0.8090 0.0000
vn 0.9511 -0.3090 0.0000
vn 0.5878 -0.8090 0.0000
vn 0.9511 0.3090 0.0000
vn 0.7351 0.5525 0.3929
vn 0.7351 -0.5525 0.3929
vn -0.0000 -0.5595 -0.8289
vn -0.0000 0.5595 -0.8289
vn -0.7351 -0.5525 0.3929
vn -0.7351 0.5525 0.3929
usemtl Road_Sign_LOD_(Regulatory)
s off
f 3/1/1 2/2/1 1/3/1 8/4/1 7/5/1 6/6/1 5/7/1 10/8/1 9/9/1 4/10/1
f 15/11/2 13/12/2 16/13/2 17/14/2 18/15/2 12/16/2 19/17/2 20/18/2 11/19/2 14/20/2
s 1
f 18/21/3 17/22/4 10/8/4 5/7/3
f 13/23/5 15/24/6 3/1/6 4/10/5
f 17/22/4 16/25/7 9/9/7 10/8/4
f 14/26/8 11/27/9 1/3/9 2/2/8
f 15/24/6 14/26/8 2/2/8 3/1/6
f 19/28/10 12/29/11 6/6/11 7/5/10
f 12/29/11 18/21/3 5/7/3 6/6/11
f 11/27/9 20/30/12 8/4/12 1/3/9
f 20/30/12 19/28/10 7/5/10 8/4/12
f 16/25/7 13/23/5 4/10/5 9/9/7
f 22/31/13 24/32/14 26/33/15 23/34/16
f 25/35/17 26/36/15 24/37/14
f 23/38/16 26/39/15 25/40/17 21/41/18
f 21/42/18 25/43/17 24/44/14 22/45/13
f 23/46/16 21/47/18 22/48/13
