# Blender v2.79 (sub 7) OBJ File: 'fra_road_signs.blend'
# www.blender.org
mtllib fra_warning_road_sign.mtl
o warning_fra_warning_road_sign
v 0.399679 1.655079 0.034436
v 0.383013 1.626212 0.034436
v 0.362179 1.618995 0.034436
v -0.362179 1.618995 0.034436
v -0.395513 1.638240 0.034436
v -0.395513 1.676730 0.034436
v -0.033333 2.304043 0.034436
v 0.362179 1.618995 0.009436
v 0.399679 1.655079 0.009436
v 0.395513 1.676730 0.009436
v 0.016667 2.318477 0.009436
v 0.000000 2.323288 0.009436
v -0.016667 2.318477 0.009436
v -0.033333 2.304043 0.009436
v -0.383013 1.626212 0.009436
v 0.033333 2.304043 0.009436
v 0.395513 1.676730 0.034436
v -0.362179 1.618995 0.009436
v 0.033333 2.304043 0.034436
v 0.016667 2.318477 0.034436
v 0.000000 2.323288 0.034436
v -0.016667 2.318477 0.034436
v 0.395513 1.638240 0.034436
v 0.395513 1.638240 0.009436
v 0.383013 1.626212 0.009436
v -0.383013 1.626212 0.034436
v -0.399679 1.655079 0.034436
v -0.395513 1.638240 0.009436
v -0.399679 1.655079 0.009436
v -0.395513 1.676730 0.009436
v 0.000000 -0.989839 -0.050565
v 0.011481 -0.989839 -0.048281
v 0.021214 2.025848 -0.041778
v 0.027717 -0.989839 -0.032045
v 0.030001 -0.989839 -0.020564
v 0.030001 2.025848 -0.020565
v 0.021214 -0.989839 0.000649
v 0.021214 2.025848 0.000649
v 0.000000 -0.989839 0.009436
v -0.011481 -0.989839 0.007153
v -0.011481 2.025848 0.007152
v -0.027717 2.025848 -0.009084
v -0.030001 2.025848 -0.020565
v -0.027717 2.025848 -0.032046
v -0.021214 -0.989839 -0.041778
v -0.021214 2.025848 -0.041778
v -0.011481 -0.989839 -0.048281
v -0.011481 2.025848 -0.048282
v 0.000000 2.025848 -0.050565
v 0.011481 2.025848 -0.048282
v 0.021214 -0.989839 -0.041778
v 0.027717 2.025848 -0.032046
v 0.027717 -0.989839 -0.009084
v 0.027717 2.025848 -0.009084
v 0.011481 -0.989839 0.007153
v 0.011481 2.025848 0.007152
v 0.000000 2.025848 0.009436
v -0.021214 -0.989839 0.000649
v -0.021214 2.025848 0.000649
v -0.027717 -0.989839 -0.009084
v -0.030001 -0.989839 -0.020564
v -0.027717 -0.989839 -0.032045
vt 0.578788 0.732006
vt 0.326622 0.296478
vt 0.323709 0.281435
vt 0.326593 0.269734
vt 0.335267 0.261369
vt 0.349732 0.256334
vt 0.852995 0.255721
vt 0.867476 0.260717
vt 0.876174 0.269065
vt 0.879080 0.280760
vt 0.876202 0.295808
vt 0.625106 0.731954
vt 0.613536 0.741996
vt 0.601831 0.745414
vt 0.590380 0.742024
vt 0.016832 0.117798
vt 0.189446 0.117808
vt 0.194406 0.119532
vt 0.197369 0.122408
vt 0.198378 0.126413
vt 0.197391 0.131569
vt 0.111068 0.281020
vt 0.107099 0.284445
vt 0.103126 0.285606
vt 0.099167 0.284437
vt 0.095204 0.281006
vt 0.008912 0.131545
vt 0.007922 0.126397
vt 0.008889 0.122383
vt 0.011882 0.119524
vt 0.191225 0.562080
vt 0.183879 0.565123
vt 0.175928 0.565123
vt 0.168582 0.562080
vt 0.162959 0.556458
vt 0.159916 0.549112
vt 0.159916 0.541160
vt 0.162959 0.533815
vt 0.168582 0.528192
vt 0.175928 0.525149
vt 0.183879 0.525149
vt 0.191225 0.528192
vt 0.196847 0.533815
vt 0.199890 0.541160
vt 0.199890 0.549112
vt 0.196847 0.556458
vt 0.196140 0.126459
vt 0.197149 0.130463
vt 0.097962 0.288531
vt 0.101921 0.289699
vt 0.109864 0.285114
vt 0.196162 0.135620
vt 0.010677 0.123616
vt 0.007685 0.126477
vt 0.093999 0.285099
vt 0.015627 0.121891
vt 0.188217 0.121859
vt 0.193177 0.123583
vt 0.006717 0.130490
vt 0.007708 0.135638
vt 0.105895 0.288538
vt 0.152313 0.519567
vt 0.152313 0.978076
vt 0.144310 0.978142
vt 0.144310 0.519634
vt 0.136308 0.978208
vt 0.136308 0.519700
vt 0.128306 0.978275
vt 0.128306 0.519766
vt 0.120304 0.978341
vt 0.120304 0.519833
vt 0.112302 0.978408
vt 0.112302 0.519899
vt 0.104300 0.978474
vt 0.104300 0.519966
vt 0.096298 0.978540
vt 0.096298 0.520032
vt 0.088295 0.978607
vt 0.088295 0.520098
vt 0.080293 0.978673
vt 0.080293 0.520165
vt 0.072291 0.978740
vt 0.072291 0.520231
vt 0.064289 0.978806
vt 0.064289 0.520298
vt 0.056287 0.978872
vt 0.056287 0.520364
vt 0.048285 0.978939
vt 0.048285 0.520431
vt 0.040283 0.979005
vt 0.040283 0.520497
vt 0.032281 0.979071
vt 0.032281 0.520563
vt 0.024278 0.979138
vt 0.024278 0.520629
vn -0.0000 -0.0000 1.0000
vn 0.0000 0.0000 -1.0000
vn 0.0000 1.0000 -0.0000
vn 0.4771 0.8788 0.0000
vn 0.5225 -0.8526 0.0000
vn 0.8660 -0.5000 0.0000
vn 0.9370 0.3493 0.0000
vn 0.7641 0.6310 -0.1341
vn 0.8063 0.5905 0.0336
vn -0.9997 -0.0262 0.0000
vn -0.8660 -0.5000 0.0000
vn 0.1660 -0.9861 0.0000
vn -0.9370 0.3493 0.0000
vn -0.7710 0.6368 0.0000
vn -0.4771 0.8788 0.0000
vn -0.5225 -0.8526 0.0000
vn -0.1660 -0.9861 0.0000
vn 0.9997 -0.0262 0.0000
vn 0.3827 -0.0000 -0.9239
vn 0.7071 -0.0000 -0.7071
vn 0.9239 -0.0000 -0.3827
vn 1.0000 0.0000 -0.0000
vn 0.9239 0.0000 0.3827
vn 0.7071 0.0000 0.7071
vn 0.3827 0.0000 0.9239
vn -0.3827 0.0000 0.9239
vn -0.7071 0.0000 0.7071
vn -0.9239 0.0000 0.3827
vn -1.0000 -0.0000 -0.0000
vn -0.9239 -0.0000 -0.3827
vn -0.7071 -0.0000 -0.7071
vn -0.3827 -0.0000 -0.9239
usemtl Road_Sign_(Warning)
s off
f 7/1/1 6/2/1 27/3/1 5/4/1 26/5/1 4/6/1 3/7/1 2/8/1 23/9/1 1/10/1 17/11/1 19/12/1 20/13/1 21/14/1 22/15/1
f 30/16/2 14/17/2 13/18/2 12/19/2 11/20/2 16/21/2 10/22/2 9/23/2 24/24/2 25/25/2 8/26/2 18/27/2 15/28/2 28/29/2 29/30/2
f 50/31/3 49/32/3 48/33/3 46/34/3 44/35/3 43/36/3 42/37/3 59/38/3 41/39/3 57/40/3 56/41/3 38/42/3 54/43/3 36/44/3 52/45/3 33/46/3
s 1
f 12/19/3 21/47/3 20/48/4 11/20/4
f 2/49/5 25/25/5 24/24/6 23/50/6
f 17/51/7 10/22/7 16/21/8 19/52/9
f 27/53/10 29/30/10 28/29/11 5/54/11
f 3/55/12 8/26/12 25/25/5 2/49/5
f 30/16/13 6/56/13 7/57/14 14/17/14
f 14/17/14 7/57/14 22/58/15 13/18/15
f 11/20/4 20/48/4 19/52/9 16/21/8
f 26/59/16 15/28/16 18/27/17 4/60/17
f 5/54/11 28/29/11 15/28/16 26/59/16
f 6/56/13 30/16/13 29/30/10 27/53/10
f 3/55/12 4/60/17 18/27/17 8/26/12
f 23/50/6 24/24/6 9/23/18 1/61/18
f 13/18/15 22/58/15 21/47/3 12/19/3
f 1/61/18 9/23/18 10/22/7 17/51/7
f 31/62/2 49/63/2 50/64/19 32/65/19
f 32/65/19 50/64/19 33/66/20 51/67/20
f 51/67/20 33/66/20 52/68/21 34/69/21
f 34/69/21 52/68/21 36/70/22 35/71/22
f 35/71/22 36/70/22 54/72/23 53/73/23
f 53/73/23 54/72/23 38/74/24 37/75/24
f 37/75/24 38/74/24 56/76/25 55/77/25
f 55/77/25 56/76/25 57/78/1 39/79/1
f 39/79/1 57/78/1 41/80/26 40/81/26
f 40/81/26 41/80/26 59/82/27 58/83/27
f 58/83/27 59/82/27 42/84/28 60/85/28
f 60/85/28 42/84/28 43/86/29 61/87/29
f 61/87/29 43/86/29 44/88/30 62/89/30
f 62/89/30 44/88/30 46/90/31 45/91/31
f 45/91/31 46/90/31 48/92/32 47/93/32
f 47/93/32 48/92/32 49/94/2 31/95/2
