# Blender v2.79 (sub 7) OBJ File: 'fra_road_signs.blend'
# www.blender.org
mtllib fra_priority_road_sign_LOD.mtl
o priority_lod_fra_priority_road_sign_LOD
v 0.487904 1.911456 0.034408
v -0.001127 2.398885 0.034409
v 0.001127 1.424026 0.009408
v 0.001127 2.398885 0.009409
v 0.487036 1.911456 0.009408
v -0.001127 1.424026 0.034408
v -0.487036 1.911456 0.034409
v -0.487904 1.911456 0.009409
v -0.027717 2.025848 -0.009064
v 0.027717 2.025848 -0.009064
v -0.000000 2.025848 -0.050546
v 0.027717 -0.990152 -0.009064
v -0.027717 -0.990152 -0.009064
v -0.000000 -0.990152 -0.050546
vt 0.023394 0.376097
vt 0.025049 0.240561
vt 0.164926 0.227926
vt 0.158712 0.368234
vt 0.594072 0.890668
vt 0.983837 0.499938
vt 0.597366 0.109657
vt 0.203334 0.500237
vt 0.018355 0.235638
vt 0.172498 0.219999
vt 0.018355 0.381372
vt 0.163937 0.374696
vt 0.115666 0.950584
vt 0.115666 0.754453
vt 0.164273 0.754453
vt 0.164273 0.950584
vt 0.010925 0.596120
vt 0.167047 0.591804
vt 0.167047 0.603082
vt 0.067059 0.950584
vt 0.067059 0.754453
vt 0.115666 0.754453
vt 0.115666 0.950584
vt 0.067059 0.754453
vt 0.067059 0.950584
vt 0.013050 0.950584
vt 0.013050 0.754453
vt 0.167047 0.591804
vt 0.010925 0.587487
vt 0.167047 0.580524
vn -0.0000 0.0000 -1.0000
vn 0.0000 -0.0000 1.0000
vn 0.0404 0.9992 0.0011
vn -0.0404 0.9992 -0.0011
vn 0.9996 0.0000 0.0277
vn -0.9996 0.0000 -0.0277
vn 0.0404 -0.9992 0.0011
vn -0.0404 -0.9992 -0.0011
vn 0.7351 0.5525 0.3929
vn 0.7351 -0.5525 0.3929
vn -0.0000 -0.5595 -0.8289
vn -0.0000 0.5595 -0.8289
vn -0.7351 -0.5525 0.3929
vn -0.7351 0.5525 0.3929
usemtl Road_Sign_LOD_(Priority)
s off
f 8/1/1 4/2/1 5/3/1 3/4/1
f 2/5/2 7/6/2 6/7/2 1/8/2
s 1
f 4/2/3 2/9/4 1/10/5 5/3/5
f 8/1/6 7/11/6 2/9/4 4/2/3
f 8/1/6 3/4/7 6/12/8 7/11/6
f 1/10/5 6/12/8 3/4/7 5/3/5
f 10/13/9 12/14/10 14/15/11 11/16/12
f 13/17/13 14/18/11 12/19/10
f 11/20/12 14/21/11 13/22/13 9/23/14
f 9/24/14 13/25/13 12/26/10 10/27/9
f 11/28/12 9/29/14 10/30/9
