# Blender v2.79 (sub 7) OBJ File: 'fra_road_signs.blend'
# www.blender.org
mtllib fra_stop_road_sign.mtl
o stop_fra_stop_road_sign
v -0.400024 2.077085 0.034480
v -0.165742 2.311433 0.034480
v 0.399976 2.077199 0.034480
v 0.165628 2.311480 0.009480
v 0.399976 2.077199 0.009480
v 0.400023 1.745828 0.034479
v 0.165742 1.511480 0.034479
v -0.165629 1.511433 0.009479
v -0.399977 1.745714 0.034479
v -0.400024 2.077085 0.009480
v -0.399977 1.745714 0.009479
v -0.165742 2.311433 0.009480
v 0.400023 1.745828 0.009479
v 0.165742 1.511480 0.009479
v -0.165629 1.511433 0.034479
v 0.165628 2.311480 0.034480
v 0.000000 -0.989839 -0.050521
v 0.000000 2.025848 -0.050522
v 0.011481 -0.989839 -0.048238
v 0.011481 2.025848 -0.048238
v 0.021214 -0.989839 -0.041734
v 0.021214 2.025848 -0.041735
v 0.027717 -0.989839 -0.032001
v 0.027717 2.025848 -0.032002
v 0.030001 -0.989839 -0.020521
v 0.030001 2.025848 -0.020521
v 0.027717 -0.989839 -0.009040
v 0.027717 2.025848 -0.009040
v 0.021214 -0.989839 0.000693
v 0.021214 2.025848 0.000693
v 0.011481 -0.989839 0.007196
v 0.011481 2.025848 0.007196
v 0.000000 -0.989839 0.009480
v 0.000000 2.025848 0.009480
v -0.011481 -0.989839 0.007196
v -0.011481 2.025848 0.007196
v -0.021214 -0.989839 0.000693
v -0.021214 2.025848 0.000693
v -0.027717 -0.989839 -0.009040
v -0.027717 2.025848 -0.009040
v -0.030001 -0.989839 -0.020521
v -0.030001 2.025848 -0.020521
v -0.027717 -0.989839 -0.032001
v -0.027717 2.025848 -0.032002
v -0.021214 -0.989839 -0.041734
v -0.021214 2.025848 -0.041735
v -0.011481 -0.989839 -0.048238
v -0.011481 2.025848 -0.048238
vt 0.893075 0.619732
vt 0.723785 0.788970
vt 0.484407 0.788937
vt 0.315169 0.619647
vt 0.315202 0.380268
vt 0.484492 0.211030
vt 0.723870 0.211063
vt 0.893108 0.380353
vt 0.165775 0.184194
vt 0.192248 0.248046
vt 0.165775 0.311899
vt 0.101923 0.338372
vt 0.038070 0.311899
vt 0.011597 0.248046
vt 0.038070 0.184194
vt 0.101923 0.157720
vt 0.191225 0.562080
vt 0.183879 0.565123
vt 0.175928 0.565123
vt 0.168582 0.562080
vt 0.162959 0.556458
vt 0.159916 0.549112
vt 0.159916 0.541160
vt 0.162959 0.533815
vt 0.168582 0.528192
vt 0.175928 0.525149
vt 0.183879 0.525149
vt 0.191225 0.528192
vt 0.196847 0.533815
vt 0.199890 0.541160
vt 0.199890 0.549112
vt 0.196847 0.556458
vt 0.192248 0.248046
vt 0.165775 0.184194
vt 0.101923 0.338372
vt 0.165775 0.311899
vt 0.101923 0.157720
vt 0.038070 0.311899
vt 0.011597 0.248046
vt 0.038070 0.184194
vt 0.152313 0.519567
vt 0.152313 0.978076
vt 0.144310 0.978142
vt 0.144310 0.519634
vt 0.136308 0.978208
vt 0.136308 0.519700
vt 0.128306 0.978275
vt 0.128306 0.519766
vt 0.120304 0.978341
vt 0.120304 0.519833
vt 0.112302 0.978408
vt 0.112302 0.519899
vt 0.104300 0.978474
vt 0.104300 0.519966
vt 0.096298 0.978540
vt 0.096298 0.520032
vt 0.088295 0.978607
vt 0.088295 0.520098
vt 0.080293 0.978673
vt 0.080293 0.520165
vt 0.072291 0.978740
vt 0.072291 0.520231
vt 0.064289 0.978806
vt 0.064289 0.520298
vt 0.056287 0.978872
vt 0.056287 0.520364
vt 0.048285 0.978939
vt 0.048285 0.520431
vt 0.040283 0.979005
vt 0.040283 0.520497
vt 0.032281 0.979071
vt 0.032281 0.520563
vt 0.024278 0.979138
vt 0.024278 0.520629
vn -0.0000 -0.0000 1.0000
vn 0.0000 0.0000 -1.0000
vn 0.0000 1.0000 0.0000
vn -0.9238 -0.3828 0.0000
vn -0.3826 -0.9239 0.0000
vn -0.3828 0.9238 0.0000
vn -0.9239 0.3826 0.0000
vn 0.3828 -0.9238 0.0000
vn 0.3826 0.9239 0.0000
vn 0.9238 0.3828 0.0000
vn 0.9239 -0.3826 0.0000
vn 0.3827 -0.0000 -0.9239
vn 0.7071 -0.0000 -0.7071
vn 0.9239 -0.0000 -0.3827
vn 1.0000 0.0000 -0.0000
vn 0.9239 0.0000 0.3827
vn 0.7071 0.0000 0.7071
vn 0.3827 0.0000 0.9239
vn -0.3827 0.0000 0.9239
vn -0.7071 0.0000 0.7071
vn -0.9239 0.0000 0.3827
vn -1.0000 0.0000 -0.0000
vn -0.9239 -0.0000 -0.3827
vn -0.7071 -0.0000 -0.7071
vn -0.3827 -0.0000 -0.9239
usemtl Road_Sign_(Stop)
s off
f 3/1/1 16/2/1 2/3/1 1/4/1 9/5/1 15/6/1 7/7/1 6/8/1
f 8/9/2 11/10/2 10/11/2 12/12/2 4/13/2 5/14/2 13/15/2 14/16/2
f 20/17/3 18/18/3 48/19/3 46/20/3 44/21/3 42/22/3 40/23/3 38/24/3 36/25/3 34/26/3 32/27/3 30/28/3 28/29/3 26/30/3 24/31/3 22/32/3
s 1
f 9/33/4 11/10/4 8/9/5 15/34/5
f 2/35/6 12/12/6 10/11/7 1/36/7
f 1/36/7 10/11/7 11/10/4 9/33/4
f 15/34/5 8/9/5 14/16/8 7/37/8
f 4/13/9 16/38/9 3/39/10 5/14/10
f 7/37/8 14/16/8 13/15/11 6/40/11
f 6/40/11 13/15/11 5/14/10 3/39/10
f 16/38/9 4/13/9 12/12/6 2/35/6
f 17/41/2 18/42/2 20/43/12 19/44/12
f 19/44/12 20/43/12 22/45/13 21/46/13
f 21/46/13 22/45/13 24/47/14 23/48/14
f 23/48/14 24/47/14 26/49/15 25/50/15
f 25/50/15 26/49/15 28/51/16 27/52/16
f 27/52/16 28/51/16 30/53/17 29/54/17
f 29/54/17 30/53/17 32/55/18 31/56/18
f 31/56/18 32/55/18 34/57/1 33/58/1
f 33/58/1 34/57/1 36/59/19 35/60/19
f 35/60/19 36/59/19 38/61/20 37/62/20
f 37/62/20 38/61/20 40/63/21 39/64/21
f 39/64/21 40/63/21 42/65/22 41/66/22
f 41/66/22 42/65/22 44/67/23 43/68/23
f 43/68/23 44/67/23 46/69/24 45/70/24
f 45/70/24 46/69/24 48/71/25 47/72/25
f 47/72/25 48/71/25 18/73/2 17/74/2
