# Blender v2.79 (sub 0) OBJ File: 'sunday-cars.blend'
# www.blender.org
mtllib Volvo 850 T-5R_LOD.mtl
o Volvo_850_T-5R_LOD_volvo-850-t-sr_lod
v 0.802023 0.935149 0.900520
v 0.000000 1.376132 0.330559
v 0.000000 0.973700 1.161235
v 0.640284 1.342210 0.246445
v 0.729746 0.751658 2.169531
v 0.000000 0.781046 2.286690
v 0.000000 0.222057 2.388630
v 0.761238 0.223347 2.207541
v 0.835510 0.879169 -0.224855
v 0.800019 0.226374 0.875641
v 0.790846 0.225118 -0.863703
v 0.556889 1.344729 -1.981888
v 0.000000 1.354205 -1.991122
v 0.729813 0.921951 -2.120606
v 0.743889 0.332630 -2.180980
v 0.000000 0.921133 -2.164749
v 0.000000 0.328777 -2.214513
v -0.802023 0.935149 0.900520
v -0.640284 1.342210 0.246445
v -0.729746 0.751658 2.169531
v -0.761238 0.223347 2.207541
v -0.835510 0.879169 -0.224855
v -0.790846 0.225118 -0.863703
v -0.800019 0.226374 0.875641
v -0.556889 1.344729 -1.981888
v -0.729813 0.921951 -2.120606
v -0.743889 0.332630 -2.180980
vt 0.704870 0.693370
vt 0.599470 0.841690
vt 0.753080 0.841690
vt 0.583920 0.723280
vt 0.939540 0.706740
vt 0.961210 0.841690
vt 0.520310 0.096260
vt 0.385360 0.194190
vt 0.520310 0.199630
vt 0.379530 0.096490
vt 0.511470 0.576880
vt 0.714950 0.455930
vt 0.393290 0.455690
vt 0.719550 0.586760
vt 0.598440 0.660040
vt 0.186290 0.659660
vt 0.170130 0.841690
vt 0.171840 0.738700
vt 0.160810 0.583660
vt 0.149650 0.475070
vt 0.823640 0.119540
vt 0.961210 0.010710
vt 0.823640 0.010000
vt 0.958600 0.119690
vt 0.926630 0.197870
vt 0.823640 0.199630
vt 0.954150 0.551970
vt 0.961210 0.454830
vt 0.704870 0.990000
vt 0.583920 0.960090
vt 0.939540 0.976630
vt 0.655250 0.194190
vt 0.661080 0.096490
vt 0.599390 0.346680
vt 0.717570 0.225490
vt 0.395920 0.225720
vt 0.391310 0.356550
vt 0.512420 0.429830
vt 0.924570 0.429460
vt 0.171840 0.944670
vt 0.950060 0.353460
vt 0.961210 0.244860
vt 0.686080 0.010710
vt 0.688680 0.119690
vt 0.720660 0.197870
vt 0.156710 0.321770
vt 0.149650 0.224630
vn 0.1543 0.8746 0.4595
vn 0.0000 0.8818 0.4717
vn 0.0000 0.9000 0.4360
vn 0.1117 0.8559 0.5050
vn -0.0000 0.9879 0.1551
vn 0.0775 0.9840 0.1606
vn 0.0954 0.9844 0.1478
vn -0.0000 0.9857 0.1687
vn 0.0000 0.1427 0.9898
vn 0.2040 0.1208 0.9715
vn 0.0000 0.1794 0.9838
vn 0.2305 0.0835 0.9695
vn 0.9991 -0.0397 -0.0118
vn 0.9994 -0.0062 0.0335
vn 0.9990 -0.0208 -0.0396
vn 0.9991 -0.0043 0.0430
vn 0.9136 0.4060 -0.0238
vn 0.9196 0.3929 -0.0051
vn 0.9245 0.3811 0.0086
vn 0.9181 0.3943 -0.0411
vn 0.0466 0.9989 -0.0080
vn 0.0000 1.0000 -0.0013
vn 0.0000 1.0000 -0.0094
vn 0.0170 0.9999 0.0005
vn 0.9198 0.3901 -0.0425
vn 0.9991 0.0153 -0.0400
vn 0.9991 0.0273 -0.0334
vn -0.0000 0.2245 -0.9745
vn 0.0532 0.0947 -0.9941
vn -0.0000 0.0837 -0.9965
vn 0.0589 0.2041 -0.9772
vn 0.0441 0.3465 -0.9370
vn -0.0000 0.3721 -0.9282
vn 0.9984 0.0419 0.0372
vn 0.9977 0.0616 0.0292
vn -0.1543 0.8746 0.4595
vn -0.1117 0.8559 0.5050
vn -0.0775 0.9840 0.1606
vn -0.0954 0.9844 0.1478
vn -0.2040 0.1208 0.9715
vn -0.2305 0.0835 0.9695
vn -0.9991 -0.0397 -0.0118
vn -0.9990 -0.0208 -0.0396
vn -0.9994 -0.0062 0.0335
vn -0.9991 -0.0043 0.0430
vn -0.9136 0.4060 -0.0238
vn -0.9245 0.3811 0.0086
vn -0.9196 0.3929 -0.0051
vn -0.9181 0.3943 -0.0411
vn -0.0466 0.9989 -0.0080
vn -0.0170 0.9999 0.0005
vn -0.9198 0.3901 -0.0425
vn -0.9991 0.0153 -0.0400
vn -0.9991 0.0273 -0.0334
vn -0.0532 0.0947 -0.9941
vn -0.0589 0.2041 -0.9772
vn -0.0441 0.3465 -0.9370
vn -0.9984 0.0419 0.0372
vn -0.9977 0.0616 0.0292
usemtl Volvo_850_T-SR_LOD
s 1
f 1/1/1 2/2/2 3/3/3
f 2/2/2 1/1/1 4/4/4
f 3/3/5 5/5/6 1/1/7
f 5/5/6 3/3/5 6/6/8
f 7/7/9 5/8/10 6/9/11
f 5/8/10 7/7/9 8/10/12
f 9/11/13 10/12/14 11/13/15
f 9/11/13 1/14/16 10/12/14
f 9/11/17 4/15/18 1/14/19
f 4/15/18 9/11/17 12/16/20
f 4/4/21 13/17/22 2/2/23
f 13/17/22 4/4/21 12/18/24
f 12/16/20 9/11/17 14/19/25
f 14/19/26 9/11/13 11/13/15
f 14/19/26 11/13/15 15/20/27
f 16/21/28 15/22/29 17/23/30
f 15/22/29 16/21/28 14/24/31
f 16/21/28 12/25/32 14/24/31
f 12/25/32 16/21/28 13/26/33
f 5/27/34 10/12/14 1/14/16
f 10/12/14 5/27/34 8/28/35
f 18/29/36 2/2/2 19/30/37
f 2/2/2 18/29/36 3/3/3
f 3/3/5 20/31/38 6/6/8
f 20/31/38 3/3/5 18/29/39
f 7/7/9 20/32/40 21/33/41
f 20/32/40 7/7/9 6/9/11
f 22/34/42 23/35/43 24/36/44
f 22/34/42 24/36/44 18/37/45
f 22/34/46 18/37/47 19/38/48
f 19/38/48 25/39/49 22/34/46
f 19/30/50 13/17/22 25/40/51
f 13/17/22 19/30/50 2/2/23
f 25/39/49 26/41/52 22/34/46
f 26/41/53 23/35/43 22/34/42
f 26/41/53 27/42/54 23/35/43
f 16/21/28 27/43/55 26/44/56
f 27/43/55 16/21/28 17/23/30
f 16/21/28 25/45/57 13/26/33
f 25/45/57 16/21/28 26/44/56
f 20/46/58 24/36/44 21/47/59
f 24/36/44 20/46/58 18/37/45
