# File exported by Unity3D version 5.6.7f1
v 0.00000000 1.01775600 1.09681200
v 0.65433010 1.00355700 1.00392300
v 0.34862790 0.78084260 1.77693900
v 0.00000000 0.80179550 1.82880600
v 0.53387970 1.42592400 0.01863098
v 0.00000000 0.57646810 1.98797000
v 0.00000000 0.24214980 1.96561100
v 0.50551150 0.57994390 1.86576500
v 0.45964300 0.23846890 1.86611300
v 0.47500490 1.39953500 -1.31687300
v 0.76033520 0.69537680 1.58884800
v 0.78842590 0.22097900 1.56774000
v 0.79042300 0.29280610 -1.67325600
v 0.71323230 1.04450200 -1.55472900
v 0.54492050 1.00483700 -1.73455100
v 0.47629020 0.30495630 -1.86503100
v 0.83180600 0.88735580 -0.35338800
v 0.79265650 0.24155690 -0.30975920
v 0.80590030 0.14749980 1.41924600
v 0.80590020 -0.00000023 1.16376900
v 0.80590010 0.14749980 0.90829160
v 0.80590010 0.44249970 0.90829160
v 0.80590020 0.58999970 1.16376900
v 0.80590030 0.44249980 1.41924600
v 0.80874470 0.14749950 -1.07624400
v 0.80874470 -0.00000052 -1.33172100
v 0.80874450 0.14749950 -1.58719900
v 0.80874450 0.44249950 -1.58719900
v 0.80874470 0.58999940 -1.33172100
v 0.80874470 0.44249950 -1.07624400
v -0.65433010 1.00355700 1.00392300
v -0.34862790 0.78084260 1.77693900
v 0.00000000 1.45780800 0.04937591
v -0.53387970 1.42592400 0.01863098
v -0.50551150 0.57994390 1.86576500
v -0.45964300 0.23846890 1.86611300
v 0.00000000 1.42548000 -1.41452500
v -0.47500490 1.39953500 -1.31687300
v -0.76033520 0.69537680 1.58884800
v -0.78842590 0.22097900 1.56774000
v 0.00000000 0.98103720 -1.86899800
v 0.00000000 0.30624710 -1.93196000
v -0.79042300 0.29280610 -1.67325600
v -0.71323230 1.04450200 -1.55472900
v -0.54492050 1.00483700 -1.73455100
v -0.47629020 0.30495630 -1.86503100
v -0.83180600 0.88735580 -0.35338800
v -0.79265650 0.24155690 -0.30975920
v -0.80590030 0.14749980 1.41924600
v -0.80590020 -0.00000023 1.16376900
v -0.80590010 0.14749980 0.90829160
v -0.80590010 0.44249970 0.90829160
v -0.80590020 0.58999970 1.16376900
v -0.80590030 0.44249980 1.41924600
v -0.80874470 0.14749950 -1.07624400
v -0.80874470 -0.00000052 -1.33172100
v -0.80874450 0.14749950 -1.58719900
v -0.80874450 0.44249950 -1.58719900
v -0.80874470 0.58999940 -1.33172100
v -0.80874470 0.44249950 -1.07624400
v 0.00000000 1.42548000 -1.41452500
v 0.47500490 1.39953500 -1.31687300
v 0.78842590 0.22097900 1.56774000
v 0.76033520 0.69537680 1.58884800
v 0.79042300 0.29280610 -1.67325600
v 0.71323230 1.04450200 -1.55472900
v 0.65433010 1.00355700 1.00392300
v 0.76033520 0.69537680 1.58884800
v 0.34862790 0.78084260 1.77693900
v 0.00000000 0.80179550 1.82880600
v -0.47500490 1.39953500 -1.31687300
v -0.78842590 0.22097900 1.56774000
v -0.76033520 0.69537680 1.58884800
v -0.79042300 0.29280610 -1.67325600
v -0.71323230 1.04450200 -1.55472900
v -0.65433010 1.00355700 1.00392300
v -0.76033520 0.69537680 1.58884800
v -0.34862790 0.78084260 1.77693900
v 0.00000000 0.57646810 1.98797000
v 0.50551150 0.57994390 1.86576500
v 0.00000000 1.45780800 0.04937591
v 0.53387970 1.42592400 0.01863098
v 0.50551150 0.57994390 1.86576500
v 0.45964300 0.23846890 1.86611300
v 0.54492050 1.00483700 -1.73455100
v 0.79042300 0.29280610 -1.67325600
v 0.54492050 1.00483700 -1.73455100
v 0.00000000 0.98103720 -1.86899800
v 0.54492050 1.00483700 -1.73455100
v 0.47500490 1.39953500 -1.31687300
v 0.71323230 1.04450200 -1.55472900
v 0.83180600 0.88735580 -0.35338800
v 0.76033520 0.69537680 1.58884800
v 0.53387970 1.42592400 0.01863098
v 0.47500490 1.39953500 -1.31687300
v 0.71323230 1.04450200 -1.55472900
v 0.65433010 1.00355700 1.00392300
v 0.76033520 0.69537680 1.58884800
v 0.34862790 0.78084260 1.77693900
v 0.50551150 0.57994390 1.86576500
v 0.34862790 0.78084260 1.77693900
v 0.00000000 1.01775600 1.09681200
v 0.65433010 1.00355700 1.00392300
v 0.00000000 0.57646810 1.98797000
v 0.00000000 0.80179550 1.82880600
v 0.00000000 0.57646810 1.98797000
v 0.00000000 0.24214980 1.96561100
v -0.50551150 0.57994390 1.86576500
v -0.53387970 1.42592400 0.01863098
v -0.50551150 0.57994390 1.86576500
v -0.45964300 0.23846890 1.86611300
v 0.00000000 0.98103720 -1.86899800
v 0.00000000 0.30624710 -1.93196000
v -0.54492050 1.00483700 -1.73455100
v -0.79042300 0.29280610 -1.67325600
v -0.54492050 1.00483700 -1.73455100
v 0.00000000 1.42548000 -1.41452500
v 0.00000000 0.98103720 -1.86899800
v -0.54492050 1.00483700 -1.73455100
v -0.71323230 1.04450200 -1.55472900
v -0.47500490 1.39953500 -1.31687300
v -0.83180600 0.88735580 -0.35338800
v -0.76033520 0.69537680 1.58884800
v -0.53387970 1.42592400 0.01863098
v -0.53387970 1.42592400 0.01863098
v -0.47500490 1.39953500 -1.31687300
v -0.83180600 0.88735580 -0.35338800
v -0.47500490 1.39953500 -1.31687300
v -0.71323230 1.04450200 -1.55472900
v -0.83180600 0.88735580 -0.35338800
v -0.65433010 1.00355700 1.00392300
v -0.76033520 0.69537680 1.58884800
v -0.50551150 0.57994390 1.86576500
v -0.34862790 0.78084260 1.77693900
v -0.34862790 0.78084260 1.77693900
v -0.65433010 1.00355700 1.00392300
vt 0.40410 0.59437
vt 0.52973 0.57847
vt 0.19301 0.91850
vt 0.26468 0.92127
vt 0.50603 0.37313
vt 0.26468 0.86857
vt 0.26468 0.80547
vt 0.16973 0.87274
vt 0.17296 0.80785
vt 0.49517 0.11745
vt 0.10166 0.90384
vt 0.08589 0.81243
vt 0.63405 0.94490
vt 0.65644 0.79418
vt 0.69880 0.81624
vt 0.70613 0.95249
vt 0.61969 0.29692
vt 0.74304 0.29990
vt 0.79150 0.12362
vt 0.83543 0.19971
vt 0.92329 0.19971
vt 0.96722 0.12362
vt 0.92329 0.04753
vt 0.83543 0.04753
vt 0.79150 0.12362
vt 0.83543 0.19971
vt 0.92329 0.19971
vt 0.96722 0.12362
vt 0.92329 0.04753
vt 0.83543 0.04753
vt 0.27848 0.57847
vt 0.33636 0.91850
vt 0.40410 0.37772
vt 0.30217 0.37313
vt 0.35963 0.87274
vt 0.35640 0.80785
vt 0.40410 0.09881
vt 0.31304 0.11745
vt 0.42770 0.90384
vt 0.44347 0.81243
vt 0.80078 0.83071
vt 0.80078 0.95700
vt 0.96752 0.94490
vt 0.94512 0.79418
vt 0.90276 0.81624
vt 0.89543 0.95249
vt 0.18851 0.29692
vt 0.06516 0.29990
vt 0.79150 0.12362
vt 0.83543 0.19971
vt 0.92329 0.19971
vt 0.96722 0.12362
vt 0.92329 0.04753
vt 0.83543 0.04753
vt 0.79150 0.12362
vt 0.83543 0.19971
vt 0.92329 0.19971
vt 0.96722 0.12362
vt 0.92329 0.04753
vt 0.83543 0.04753
vt 0.80078 0.71175
vt 0.70452 0.70535
vt 0.75828 0.65830
vt 0.66756 0.66549
vt 0.71917 0.03995
vt 0.57588 0.06946
vt 0.59910 0.55753
vt 0.55453 0.70413
vt 0.47103 0.73227
vt 0.40410 0.74058
vt 0.89704 0.70535
vt 0.04993 0.65831
vt 0.14064 0.66549
vt 0.08903 0.03995
vt 0.23232 0.06946
vt 0.20911 0.55753
vt 0.25367 0.70413
vt 0.33717 0.73227
vt 0.26468 0.86857
vt 0.16973 0.87274
vt 0.40410 0.37772
vt 0.50603 0.37313
vt 0.16973 0.87274
vt 0.17296 0.80785
vt 0.69880 0.81624
vt 0.63405 0.94490
vt 0.69880 0.81624
vt 0.80078 0.83071
vt 0.69880 0.81624
vt 0.70452 0.70535
vt 0.65644 0.79418
vt 0.61969 0.29692
vt 0.66756 0.66549
vt 0.50603 0.37313
vt 0.49517 0.11745
vt 0.57588 0.06946
vt 0.52973 0.57847
vt 0.10166 0.90384
vt 0.19301 0.91850
vt 0.16973 0.87274
vt 0.47103 0.73227
vt 0.40410 0.59437
vt 0.52973 0.57847
vt 0.26468 0.86857
vt 0.26468 0.92127
vt 0.26468 0.86857
vt 0.26468 0.80547
vt 0.35963 0.87274
vt 0.30217 0.37313
vt 0.35963 0.87274
vt 0.35640 0.80785
vt 0.80078 0.83071
vt 0.80078 0.95700
vt 0.90276 0.81624
vt 0.96752 0.94490
vt 0.90276 0.81624
vt 0.80078 0.71175
vt 0.80078 0.83071
vt 0.90276 0.81624
vt 0.94512 0.79418
vt 0.89704 0.70535
vt 0.18851 0.29692
vt 0.14064 0.66549
vt 0.30217 0.37313
vt 0.30217 0.37313
vt 0.31304 0.11745
vt 0.18851 0.29692
vt 0.31304 0.11745
vt 0.23232 0.06946
vt 0.18851 0.29692
vt 0.27848 0.57847
vt 0.42770 0.90384
vt 0.35963 0.87274
vt 0.33636 0.91850
vt 0.33717 0.73227
vt 0.27848 0.57847
vn 0.00000000 0.92194150 0.38732930
vn 0.07543100 0.91947140 0.38585290
vn 0.29023040 0.64489810 0.70701680
vn 0.00000000 0.57694720 0.81678150
vn 0.07709181 0.91975430 0.38484910
vn 0.00000000 0.55992360 0.82854430
vn 0.00000000 -0.06672810 0.99777130
vn 0.33598080 0.58777070 0.73596370
vn 0.44815330 -0.06676634 0.89145990
vn 0.05889268 0.99801990 -0.02209221
vn 0.73305090 0.01314913 0.68004670
vn 0.70374790 -0.03449192 0.70961210
vn 0.56169480 0.12324040 -0.81811420
vn 0.69780810 0.18093690 -0.69305530
vn 0.49181100 0.16481070 -0.85496160
vn 0.34106840 0.11594660 -0.93286060
vn 0.99969970 -0.02119610 -0.01229899
vn 0.99816300 -0.06057825 -0.00100424
vn 1.00000000 0.00000000 -0.00000030
vn 1.00000000 0.00000000 -0.00000030
vn 1.00000000 0.00000000 -0.00000030
vn 1.00000000 0.00000000 -0.00000030
vn 1.00000000 0.00000000 -0.00000030
vn 1.00000000 0.00000000 -0.00000030
vn 1.00000000 0.00000000 -0.00000030
vn 1.00000000 0.00000000 -0.00000030
vn 1.00000000 0.00000000 -0.00000030
vn 1.00000000 0.00000000 -0.00000030
vn 1.00000000 0.00000000 -0.00000030
vn 1.00000000 0.00000000 -0.00000030
vn -0.07543100 0.91947140 0.38585290
vn -0.29023040 0.64489810 0.70701690
vn 0.00000000 0.92230600 0.38646050
vn -0.07709181 0.91975430 0.38484910
vn -0.33598080 0.58777060 0.73596380
vn -0.44815330 -0.06676634 0.89145990
vn 0.00000000 0.99975630 -0.02207800
vn -0.05889268 0.99801990 -0.02209221
vn -0.73305090 0.01314913 0.68004670
vn -0.70374790 -0.03449192 0.70961210
vn 0.00000000 0.13488700 -0.99086100
vn 0.00000000 0.09290348 -0.99567510
vn -0.56169480 0.12324040 -0.81811420
vn -0.69780810 0.18093690 -0.69305530
vn -0.49181100 0.16481070 -0.85496160
vn -0.34106840 0.11594660 -0.93286060
vn -0.99969970 -0.02119609 -0.01229899
vn -0.99816300 -0.06057825 -0.00100424
vn -1.00000000 0.00000000 -0.00000030
vn -1.00000000 0.00000000 -0.00000030
vn -1.00000000 0.00000000 -0.00000030
vn -1.00000000 0.00000000 -0.00000030
vn -1.00000000 0.00000000 -0.00000030
vn -1.00000000 0.00000000 -0.00000030
vn -1.00000000 0.00000000 -0.00000030
vn -1.00000000 0.00000000 -0.00000030
vn -1.00000000 0.00000000 -0.00000030
vn -1.00000000 0.00000000 -0.00000030
vn -1.00000000 0.00000000 -0.00000030
vn -1.00000000 0.00000000 -0.00000030
vn 0.00000000 0.72879890 -0.68472800
vn 0.23724120 0.72558000 -0.64594920
vn 0.99885200 0.03354957 0.03419188
vn 0.99746510 0.05717864 0.04235672
vn 0.99654280 0.05945727 -0.05802878
vn 0.98995160 0.11469780 -0.08270585
vn 0.88948700 0.45029670 0.07775498
vn 0.37806920 0.80146960 0.46336840
vn 0.29023040 0.64489810 0.70701680
vn 0.00000000 0.95912820 0.28297190
vn -0.23724120 0.72558000 -0.64594920
vn -0.99885200 0.03354957 0.03419188
vn -0.99746510 0.05717864 0.04235672
vn -0.99654280 0.05945727 -0.05802878
vn -0.98995160 0.11469780 -0.08270585
vn -0.88838570 0.45252310 0.07742035
vn -0.37806910 0.80146960 0.46336840
vn -0.29023040 0.64489810 0.70701690
vn 0.00000000 -0.05267792 0.99861160
vn 0.52375390 -0.03506656 0.85114760
vn 0.00000000 0.99975190 -0.02227425
vn 0.05832134 0.99804900 -0.02229208
vn 0.52375390 -0.03506656 0.85114760
vn 0.44815330 -0.06676634 0.89145990
vn 0.49181100 0.16481070 -0.85496160
vn 0.56169480 0.12324040 -0.81811420
vn 0.26865120 0.71381460 -0.64675750
vn 0.00000000 0.71495190 -0.69917370
vn 0.26865120 0.71381460 -0.64675750
vn 0.23724120 0.72558000 -0.64594920
vn 0.45001450 0.68544650 -0.57240740
vn 0.86986720 0.49327660 0.00303916
vn 0.88838570 0.45252310 0.07742035
vn 0.88363110 0.46713080 0.03138293
vn 0.83694620 0.54694870 -0.01918803
vn 0.82776990 0.56100610 -0.00831714
vn 0.35300020 0.85262700 0.38525060
vn 0.37806920 0.80146960 0.46336840
vn 0.29023040 0.64489810 0.70701680
vn 0.33598080 0.58777070 0.73596370
vn 0.08495494 0.95365890 0.28864740
vn 0.00000000 0.95537780 0.29538660
vn 0.06314578 0.95207520 0.29927490
vn 0.00000000 0.55992360 0.82854430
vn 0.00000000 0.57694720 0.81678150
vn 0.00000000 -0.05267792 0.99861160
vn 0.00000000 -0.06672810 0.99777130
vn -0.52375390 -0.03506656 0.85114760
vn -0.05832134 0.99804900 -0.02229208
vn -0.52375390 -0.03506656 0.85114760
vn -0.44815330 -0.06676634 0.89145990
vn 0.00000000 0.13488700 -0.99086100
vn 0.00000000 0.09290348 -0.99567510
vn -0.49181100 0.16481070 -0.85496160
vn -0.56169480 0.12324040 -0.81811420
vn -0.26865120 0.71381460 -0.64675750
vn 0.00000000 0.72879890 -0.68472800
vn 0.00000000 0.71495190 -0.69917370
vn -0.26865120 0.71381460 -0.64675750
vn -0.45001450 0.68544650 -0.57240740
vn -0.23724120 0.72558000 -0.64594920
vn -0.88838570 0.45252310 0.07742035
vn -0.88838570 0.45252310 0.07742035
vn -0.89447170 0.44003900 0.07928490
vn -0.85963480 0.50865420 -0.04794720
vn -0.85963480 0.50865420 -0.04794719
vn -0.85963480 0.50865420 -0.04794719
vn -0.82776990 0.56100610 -0.00831714
vn -0.82776990 0.56100610 -0.00831714
vn -0.82776990 0.56100610 -0.00831714
vn -0.35300020 0.85262700 0.38525060
vn -0.37806910 0.80146960 0.46336840
vn -0.33598080 0.58777060 0.73596380
vn -0.29023040 0.64489810 0.70701690
vn -0.08495494 0.95365890 0.28864740
vn -0.06314578 0.95207520 0.29927490
vc 0.00000000 0.00000000 0.00000000 1.00000000
vc 0.00000000 0.00000000 0.00000000 1.00000000
vc 0.00000000 0.00000000 0.00000000 1.00000000
vc 0.00000000 0.00000000 0.00000000 1.00000000
vc 0.00000000 0.00000000 0.00000000 1.00000000
vc 0.00000000 0.00000000 0.00000000 1.00000000
vc 0.00000000 0.00000000 0.00000000 1.00000000
vc 0.00000000 0.00000000 0.00000000 1.00000000
vc 0.00000000 0.00000000 0.00000000 1.00000000
vc 0.00000000 0.00000000 0.00000000 1.00000000
vc 0.00000000 0.00000000 0.00000000 1.00000000
vc 0.00000000 0.00000000 0.00000000 1.00000000
vc 0.00000000 0.00000000 0.00000000 1.00000000
vc 0.00000000 0.00000000 0.00000000 1.00000000
vc 0.00000000 0.00000000 0.00000000 1.00000000
vc 0.00000000 0.00000000 0.00000000 1.00000000
vc 0.00000000 0.00000000 0.00000000 1.00000000
vc 0.00000000 0.00000000 0.00000000 1.00000000
vc 0.00000000 0.00000000 0.00000000 1.00000000
vc 0.00000000 0.00000000 0.00000000 1.00000000
vc 0.00000000 0.00000000 0.00000000 1.00000000
vc 0.00000000 0.00000000 0.00000000 1.00000000
vc 0.00000000 0.00000000 0.00000000 1.00000000
vc 0.00000000 0.00000000 0.00000000 1.00000000
vc 0.00000000 0.00000000 0.00000000 1.00000000
vc 0.00000000 0.00000000 0.00000000 1.00000000
vc 0.00000000 0.00000000 0.00000000 1.00000000
vc 0.00000000 0.00000000 0.00000000 1.00000000
vc 0.00000000 0.00000000 0.00000000 1.00000000
vc 0.00000000 0.00000000 0.00000000 1.00000000
vc 0.00000000 0.00000000 0.00000000 1.00000000
vc 0.00000000 0.00000000 0.00000000 1.00000000
vc 0.00000000 0.00000000 0.00000000 1.00000000
vc 0.00000000 0.00000000 0.00000000 1.00000000
vc 0.00000000 0.00000000 0.00000000 1.00000000
vc 0.00000000 0.00000000 0.00000000 1.00000000
vc 0.00000000 0.00000000 0.00000000 1.00000000
vc 0.00000000 0.00000000 0.00000000 1.00000000
vc 0.00000000 0.00000000 0.00000000 1.00000000
vc 0.00000000 0.00000000 0.00000000 1.00000000
vc 0.00000000 0.00000000 0.00000000 1.00000000
vc 0.00000000 0.00000000 0.00000000 1.00000000
vc 0.00000000 0.00000000 0.00000000 1.00000000
vc 0.00000000 0.00000000 0.00000000 1.00000000
vc 0.00000000 0.00000000 0.00000000 1.00000000
vc 0.00000000 0.00000000 0.00000000 1.00000000
vc 0.00000000 0.00000000 0.00000000 1.00000000
vc 0.00000000 0.00000000 0.00000000 1.00000000
vc 0.00000000 0.00000000 0.00000000 1.00000000
vc 0.00000000 0.00000000 0.00000000 1.00000000
vc 0.00000000 0.00000000 0.00000000 1.00000000
vc 0.00000000 0.00000000 0.00000000 1.00000000
vc 0.00000000 0.00000000 0.00000000 1.00000000
vc 0.00000000 0.00000000 0.00000000 1.00000000
vc 0.00000000 0.00000000 0.00000000 1.00000000
vc 0.00000000 0.00000000 0.00000000 1.00000000
vc 0.00000000 0.00000000 0.00000000 1.00000000
vc 0.00000000 0.00000000 0.00000000 1.00000000
vc 0.00000000 0.00000000 0.00000000 1.00000000
vc 0.00000000 0.00000000 0.00000000 1.00000000
vc 0.00000000 0.00000000 0.00000000 1.00000000
vc 0.00000000 0.00000000 0.00000000 1.00000000
vc 0.00000000 0.00000000 0.00000000 1.00000000
vc 0.00000000 0.00000000 0.00000000 1.00000000
vc 0.00000000 0.00000000 0.00000000 1.00000000
vc 0.00000000 0.00000000 0.00000000 1.00000000
vc 0.00000000 0.00000000 0.00000000 1.00000000
vc 0.00000000 0.00000000 0.00000000 1.00000000
vc 0.00000000 0.00000000 0.00000000 1.00000000
vc 0.00000000 0.00000000 0.00000000 1.00000000
vc 0.00000000 0.00000000 0.00000000 1.00000000
vc 0.00000000 0.00000000 0.00000000 1.00000000
vc 0.00000000 0.00000000 0.00000000 1.00000000
vc 0.00000000 0.00000000 0.00000000 1.00000000
vc 0.00000000 0.00000000 0.00000000 1.00000000
vc 0.00000000 0.00000000 0.00000000 1.00000000
vc 0.00000000 0.00000000 0.00000000 1.00000000
vc 0.00000000 0.00000000 0.00000000 1.00000000
vc 0.00000000 0.00000000 0.00000000 1.00000000
vc 0.00000000 0.00000000 0.00000000 1.00000000
vc 0.00000000 0.00000000 0.00000000 1.00000000
vc 0.00000000 0.00000000 0.00000000 1.00000000
vc 0.00000000 0.00000000 0.00000000 1.00000000
vc 0.00000000 0.00000000 0.00000000 1.00000000
vc 0.00000000 0.00000000 0.00000000 1.00000000
vc 0.00000000 0.00000000 0.00000000 1.00000000
vc 0.00000000 0.00000000 0.00000000 1.00000000
vc 0.00000000 0.00000000 0.00000000 1.00000000
vc 0.00000000 0.00000000 0.00000000 1.00000000
vc 0.00000000 0.00000000 0.00000000 1.00000000
vc 0.00000000 0.00000000 0.00000000 1.00000000
vc 0.00000000 0.00000000 0.00000000 1.00000000
vc 0.00000000 0.00000000 0.00000000 1.00000000
vc 0.00000000 0.00000000 0.00000000 1.00000000
vc 0.00000000 0.00000000 0.00000000 1.00000000
vc 0.00000000 0.00000000 0.00000000 1.00000000
vc 0.00000000 0.00000000 0.00000000 1.00000000
vc 0.00000000 0.00000000 0.00000000 1.00000000
vc 0.00000000 0.00000000 0.00000000 1.00000000
vc 0.00000000 0.00000000 0.00000000 1.00000000
vc 0.00000000 0.00000000 0.00000000 1.00000000
vc 0.00000000 0.00000000 0.00000000 1.00000000
vc 0.00000000 0.00000000 0.00000000 1.00000000
vc 0.00000000 0.00000000 0.00000000 1.00000000
vc 0.00000000 0.00000000 0.00000000 1.00000000
vc 0.00000000 0.00000000 0.00000000 1.00000000
vc 0.00000000 0.00000000 0.00000000 1.00000000
vc 0.00000000 0.00000000 0.00000000 1.00000000
vc 0.00000000 0.00000000 0.00000000 1.00000000
vc 0.00000000 0.00000000 0.00000000 1.00000000
vc 0.00000000 0.00000000 0.00000000 1.00000000
vc 0.00000000 0.00000000 0.00000000 1.00000000
vc 0.00000000 0.00000000 0.00000000 1.00000000
vc 0.00000000 0.00000000 0.00000000 1.00000000
vc 0.00000000 0.00000000 0.00000000 1.00000000
vc 0.00000000 0.00000000 0.00000000 1.00000000
vc 0.00000000 0.00000000 0.00000000 1.00000000
vc 0.00000000 0.00000000 0.00000000 1.00000000
vc 0.00000000 0.00000000 0.00000000 1.00000000
vc 0.00000000 0.00000000 0.00000000 1.00000000
vc 0.00000000 0.00000000 0.00000000 1.00000000
vc 0.00000000 0.00000000 0.00000000 1.00000000
vc 0.00000000 0.00000000 0.00000000 1.00000000
vc 0.00000000 0.00000000 0.00000000 1.00000000
vc 0.00000000 0.00000000 0.00000000 1.00000000
vc 0.00000000 0.00000000 0.00000000 1.00000000
vc 0.00000000 0.00000000 0.00000000 1.00000000
vc 0.00000000 0.00000000 0.00000000 1.00000000
vc 0.00000000 0.00000000 0.00000000 1.00000000
vc 0.00000000 0.00000000 0.00000000 1.00000000
vc 0.00000000 0.00000000 0.00000000 1.00000000
vc 0.00000000 0.00000000 0.00000000 1.00000000
vc 0.00000000 0.00000000 0.00000000 1.00000000
vc 0.00000000 0.00000000 0.00000000 1.00000000
vc 0.00000000 0.00000000 0.00000000 1.00000000
vc 0.00000000 0.00000000 0.00000000 1.00000000
g mazda_2_2011_lod_0
f 33/33/33/33 2/2/2/2 5/5/5/5
f 2/2/2/2 33/33/33/33 1/1/1/1
f 6/6/6/6 3/3/3/3 4/4/4/4
f 3/3/3/3 6/6/6/6 8/8/8/8
f 79/79/79/79 9/9/9/9 80/80/80/80
f 9/9/9/9 79/79/79/79 7/7/7/7
f 10/10/10/10 81/81/81/81 82/82/82/82
f 81/81/81/81 10/10/10/10 37/37/37/37
f 12/12/12/12 83/83/83/83 84/84/84/84
f 83/83/83/83 12/12/12/12 11/11/11/11
f 16/16/16/16 41/41/41/41 15/15/15/15
f 41/41/41/41 16/16/16/16 42/42/42/42
f 13/13/13/13 85/85/85/85 14/14/14/14
f 15/15/15/15 86/86/86/86 16/16/16/16
f 87/87/87/87 61/61/61/61 62/62/62/62
f 61/61/61/61 87/87/87/87 88/88/88/88
f 89/89/89/89 90/90/90/90 91/91/91/91
f 17/17/17/17 63/63/63/63 18/18/18/18
f 63/63/63/63 17/17/17/17 64/64/64/64
f 65/65/65/65 17/17/17/17 18/18/18/18
f 17/17/17/17 65/65/65/65 66/66/66/66
f 92/92/92/92 67/67/67/67 93/93/93/93
f 67/67/67/67 92/92/92/92 94/94/94/94
f 94/94/94/94 92/92/92/92 95/95/95/95
f 95/95/95/95 92/92/92/92 96/96/96/96
f 68/68/68/68 97/97/97/97 69/69/69/69
f 98/98/98/98 99/99/99/99 100/100/100/100
f 101/101/101/101 102/102/102/102 70/70/70/70
f 102/102/102/102 101/101/101/101 103/103/103/103
f 23/23/23/23 21/21/21/21 22/22/22/22
f 21/21/21/21 19/19/19/19 20/20/20/20
f 23/23/23/23 19/19/19/19 21/21/21/21
f 24/24/24/24 19/19/19/19 23/23/23/23
f 29/29/29/29 27/27/27/27 28/28/28/28
f 27/27/27/27 25/25/25/25 26/26/26/26
f 29/29/29/29 25/25/25/25 27/27/27/27
f 30/30/30/30 25/25/25/25 29/29/29/29
f 33/33/33/33 31/31/31/31 1/1/1/1
f 31/31/31/31 33/33/33/33 34/34/34/34
f 104/104/104/104 32/32/32/32 35/35/35/35
f 32/32/32/32 104/104/104/104 105/105/105/105
f 106/106/106/106 36/36/36/36 107/107/107/107
f 36/36/36/36 106/106/106/106 108/108/108/108
f 38/38/38/38 81/81/81/81 37/37/37/37
f 81/81/81/81 38/38/38/38 109/109/109/109
f 40/40/40/40 110/110/110/110 39/39/39/39
f 110/110/110/110 40/40/40/40 111/111/111/111
f 46/46/46/46 112/112/112/112 113/113/113/113
f 112/112/112/112 46/46/46/46 45/45/45/45
f 43/43/43/43 45/45/45/45 46/46/46/46
f 114/114/114/114 115/115/115/115 44/44/44/44
f 116/116/116/116 117/117/117/117 118/118/118/118
f 117/117/117/117 116/116/116/116 71/71/71/71
f 119/119/119/119 120/120/120/120 121/121/121/121
f 47/47/47/47 72/72/72/72 73/73/73/73
f 72/72/72/72 47/47/47/47 48/48/48/48
f 74/74/74/74 47/47/47/47 75/75/75/75
f 47/47/47/47 74/74/74/74 48/48/48/48
f 122/122/122/122 123/123/123/123 76/76/76/76
f 76/76/76/76 124/124/124/124 122/122/122/122
f 125/125/125/125 126/126/126/126 127/127/127/127
f 128/128/128/128 129/129/129/129 130/130/130/130
f 77/77/77/77 78/78/78/78 131/131/131/131
f 132/132/132/132 133/133/133/133 134/134/134/134
f 135/135/135/135 102/102/102/102 136/136/136/136
f 102/102/102/102 135/135/135/135 70/70/70/70
f 49/49/49/49 51/51/51/51 50/50/50/50
f 51/51/51/51 53/53/53/53 52/52/52/52
f 49/49/49/49 53/53/53/53 51/51/51/51
f 54/54/54/54 53/53/53/53 49/49/49/49
f 55/55/55/55 57/57/57/57 56/56/56/56
f 57/57/57/57 59/59/59/59 58/58/58/58
f 55/55/55/55 59/59/59/59 57/57/57/57
f 60/60/60/60 59/59/59/59 55/55/55/55
