# Blender v2.79 (sub 0) OBJ File: ''
# www.blender.org
mtllib Peugeot 406_LOD.mtl
o peugeot_406_pf_lod_0
v 0.835066 0.778630 -1.607873
v 0.709430 0.994057 -1.628664
v 0.876266 0.724659 -0.193656
v 0.561322 1.310148 -0.978166
v 0.542743 1.344424 -0.325735
v 0.575172 1.301024 0.179780
v 0.770971 0.905622 0.830603
v 0.870219 0.678887 0.901770
v 0.809288 0.199732 0.851004
v 0.786161 0.199631 -0.222804
v 0.790367 0.254062 -1.743231
v 0.687795 0.945602 -2.126974
v 0.771198 0.624034 -2.177977
v 0.000000 0.633836 -2.257884
v 0.000000 0.971226 -2.204777
v 0.000000 0.282586 -2.176627
v 0.000000 1.031126 -1.755393
v 0.000000 1.340494 -1.091569
v 0.000000 1.380031 -0.315254
v 0.000000 1.326632 0.295013
v 0.856438 0.533888 1.644408
v 0.730947 0.706604 1.942484
v 0.750969 0.530459 2.041607
v 0.811439 0.202006 1.713370
v 0.718665 0.209120 1.987814
v -0.000000 0.218397 2.194469
v -0.000000 0.533607 2.263969
v -0.000000 0.682385 2.171711
v 0.000000 0.940427 1.126003
v 0.728580 0.288907 -2.084774
v 0.866262 -0.000000 1.330000
v 0.866262 0.465000 1.598468
v 0.866262 0.155000 1.598468
v 0.866262 0.465000 1.061532
v 0.866262 0.620000 1.330000
v 0.866262 0.155000 1.061532
v 0.835324 0.000000 -1.350000
v 0.835324 0.465000 -1.081532
v 0.835324 0.155000 -1.081532
v 0.835324 0.465000 -1.618468
v 0.835324 0.620000 -1.350000
v 0.835324 0.155000 -1.618468
v -0.835065 0.778630 -1.607873
v -0.876266 0.724659 -0.193656
v -0.709429 0.994057 -1.628664
v -0.561322 1.310148 -0.978166
v -0.542742 1.344424 -0.325736
v -0.575172 1.301024 0.179779
v -0.770971 0.905622 0.830603
v -0.870219 0.678887 0.901770
v -0.809288 0.199732 0.851004
v -0.786161 0.199631 -0.222804
v -0.790367 0.254062 -1.743231
v -0.687794 0.945602 -2.126974
v -0.771197 0.624034 -2.177977
v -0.856438 0.533888 1.644407
v -0.750969 0.530459 2.041607
v -0.730948 0.706604 1.942484
v -0.811439 0.202006 1.713369
v -0.718666 0.209120 1.987814
v -0.728580 0.288907 -2.084774
v -0.866262 0.465000 1.061532
v -0.866262 0.465000 1.598468
v -0.866262 0.620000 1.330000
v -0.866262 -0.000000 1.330000
v -0.866262 0.155000 1.598468
v -0.866262 0.155000 1.061532
v -0.835323 0.465000 -1.618468
v -0.835323 0.465000 -1.081532
v -0.835323 0.620000 -1.350000
v -0.835323 0.000000 -1.350000
v -0.835323 0.155000 -1.081532
v -0.835323 0.155000 -1.618468
vt 0.270700 0.512760
vt 0.266430 0.561910
vt 0.549540 0.500450
vt 0.394460 0.630890
vt 0.523050 0.639020
vt 0.622740 0.628760
vt 0.751300 0.542420
vt 0.765470 0.494000
vt 0.755380 0.418390
vt 0.543670 0.419930
vt 0.243950 0.427750
vt 0.168170 0.555460
vt 0.158230 0.492370
vt 0.973560 0.140700
vt 0.837970 0.079240
vt 0.837970 0.145750
vt 0.990000 0.077310
vt 0.837970 0.010000
vt 0.974660 0.961260
vt 0.901410 0.825680
vt 0.876430 0.965530
vt 0.990000 0.825680
vt 0.770550 0.825680
vt 0.748190 0.936330
vt 0.617510 0.825680
vt 0.619580 0.932670
vt 0.519930 0.939060
vt 0.497210 0.825680
vt 0.911840 0.471180
vt 0.970430 0.513250
vt 0.990000 0.481330
vt 0.925380 0.419160
vt 0.979350 0.429760
vt 0.511900 0.049510
vt 0.363860 0.111030
vt 0.511900 0.111650
vt 0.370230 0.047680
vt 0.511900 0.140980
vt 0.367800 0.145750
vt 0.333390 0.825680
vt 0.172440 0.969770
vt 0.391630 0.977660
vt 0.127250 0.825680
vt 0.981600 0.011250
vt 0.176540 0.439580
vt 0.132220 0.339460
vt 0.040560 0.392390
vt 0.101670 0.392390
vt 0.040560 0.286540
vt 0.010000 0.339460
vt 0.101670 0.286540
vt 0.132220 0.586100
vt 0.040560 0.639020
vt 0.101670 0.639020
vt 0.040560 0.533170
vt 0.010000 0.586100
vt 0.101670 0.533170
vt 0.877530 0.266130
vt 0.598690 0.253810
vt 0.881800 0.315270
vt 0.753770 0.384260
vt 0.625180 0.392390
vt 0.525490 0.382120
vt 0.396920 0.295790
vt 0.382760 0.247370
vt 0.392850 0.171760
vt 0.604560 0.173300
vt 0.904270 0.181110
vt 0.980060 0.308820
vt 0.990000 0.245740
vt 0.702380 0.140700
vt 0.685940 0.077310
vt 0.974660 0.690090
vt 0.876430 0.685820
vt 0.748190 0.715020
vt 0.619580 0.718680
vt 0.519930 0.712290
vt 0.236380 0.224540
vt 0.158230 0.234700
vt 0.177790 0.266620
vt 0.222850 0.172520
vt 0.168880 0.183130
vt 0.659940 0.111030
vt 0.653570 0.047680
vt 0.655990 0.145750
vt 0.172440 0.681580
vt 0.391630 0.673690
vt 0.694340 0.011250
vt 0.971690 0.192950
vt 0.246190 0.145750
vt 0.246190 0.039910
vt 0.215630 0.092830
vt 0.337850 0.092830
vt 0.307300 0.039910
vt 0.307300 0.145750
vt 0.089290 0.145750
vt 0.089290 0.039910
vt 0.058740 0.092830
vt 0.180960 0.092830
vt 0.150400 0.039910
vt 0.150400 0.145750
vn 0.9718 0.2279 -0.0614
vn 0.5974 0.7854 -0.1616
vn 0.9866 0.1627 -0.0078
vn 0.5180 0.8424 -0.1488
vn 0.5218 0.8531 0.0054
vn 0.5150 0.8376 0.1825
vn 0.6525 0.7327 0.1935
vn 0.9856 0.1649 0.0366
vn 0.9911 -0.1333 -0.0054
vn 0.9856 -0.1685 -0.0120
vn 0.9913 -0.1008 -0.0840
vn 0.4963 0.6565 -0.5680
vn 0.6891 0.0019 -0.7247
vn 0.0000 -0.0298 -0.9996
vn 0.0000 0.7016 -0.7126
vn -0.0000 -0.2407 -0.9706
vn -0.0000 0.9658 -0.2592
vn 0.0000 0.9659 -0.2590
vn 0.0000 0.9998 0.0177
vn -0.0000 0.9550 0.2966
vn 0.9827 0.1389 0.1226
vn 0.5502 0.7036 0.4498
vn 0.6740 0.1311 0.7270
vn 0.9796 -0.1207 0.1609
vn 0.6900 -0.1864 0.6994
vn 0.0000 -0.2096 0.9778
vn 0.0000 0.1588 0.9873
vn 0.0000 0.7712 0.6366
vn -0.0000 0.9569 0.2903
vn 0.6961 -0.2732 -0.6640
vn 1.0000 -0.0000 0.0000
vn -0.9718 0.2279 -0.0614
vn -0.9866 0.1627 -0.0078
vn -0.5974 0.7854 -0.1616
vn -0.5180 0.8424 -0.1488
vn -0.5218 0.8531 0.0054
vn -0.5150 0.8376 0.1825
vn -0.6525 0.7327 0.1935
vn -0.9856 0.1649 0.0366
vn -0.9911 -0.1333 -0.0054
vn -0.9856 -0.1685 -0.0120
vn -0.9913 -0.1008 -0.0840
vn -0.4963 0.6565 -0.5680
vn -0.6891 0.0019 -0.7247
vn -0.9827 0.1389 0.1226
vn -0.6740 0.1311 0.7270
vn -0.5502 0.7036 0.4498
vn -0.9796 -0.1207 0.1609
vn -0.6900 -0.1864 0.6994
vn -0.6961 -0.2732 -0.6640
vn -1.0000 0.0000 0.0000
usemtl None
s 1
f 1/1/1 2/2/2 3/3/3
f 4/4/4 3/3/3 2/2/2
f 3/3/3 4/4/4 5/5/5
f 6/6/6 3/3/3 5/5/5
f 3/3/3 6/6/6 7/7/7
f 7/7/7 8/8/8 3/3/3
f 9/9/9 3/3/3 8/8/8
f 3/3/3 9/9/9 10/10/10
f 1/1/1 3/3/3 11/11/11
f 12/12/12 1/1/1 13/13/13
f 2/2/2 1/1/1 12/12/12
f 12/14/12 14/15/14 15/16/15
f 14/15/14 12/14/12 13/17/13
f 14/15/14 13/17/13 16/18/16
f 12/19/12 17/20/17 2/21/2
f 17/20/17 12/19/12 15/22/15
f 18/23/18 2/21/2 17/20/17
f 2/21/2 18/23/18 4/24/4
f 4/24/4 19/25/19 5/26/5
f 19/25/19 4/24/4 18/23/18
f 6/27/6 19/25/19 20/28/20
f 19/25/19 6/27/6 5/26/5
f 21/29/21 22/30/22 23/31/23
f 24/32/24 23/31/23 25/33/25
f 23/31/23 24/32/24 21/29/21
f 26/34/26 23/35/23 27/36/27
f 23/35/23 26/34/26 25/37/25
f 28/38/28 23/35/23 22/39/22
f 23/35/23 28/38/28 27/36/27
f 29/40/29 22/41/22 7/42/7
f 22/41/22 29/40/29 28/43/28
f 7/42/7 20/28/20 29/40/29
f 20/28/20 7/42/7 6/27/6
f 9/9/9 21/29/21 24/32/24
f 21/29/21 9/9/9 8/8/8
f 21/29/21 7/7/7 22/30/22
f 7/7/7 21/29/21 8/8/8
f 11/11/11 3/3/3 10/10/10
f 16/18/16 13/17/13 30/44/30
f 11/11/11 13/13/13 1/1/1
f 13/13/13 11/11/11 30/45/30
f 31/46/31 32/47/31 33/48/31
f 32/47/31 34/49/31 35/50/31
f 31/46/31 34/49/31 32/47/31
f 36/51/31 34/49/31 31/46/31
f 37/52/31 38/53/31 39/54/31
f 38/53/31 40/55/31 41/56/31
f 37/52/31 40/55/31 38/53/31
f 42/57/31 40/55/31 37/52/31
f 43/58/32 44/59/33 45/60/34
f 46/61/35 45/60/34 44/59/33
f 44/59/33 47/62/36 46/61/35
f 48/63/37 47/62/36 44/59/33
f 44/59/33 49/64/38 48/63/37
f 49/64/38 44/59/33 50/65/39
f 51/66/40 44/59/33 52/67/41
f 44/59/33 51/66/40 50/65/39
f 43/58/32 53/68/42 44/59/33
f 54/69/43 55/70/44 43/58/32
f 45/60/34 54/69/43 43/58/32
f 54/71/43 14/15/14 55/72/44
f 14/15/14 54/71/43 15/16/15
f 14/15/14 16/18/16 55/72/44
f 54/73/43 17/20/17 15/22/15
f 17/20/17 54/73/43 45/74/34
f 18/23/18 45/74/34 46/75/35
f 45/74/34 18/23/18 17/20/17
f 46/75/35 19/25/19 18/23/18
f 19/25/19 46/75/35 47/76/36
f 48/77/37 19/25/19 47/76/36
f 19/25/19 48/77/37 20/28/20
f 56/78/45 57/79/46 58/80/47
f 59/81/48 57/79/46 56/78/45
f 57/79/46 59/81/48 60/82/49
f 26/34/26 57/83/46 60/84/49
f 57/83/46 26/34/26 27/36/27
f 28/38/28 57/83/46 27/36/27
f 57/83/46 28/38/28 58/85/47
f 29/40/29 58/86/47 28/43/28
f 58/86/47 29/40/29 49/87/38
f 49/87/38 20/28/20 48/77/37
f 20/28/20 49/87/38 29/40/29
f 51/66/40 56/78/45 50/65/39
f 56/78/45 51/66/40 59/81/48
f 56/78/45 58/80/47 49/64/38
f 49/64/38 50/65/39 56/78/45
f 53/68/42 52/67/41 44/59/33
f 16/18/16 61/88/50 55/72/44
f 53/68/42 43/58/32 55/70/44
f 55/70/44 61/89/50 53/68/42
f 62/90/51 63/91/51 64/92/51
f 63/91/51 65/93/51 66/94/51
f 62/90/51 65/93/51 63/91/51
f 67/95/51 65/93/51 62/90/51
f 68/96/51 69/97/51 70/98/51
f 69/97/51 71/99/51 72/100/51
f 68/96/51 71/99/51 69/97/51
f 73/101/51 71/99/51 68/96/51
