# Blender v2.79 (sub 0) OBJ File: ''
# www.blender.org
mtllib Audi RS6 C5_LOD.mtl
o rs6_lod_0
v 0.793649 0.717418 1.947889
v 0.747208 0.926859 0.994182
v 0.413332 0.806653 2.133622
v 0.000000 0.961202 1.236777
v 0.000000 0.817539 2.177761
v 0.586677 1.305194 0.352730
v 0.000000 1.337992 0.411181
v 0.000000 1.431616 -0.295125
v 0.543724 1.395713 -0.315824
v 0.763824 0.517597 2.126323
v 0.380741 0.533564 2.379145
v 0.000000 0.532424 2.428915
v 0.339854 0.252131 2.343122
v 0.000000 0.256857 2.396051
v 0.738862 0.243580 2.083963
v 0.837999 0.816501 1.018552
v 0.858605 0.207743 1.013502
v 0.867898 0.211044 -0.968074
v 0.856173 0.856949 -0.146844
v 0.585956 1.298403 -1.076892
v 0.780631 0.878046 -2.011933
v 0.744048 0.320148 -2.084709
v 0.655216 1.027967 -1.729051
v 0.602577 0.963108 -2.213103
v 0.524442 0.337476 -2.300876
v 0.000000 0.984205 -2.289325
v 0.000000 0.337931 -2.365520
v 0.000000 1.061648 -1.898760
v 0.000000 1.339307 -1.142749
v 0.857758 0.630000 1.412000
v 0.857758 0.157500 1.139202
v 0.857758 0.472500 1.139202
v 0.857759 0.157500 1.684798
v 0.857758 -0.000000 1.412000
v 0.857759 0.472500 1.684798
v 0.863580 0.630000 -1.354780
v 0.863580 0.157500 -1.627578
v 0.863580 0.472500 -1.627578
v 0.863580 0.157500 -1.081982
v 0.863580 0.000000 -1.354780
v 0.863580 0.472500 -1.081982
v -0.793649 0.717418 1.947889
v -0.413332 0.806653 2.133622
v -0.747208 0.926859 0.994182
v -0.586677 1.305194 0.352730
v -0.543724 1.395713 -0.315824
v -0.763824 0.517597 2.126323
v -0.380741 0.533564 2.379145
v -0.339854 0.252131 2.343122
v -0.738862 0.243580 2.083963
v -0.837999 0.816501 1.018552
v -0.858605 0.207743 1.013502
v -0.867898 0.211044 -0.968074
v -0.856173 0.856949 -0.146844
v -0.585956 1.298403 -1.076892
v -0.780631 0.878046 -2.011933
v -0.744048 0.320148 -2.084709
v -0.655216 1.027967 -1.729051
v -0.602577 0.963108 -2.213103
v -0.524442 0.337476 -2.300876
v -0.857759 0.157500 1.684798
v -0.857758 0.157500 1.139202
v -0.857758 -0.000000 1.412000
v -0.857758 0.630000 1.412000
v -0.857758 0.472500 1.139202
v -0.857759 0.472500 1.684798
v -0.863580 0.157500 -1.081982
v -0.863580 0.157500 -1.627578
v -0.863580 0.000000 -1.354780
v -0.863580 0.630000 -1.354780
v -0.863580 0.472500 -1.627578
v -0.863580 0.472500 -1.081982
vt 0.938140 0.221050
vt 0.736670 0.231330
vt 0.972120 0.303420
vt 0.782330 0.388020
vt 0.980300 0.388020
vt 0.584120 0.267750
vt 0.594370 0.388020
vt 0.449180 0.388020
vt 0.445010 0.276590
vt 0.041690 0.880640
vt 0.119300 0.937650
vt 0.133700 0.864630
vt 0.027580 0.935920
vt 0.207760 0.937760
vt 0.207760 0.860410
vt 0.132470 0.806880
vt 0.207760 0.803540
vt 0.031400 0.821880
vt 0.721080 0.151860
vt 0.717050 0.181720
vt 0.914810 0.131510
vt 0.719800 0.025610
vt 0.952360 0.089890
vt 0.309510 0.027640
vt 0.479650 0.160180
vt 0.286920 0.267720
vt 0.096690 0.167260
vt 0.076940 0.054020
vt 0.150880 0.211340
vt 0.045970 0.192890
vt 0.702000 0.799720
vt 0.718330 0.929560
vt 0.765580 0.799980
vt 0.593150 0.932030
vt 0.593150 0.798250
vt 0.041200 0.264100
vt 0.109860 0.388020
vt 0.141590 0.251930
vt 0.027580 0.388020
vt 0.275370 0.388020
vt 0.944080 0.032650
vt 0.890820 0.975750
vt 0.801720 0.821420
vt 0.801720 0.924300
vt 0.979920 0.821420
vt 0.890820 0.769980
vt 0.979920 0.924300
vt 0.890820 0.975750
vt 0.801720 0.821420
vt 0.801720 0.924300
vt 0.979920 0.821420
vt 0.890820 0.769980
vt 0.979920 0.924300
vt 0.938140 0.554990
vt 0.972120 0.472620
vt 0.736670 0.544720
vt 0.584120 0.508290
vt 0.445010 0.499450
vt 0.373830 0.880640
vt 0.296230 0.937650
vt 0.387950 0.935920
vt 0.281820 0.864630
vt 0.283060 0.806880
vt 0.384130 0.821880
vt 0.721080 0.624190
vt 0.914810 0.644530
vt 0.717050 0.594320
vt 0.719810 0.750430
vt 0.952360 0.686140
vt 0.309510 0.748400
vt 0.479650 0.615860
vt 0.286920 0.508330
vt 0.096690 0.608780
vt 0.076940 0.722020
vt 0.150880 0.564700
vt 0.045970 0.583160
vt 0.484310 0.799720
vt 0.420730 0.799980
vt 0.467980 0.929560
vt 0.041200 0.511940
vt 0.141590 0.524110
vt 0.944080 0.743390
vt 0.801720 0.821420
vt 0.979920 0.821420
vt 0.890820 0.769980
vt 0.890820 0.975750
vt 0.979920 0.924300
vt 0.801720 0.924300
vt 0.801720 0.821420
vt 0.979920 0.821420
vt 0.890820 0.769980
vt 0.890820 0.975750
vt 0.979920 0.924300
vt 0.801720 0.924300
vn 0.7963 0.5726 0.1950
vn 0.4671 0.7713 0.4324
vn 0.2445 0.8373 0.4891
vn -0.0000 0.9639 0.2662
vn -0.0000 0.8694 0.4941
vn 0.5142 0.8335 0.2020
vn 0.0000 0.9590 0.2835
vn 0.0000 0.9999 0.0140
vn 0.5003 0.8659 0.0013
vn 0.8007 0.1256 0.5858
vn 0.3311 0.2444 0.9114
vn 0.0000 0.2818 0.9595
vn 0.3355 -0.1599 0.9284
vn 0.0000 -0.1184 0.9930
vn 0.8547 -0.1545 0.4955
vn 0.9298 0.3635 0.0572
vn 0.9991 0.0125 0.0403
vn 0.9984 0.0378 -0.0416
vn 0.9635 0.2674 0.0080
vn 0.5531 0.8144 -0.1759
vn 0.8748 0.3705 -0.3121
vn 0.8119 -0.2679 -0.5186
vn 0.5331 0.8457 0.0229
vn 0.5327 0.7465 -0.3988
vn 0.4109 0.0741 -0.9086
vn 0.0000 0.6645 -0.7473
vn 0.0000 0.1171 -0.9931
vn 0.0000 0.9673 -0.2535
vn -0.0000 0.9710 -0.2390
vn 1.0000 0.0000 -0.0000
vn -0.6997 0.5915 0.4007
vn -0.2445 0.8373 0.4891
vn -0.5370 0.7239 0.4331
vn -0.5142 0.8335 0.2020
vn -0.5003 0.8659 0.0013
vn -0.8007 0.1256 0.5858
vn -0.3311 0.2444 0.9114
vn -0.3355 -0.1599 0.9284
vn -0.8547 -0.1545 0.4955
vn -0.9298 0.3635 0.0572
vn -0.9991 0.0125 0.0403
vn -0.9984 0.0378 -0.0416
vn -0.9638 0.2664 -0.0053
vn -0.5531 0.8144 -0.1759
vn -0.8748 0.3705 -0.3121
vn -0.8120 -0.2679 -0.5186
vn -0.5648 0.7595 -0.3226
vn -0.6803 0.5559 -0.4776
vn -0.4109 0.0741 -0.9086
vn -1.0000 -0.0000 -0.0000
usemtl None
s 1
f 1/1/1 2/2/2 3/3/3
f 3/3/3 4/4/4 5/5/5
f 4/4/4 3/3/3 2/2/2
f 6/6/6 4/4/4 2/2/2
f 4/4/4 6/6/6 7/7/7
f 6/6/6 8/8/8 7/7/7
f 8/8/8 6/6/6 9/9/9
f 10/10/10 3/11/3 11/12/11
f 3/11/3 10/10/10 1/13/1
f 11/12/11 5/14/5 12/15/12
f 5/14/5 11/12/11 3/11/3
f 13/16/13 12/15/12 14/17/14
f 12/15/12 13/16/13 11/12/11
f 13/16/13 10/10/10 11/12/11
f 10/10/10 13/16/13 15/18/15
f 16/19/16 2/20/2 1/21/1
f 17/22/17 1/21/1 10/23/10
f 1/21/1 17/22/17 16/19/16
f 18/24/18 19/25/19 17/22/17
f 19/25/19 16/19/16 17/22/17
f 2/20/2 16/19/16 19/25/19
f 2/20/2 19/25/19 6/6/6
f 6/6/6 19/25/19 9/9/9
f 9/9/9 19/25/19 20/26/20
f 18/24/18 21/27/21 19/25/19
f 21/27/21 18/24/18 22/28/22
f 19/25/19 21/27/21 23/29/23
f 23/29/23 20/26/20 19/25/19
f 23/29/23 21/27/21 24/30/24
f 25/31/25 24/32/24 22/33/22
f 26/34/26 25/31/25 27/35/27
f 25/31/25 26/34/26 24/32/24
f 24/36/24 28/37/28 23/38/23
f 28/37/28 24/36/24 26/39/26
f 20/26/20 28/37/28 29/40/29
f 28/37/28 20/26/20 23/38/23
f 9/9/9 29/40/29 8/8/8
f 29/40/29 9/9/9 20/26/20
f 17/22/17 10/23/10 15/41/15
f 22/28/22 24/30/24 21/27/21
f 30/42/30 31/43/30 32/44/30
f 31/43/30 33/45/30 34/46/30
f 30/42/30 33/45/30 31/43/30
f 35/47/30 33/45/30 30/42/30
f 36/48/30 37/49/30 38/50/30
f 37/49/30 39/51/30 40/52/30
f 36/48/30 39/51/30 37/49/30
f 41/53/30 39/51/30 36/48/30
f 42/54/31 43/55/32 44/56/33
f 43/55/32 4/4/4 44/56/33
f 4/4/4 43/55/32 5/5/5
f 45/57/34 4/4/4 7/7/7
f 4/4/4 45/57/34 44/56/33
f 45/57/34 8/8/8 46/58/35
f 8/8/8 45/57/34 7/7/7
f 47/59/36 43/60/32 42/61/31
f 43/60/32 47/59/36 48/62/37
f 48/62/37 5/14/5 43/60/32
f 5/14/5 48/62/37 12/15/12
f 49/63/38 12/15/12 48/62/37
f 12/15/12 49/63/38 14/17/14
f 49/63/38 47/59/36 50/64/39
f 47/59/36 49/63/38 48/62/37
f 51/65/40 42/66/31 44/67/33
f 52/68/41 42/66/31 51/65/40
f 42/66/31 52/68/41 47/69/36
f 53/70/42 52/68/41 54/71/43
f 54/71/43 52/68/41 51/65/40
f 44/67/33 54/71/43 51/65/40
f 44/67/33 45/57/34 54/71/43
f 45/57/34 46/58/35 54/71/43
f 46/58/35 55/72/44 54/71/43
f 53/70/42 56/73/45 57/74/46
f 56/73/45 53/70/42 54/71/43
f 54/71/43 58/75/47 56/73/45
f 58/75/47 54/71/43 55/72/44
f 58/75/47 59/76/48 56/73/45
f 60/77/49 57/78/46 59/79/48
f 26/34/26 60/77/49 59/79/48
f 60/77/49 26/34/26 27/35/27
f 59/80/48 28/37/28 26/39/26
f 28/37/28 59/80/48 58/81/47
f 55/72/44 28/37/28 58/81/47
f 28/37/28 55/72/44 29/40/29
f 46/58/35 29/40/29 55/72/44
f 29/40/29 46/58/35 8/8/8
f 52/68/41 50/82/39 47/69/36
f 57/74/46 56/73/45 59/76/48
f 61/83/50 62/84/50 63/85/50
f 62/84/50 64/86/50 65/87/50
f 61/83/50 64/86/50 62/84/50
f 66/88/50 64/86/50 61/83/50
f 67/89/50 68/90/50 69/91/50
f 68/90/50 70/92/50 71/93/50
f 67/89/50 70/92/50 68/90/50
f 72/94/50 70/92/50 67/89/50
