# Blender v2.79 (sub 0) OBJ File: 'sunday-cars.blend'
# www.blender.org
mtllib Audi RS6 C5_LOD.mtl
o Audi_RS6_C5_LOD_audi_rs6_c5_lod
v 0.793649 0.717418 1.947889
v 0.747208 0.926859 0.994182
v 0.413332 0.806653 2.133622
v 0.000000 0.961202 1.236777
v 0.000000 0.817539 2.177761
v 0.586677 1.305194 0.352730
v 0.000000 1.337992 0.411181
v 0.000000 1.431616 -0.295125
v 0.543724 1.395713 -0.315824
v 0.763824 0.517597 2.126323
v 0.380741 0.533564 2.379145
v 0.000000 0.532424 2.428915
v 0.339854 0.252131 2.343122
v 0.000000 0.256857 2.396051
v 0.738862 0.243580 2.083963
v 0.837999 0.816501 1.018552
v 0.858605 0.207743 1.013502
v 0.867898 0.211044 -0.968074
v 0.856173 0.856949 -0.146844
v 0.585956 1.298403 -1.076892
v 0.780631 0.878046 -2.011933
v 0.744048 0.276419 -2.084709
v 0.602577 0.932253 -2.213103
v 0.524442 0.337476 -2.300876
v 0.000000 0.953350 -2.289325
v 0.000000 0.337931 -2.365520
v 0.000000 1.339307 -1.142749
v -0.793649 0.717418 1.947889
v -0.413332 0.806653 2.133622
v -0.747208 0.926859 0.994182
v -0.586677 1.305194 0.352730
v -0.543724 1.395713 -0.315824
v -0.763824 0.517597 2.126323
v -0.380741 0.533564 2.379145
v -0.339854 0.252131 2.343122
v -0.738862 0.243580 2.083963
v -0.837999 0.816501 1.018552
v -0.858605 0.207743 1.013502
v -0.867898 0.211044 -0.968074
v -0.856173 0.856949 -0.146844
v -0.585956 1.298403 -1.076892
v -0.780631 0.878046 -2.011933
v -0.744048 0.276419 -2.084709
v -0.602577 0.932253 -2.213103
v -0.524442 0.337476 -2.300876
vt 0.938140 0.221050
vt 0.736670 0.231330
vt 0.972120 0.303420
vt 0.782330 0.388020
vt 0.980300 0.388020
vt 0.594370 0.388020
vt 0.584120 0.508290
vt 0.736670 0.544720
vt 0.041690 0.880640
vt 0.119300 0.937650
vt 0.133700 0.864630
vt 0.027580 0.935920
vt 0.207760 0.937760
vt 0.207760 0.860410
vt 0.132470 0.806880
vt 0.207760 0.803540
vt 0.031400 0.821880
vt 0.721080 0.151860
vt 0.717050 0.181720
vt 0.914810 0.131510
vt 0.719800 0.025610
vt 0.952360 0.089890
vt 0.309510 0.027640
vt 0.479650 0.160180
vt 0.584120 0.267750
vt 0.445010 0.276590
vt 0.286920 0.267720
vt 0.089939 0.164842
vt 0.077024 0.053988
vt 0.702000 0.799720
vt 0.716983 0.921240
vt 0.765580 0.799980
vt 0.593150 0.932030
vt 0.593150 0.798250
vt 0.022069 0.392278
vt 0.275370 0.388020
vt 0.035752 0.266803
vt 0.449180 0.388020
vt 0.944080 0.032650
vt 0.046306 0.176672
vt 0.938140 0.554990
vt 0.972120 0.472620
vt 0.373830 0.880640
vt 0.296230 0.937650
vt 0.387950 0.935920
vt 0.281820 0.864630
vt 0.283060 0.806880
vt 0.384130 0.821880
vt 0.721080 0.624190
vt 0.914810 0.644530
vt 0.717050 0.594320
vt 0.719810 0.750430
vt 0.952360 0.686140
vt 0.309510 0.748400
vt 0.479650 0.615860
vt 0.445010 0.499450
vt 0.286997 0.508330
vt 0.096114 0.607555
vt 0.076940 0.722020
vt 0.050497 0.583718
vt 0.022619 0.514192
vt 0.484310 0.799720
vt 0.420730 0.799980
vt 0.467980 0.929560
vt 0.089883 0.164868
vt 0.046306 0.176672
vt 0.944080 0.743390
vt 0.077684 0.721078
vn 0.3110 0.9313 0.1894
vn 0.1470 0.9783 0.1463
vn 0.1381 0.9776 0.1587
vn 0.0000 0.9908 0.1350
vn 0.0000 0.9885 0.1509
vn 0.0000 0.8955 0.4450
vn -0.1440 0.8862 0.4404
vn 0.4698 0.5523 0.6886
vn 0.3107 0.6127 0.7267
vn 0.2503 0.6303 0.7349
vn 0.4672 0.5491 0.6930
vn 0.0000 0.6615 0.7499
vn 0.0000 0.6610 0.7504
vn 0.3355 -0.1599 0.9284
vn -0.0000 -0.1304 0.9915
vn -0.0000 -0.1184 0.9930
vn 0.3506 -0.1688 0.9212
vn 0.5344 -0.1788 0.8261
vn 0.5335 -0.1765 0.8272
vn 0.9298 0.3635 0.0572
vn 0.7888 0.6114 0.0628
vn 0.9959 0.0035 0.0907
vn 0.9991 0.0125 0.0403
vn 0.9907 -0.0835 0.1076
vn 0.9984 0.0373 -0.0422
vn 0.9627 0.2706 0.0033
vn 0.8756 0.4813 0.0406
vn 0.8656 0.5007 -0.0040
vn 0.8768 0.4800 -0.0269
vn 0.9346 0.0762 -0.3475
vn 0.9037 -0.0150 -0.4279
vn 0.4244 0.0753 -0.9023
vn 0.4735 0.0809 -0.8770
vn -0.0000 0.1263 -0.9920
vn -0.0000 0.1229 -0.9924
vn 0.0000 0.9500 -0.3124
vn 0.0866 0.9464 -0.3112
vn 0.0699 0.9975 0.0061
vn 0.0012 0.9933 -0.1160
vn -0.0026 0.9999 0.0124
vn 0.0827 0.9891 -0.1219
vn 0.9876 -0.1076 0.1141
vn -0.3110 0.9313 0.1894
vn -0.1381 0.9776 0.1587
vn -0.1470 0.9783 0.1463
vn 0.1440 0.8862 0.4404
vn -0.4698 0.5523 0.6886
vn -0.3107 0.6127 0.7267
vn -0.4672 0.5491 0.6930
vn -0.2503 0.6303 0.7349
vn -0.3355 -0.1599 0.9284
vn -0.3506 -0.1688 0.9212
vn -0.5344 -0.1788 0.8261
vn -0.5335 -0.1765 0.8272
vn -0.9298 0.3635 0.0572
vn -0.9959 0.0035 0.0907
vn -0.7888 0.6114 0.0628
vn -0.9991 0.0125 0.0403
vn -0.9907 -0.0835 0.1076
vn -0.9984 0.0373 -0.0422
vn -0.9627 0.2706 0.0033
vn -0.8756 0.4813 0.0406
vn -0.8656 0.5007 -0.0040
vn -0.8768 0.4800 -0.0269
vn -0.9346 0.0762 -0.3475
vn -0.9037 -0.0150 -0.4279
vn -0.5316 0.8084 -0.2527
vn -0.0866 0.9464 -0.3112
vn -0.4244 0.0753 -0.9023
vn -0.4735 0.0809 -0.8770
vn 0.5316 0.8084 -0.2527
vn -0.9876 -0.1076 0.1141
vn -0.0720 0.9908 -0.1149
vn -0.0712 0.9975 0.0053
vn -0.0692 0.9891 0.1303
vn 0.0000 0.9914 0.1306
vn 0.0692 0.9891 0.1303
usemtl Audi_RS6_C5_LOD
s 1
f 1/1/1 2/2/2 3/3/3
f 3/3/3 4/4/4 5/5/5
f 4/4/4 3/3/3 2/2/2
f 4/4/6 7/6/6 31/7/7 30/8/7
f 10/9/8 3/10/9 11/11/10
f 3/10/9 10/9/8 1/12/11
f 11/11/10 5/13/12 12/14/13
f 5/13/12 11/11/10 3/10/9
f 13/15/14 12/14/15 14/16/16
f 12/14/15 13/15/14 11/11/17
f 13/15/14 10/9/18 11/11/17
f 10/9/18 13/15/14 15/17/19
f 16/18/20 2/19/21 1/20/22
f 17/21/23 1/20/22 10/22/24
f 1/20/22 17/21/23 16/18/20
f 18/23/25 19/24/26 17/21/23
f 19/24/26 16/18/20 17/21/23
f 2/19/21 16/18/20 19/24/26
f 2/19/21 19/24/26 6/25/27
f 6/25/27 19/24/26 9/26/28
f 9/26/28 19/24/26 20/27/29
f 18/23/25 21/28/30 19/24/26
f 21/28/30 18/23/25 22/29/31
f 24/30/32 23/31/33 22/32/31
f 25/33/34 24/30/32 26/34/35
f 24/30/32 25/33/34 23/31/33
f 25/35/36 27/36/36 20/27/37 23/37/37
f 9/26/38 27/36/39 8/38/40
f 27/36/39 9/26/38 20/27/41
f 17/21/23 10/22/24 15/39/42
f 22/29/31 23/40/33 21/28/30
f 28/41/43 29/42/44 30/8/45
f 29/42/44 4/4/4 30/8/45
f 4/4/4 29/42/44 5/5/5
f 4/4/6 2/2/46 6/25/46 7/6/6
f 33/43/47 29/44/48 28/45/49
f 29/44/48 33/43/47 34/46/50
f 34/46/50 5/13/12 29/44/48
f 5/13/12 34/46/50 12/14/13
f 35/47/51 12/14/15 34/46/52
f 12/14/15 35/47/51 14/16/16
f 35/47/51 33/43/53 36/48/54
f 33/43/53 35/47/51 34/46/52
f 37/49/55 28/50/56 30/51/57
f 38/52/58 28/50/56 37/49/55
f 28/50/56 38/52/58 33/53/59
f 39/54/60 38/52/58 40/55/61
f 40/55/61 38/52/58 37/49/55
f 30/51/57 40/55/61 37/49/55
f 30/51/57 31/7/62 40/55/61
f 31/7/62 32/56/63 40/55/61
f 32/56/63 41/57/64 40/55/61
f 39/54/60 42/58/65 43/59/66
f 42/58/65 39/54/60 40/55/61
f 42/58/67 41/57/67 44/60/67
f 41/57/68 27/36/36 25/35/36 44/61/68
f 41/57/64 42/58/65 40/55/61
f 45/62/69 43/63/66 44/64/70
f 25/33/34 45/62/69 44/64/70
f 45/62/69 25/33/34 26/34/35
f 23/65/71 20/27/71 21/66/71
f 20/27/29 19/24/26 21/28/30
f 38/52/58 36/67/72 33/53/59
f 43/68/66 42/58/65 44/60/70
f 27/36/39 41/57/73 32/56/74 8/38/40
f 8/38/40 32/56/74 31/7/75 7/6/76
f 8/38/40 7/6/76 6/25/77 9/26/38
